<?xml version="1.0" encoding="utf-8"?>
<!-- Generator: Adobe Illustrator 25.0.1, SVG Export Plug-In . SVG Version: 6.00 Build 0)  -->
<svg version="1.1" id="Capa_1" xmlns="http://www.w3.org/2000/svg" xmlns:xlink="http://www.w3.org/1999/xlink" x="0px" y="0px"
	 viewBox="0 0 489.1 237.1" style="enable-background:new 0 0 489.1 237.1;" xml:space="preserve">
<style type="text/css">
	.st0{fill:#FFFFFF;}
	.st1{fill:none;stroke:#FFFFFF;stroke-width:2;stroke-miterlimit:10;}
</style>
<g>
	<path class="st0" d="M122.4,158c0,0.7,0.2,1.5,0.5,2.1c0.3,0.6,0.7,1,1.2,1.4c0.5,0.4,1,0.6,1.6,0.8c0.6,0.2,1.3,0.3,2,0.3
		c0.7,0,1.4-0.1,2.1-0.3c0.5-0.2,1.1-0.5,1.5-0.8c0.4-0.3,0.7-0.8,0.8-1.2c0.2-0.5,0.3-1,0.3-1.5c0-0.6-0.1-1.2-0.5-1.8
		c-0.3-0.5-0.8-0.8-1.3-1.1c-0.6-0.3-1.2-0.5-1.8-0.7c-0.7-0.2-1.4-0.3-2.1-0.5c-0.7-0.2-1.4-0.4-2.1-0.6c-0.6-0.2-1.3-0.5-1.8-0.9
		c-0.5-0.4-1-0.9-1.3-1.5c-0.3-0.7-0.5-1.5-0.5-2.3c0-0.6,0.1-1.3,0.4-1.9c0.3-0.6,0.7-1.2,1.2-1.6c0.6-0.5,1.2-0.9,2-1.1
		c0.9-0.3,1.8-0.4,2.7-0.4c0.9,0,1.9,0.1,2.8,0.4c0.7,0.3,1.4,0.7,2,1.2c0.5,0.5,0.9,1.1,1.2,1.8c0.3,0.7,0.4,1.4,0.4,2.2h-1.7
		c0-0.6-0.1-1.3-0.4-1.8c-0.2-0.5-0.6-0.9-1-1.3c-0.4-0.3-0.9-0.6-1.5-0.7c-0.6-0.2-1.1-0.2-1.7-0.2c-0.8,0-1.5,0.1-2.3,0.4
		c-0.6,0.2-1,0.5-1.5,1c-0.3,0.4-0.6,0.8-0.8,1.3c-0.1,0.5-0.2,1-0.1,1.5c0.1,0.5,0.3,1.1,0.7,1.4c0.4,0.4,0.9,0.7,1.4,0.9
		c0.6,0.2,1.2,0.4,1.8,0.6l2,0.5c0.7,0.2,1.4,0.4,2,0.6c0.6,0.2,1.2,0.5,1.7,0.9c0.5,0.4,0.9,0.9,1.2,1.5c0.3,0.7,0.5,1.5,0.4,2.2
		c0.1,1.5-0.6,3-1.8,4c-1.5,1-3.2,1.5-5,1.4c-0.9,0-1.8-0.1-2.7-0.4c-0.8-0.2-1.5-0.6-2.1-1.1c-0.6-0.5-1.1-1.2-1.4-1.9
		c-0.4-0.8-0.5-1.7-0.5-2.7L122.4,158z"/>
	<path class="st0" d="M145.8,150.1h1.6v13.4h-1.6v-1.9c-0.2,0.2-0.4,0.5-0.7,0.8c-0.3,0.3-0.6,0.5-0.9,0.7c-0.8,0.5-1.8,0.8-2.7,0.7
		c-0.8,0-1.5-0.1-2.3-0.4c-0.6-0.2-1.1-0.6-1.5-1c-0.4-0.5-0.7-1-0.8-1.6c-0.2-0.6-0.3-1.3-0.2-2v-8.8h1.5v8.8
		c-0.1,1,0.2,1.9,0.8,2.7c0.7,0.7,1.7,1,2.6,0.9c0.6,0,1.2-0.1,1.7-0.4c0.5-0.2,0.9-0.6,1.3-1c0.4-0.5,0.6-1,0.8-1.6
		c0.2-0.7,0.3-1.4,0.3-2L145.8,150.1z"/>
	<path class="st0" d="M151.5,159.3c0.1,0.9,0.6,1.8,1.3,2.4c0.8,0.5,1.8,0.8,2.7,0.7c0.5,0,1-0.1,1.5-0.2c0.4-0.1,0.7-0.3,1-0.6
		c0.3-0.2,0.5-0.5,0.6-0.8c0.1-0.3,0.2-0.6,0.2-0.9c0-0.6-0.2-1.1-0.6-1.5c-0.5-0.3-1-0.6-1.6-0.8c-0.7-0.2-1.4-0.3-2.1-0.5
		c-0.7-0.1-1.4-0.3-2.1-0.6c-0.6-0.2-1.2-0.6-1.6-1.1c-0.5-0.6-0.7-1.3-0.6-2c0-1.1,0.4-2.1,1.2-2.8c1-0.8,2.2-1.2,3.5-1.1
		c1.3-0.1,2.5,0.3,3.5,1c1,0.8,1.6,2,1.6,3.3h-1.6c0-0.9-0.5-1.7-1.2-2.2c-0.7-0.4-1.6-0.7-2.4-0.6c-0.8-0.1-1.6,0.2-2.2,0.6
		c-0.5,0.4-0.8,1-0.8,1.7c0,0.5,0.2,1.1,0.6,1.4c0.5,0.4,1,0.6,1.6,0.8c0.6,0.2,1.3,0.4,2.1,0.5c0.7,0.1,1.4,0.4,2.1,0.7
		c0.6,0.3,1.1,0.7,1.6,1.1c0.4,0.6,0.7,1.3,0.6,2c0,0.6-0.1,1.2-0.4,1.7c-0.3,0.5-0.7,0.9-1.1,1.2c-0.5,0.3-1.1,0.6-1.7,0.7
		c-0.7,0.2-1.4,0.2-2.2,0.2c-0.7,0-1.4-0.1-2.1-0.4c-1.2-0.4-2.1-1.3-2.6-2.4c-0.2-0.6-0.4-1.2-0.4-1.8L151.5,159.3z"/>
	<path class="st0" d="M167.7,163.5c-0.2,0-0.4,0.1-0.8,0.2c-0.3,0.1-0.7,0.1-1,0.1c-0.6,0-1.3-0.2-1.8-0.6c-0.5-0.6-0.7-1.3-0.6-2.1
		v-9.8h-1.9v-1.3h1.9v-3.7h1.5v3.7h2.5v1.3h-2.5v9.2c0,0.3,0,0.6,0,0.9c0,0.2,0.1,0.4,0.2,0.6c0.1,0.2,0.2,0.3,0.4,0.3
		c0.2,0.1,0.5,0.1,0.8,0.1c0.2,0,0.4,0,0.6,0c0.2,0,0.4-0.1,0.6-0.1L167.7,163.5z"/>
	<path class="st0" d="M175.9,155.7c0.3,0,0.6-0.1,1.1-0.2c0.3-0.1,0.7-0.1,1-0.3c0.2-0.1,0.4-0.3,0.5-0.6c0.1-0.3,0.1-0.5,0.1-0.8
		c0-0.7-0.3-1.4-0.8-2c-0.7-0.6-1.7-0.9-2.6-0.8c-0.5,0-1,0-1.5,0.1c-0.4,0.1-0.8,0.2-1.2,0.5c-0.3,0.2-0.6,0.6-0.8,0.9
		c-0.2,0.5-0.4,1-0.4,1.5h-1.6c0-0.7,0.2-1.4,0.5-2c0.3-0.5,0.7-1,1.2-1.4c0.5-0.4,1.1-0.6,1.7-0.8c0.7-0.2,1.4-0.2,2.1-0.2
		c0.7,0,1.3,0.1,2,0.2c0.6,0.1,1.1,0.4,1.5,0.7c0.5,0.3,0.8,0.8,1,1.3c0.3,0.6,0.4,1.3,0.4,2v7.3c0,0.6,0.1,1,0.3,1.2
		c0.2,0.2,0.6,0.1,1.3-0.1v1.2l-0.5,0.2c-0.2,0.1-0.5,0.1-0.7,0.1c-0.2,0-0.5,0-0.7-0.1c-0.2,0-0.4-0.1-0.6-0.2
		c-0.2-0.1-0.3-0.3-0.4-0.5c-0.1-0.2-0.2-0.4-0.2-0.6c0-0.2,0-0.5,0-0.7c-0.6,0.7-1.4,1.3-2.3,1.7c-0.9,0.4-1.8,0.6-2.7,0.6
		c-0.6,0-1.1-0.1-1.7-0.2c-0.5-0.1-1-0.4-1.4-0.7c-0.4-0.3-0.7-0.7-1-1.2c-0.2-0.5-0.4-1.1-0.4-1.7c0-2.3,1.6-3.6,4.7-4L175.9,155.7
		z M178.5,156.5c-0.6,0.3-1.3,0.4-2,0.5c-0.7,0.1-1.3,0.2-2,0.2c-1,0-1.9,0.3-2.8,0.8c-0.7,0.5-1,1.2-1,2.1c0,0.4,0.1,0.7,0.2,1.1
		c0.2,0.3,0.4,0.6,0.6,0.8c0.3,0.2,0.6,0.4,1,0.4c0.3,0.1,0.7,0.1,1.1,0.1c0.6,0,1.2-0.1,1.8-0.2c0.6-0.1,1.1-0.4,1.6-0.7
		c0.5-0.3,0.8-0.7,1.1-1.2c0.3-0.5,0.4-1.1,0.4-1.8L178.5,156.5z"/>
	<path class="st0" d="M183.7,147.2v-2.3h1.7v2.3H183.7z M183.8,163.5v-13.5h1.6v13.4L183.8,163.5z"/>
	<path class="st0" d="M190.4,163.5h-1.6v-13.4h1.6v1.9c0.6-0.6,1.2-1.2,2-1.6c0.7-0.4,1.6-0.7,2.4-0.6c0.8,0,1.6,0.1,2.3,0.4
		c0.7,0.3,1.4,0.8,1.8,1.5c0.3,0.4,0.5,1,0.6,1.5c0.1,0.5,0.1,1.1,0.1,1.6v8.8H198v-8.8c0.1-1-0.2-1.9-0.8-2.7
		c-0.7-0.7-1.7-1-2.7-0.9c-0.4,0-0.9,0.1-1.3,0.2c-0.4,0.1-0.7,0.3-1.1,0.6c-0.3,0.2-0.6,0.5-0.8,0.8c-0.2,0.3-0.4,0.6-0.5,1
		c-0.2,0.4-0.3,0.8-0.4,1.3c0,0.4-0.1,0.8-0.1,1.3L190.4,163.5z"/>
	<path class="st0" d="M208.9,155.7c0.3,0,0.6-0.1,1-0.2c0.3-0.1,0.7-0.1,1-0.3c0.3-0.1,0.4-0.3,0.5-0.6c0.1-0.3,0.1-0.5,0.1-0.8
		c0-0.7-0.3-1.4-0.8-2c-0.7-0.6-1.6-0.9-2.6-0.8c-0.5,0-1,0-1.5,0.1c-0.4,0.1-0.8,0.2-1.2,0.5c-0.3,0.2-0.6,0.6-0.8,0.9
		c-0.2,0.5-0.4,1-0.4,1.5h-1.6c0-0.7,0.2-1.4,0.5-2c0.3-0.5,0.7-1,1.2-1.4c0.5-0.4,1.1-0.6,1.7-0.8c0.7-0.2,1.4-0.3,2.1-0.2
		c0.6,0,1.3,0.1,1.9,0.2c0.6,0.1,1.1,0.4,1.6,0.7c0.4,0.3,0.8,0.8,1,1.3c0.3,0.6,0.4,1.3,0.4,2v7.3c0,0.6,0.1,1,0.3,1.2
		c0.2,0.2,0.7,0.1,1.3-0.1v1.2l-0.5,0.2c-0.2,0.1-0.5,0.1-0.7,0.1c-0.2,0-0.5,0-0.7-0.1c-0.2,0-0.4-0.1-0.6-0.2
		c-0.2-0.1-0.3-0.3-0.4-0.5c-0.1-0.2-0.2-0.4-0.2-0.6c0-0.2,0-0.5,0-0.7c-1.3,1.4-3.1,2.3-5,2.2c-0.6,0-1.1-0.1-1.7-0.2
		c-0.5-0.1-1-0.4-1.4-0.7c-0.9-0.7-1.4-1.8-1.3-2.9c0-2.3,1.6-3.6,4.7-4L208.9,155.7z M211.5,156.5c-0.6,0.3-1.3,0.4-2,0.5
		c-0.7,0.1-1.3,0.2-2,0.2c-1,0-1.9,0.3-2.8,0.8c-0.7,0.5-1,1.2-1,2.1c0,0.4,0.1,0.7,0.3,1.1c0.2,0.3,0.4,0.6,0.6,0.8
		c0.3,0.2,0.6,0.4,0.9,0.4c0.4,0.1,0.7,0.1,1.1,0.1c0.6,0,1.2-0.1,1.8-0.2c0.6-0.1,1.1-0.4,1.6-0.7c0.5-0.3,0.8-0.7,1.1-1.2
		c0.3-0.5,0.4-1.1,0.4-1.8L211.5,156.5z"/>
	<path class="st0" d="M218.3,163.5h-1.5v-18.6h1.6v7.4c0.5-0.8,1.2-1.5,2.1-1.9c0.8-0.4,1.8-0.6,2.7-0.6c0.9,0,1.8,0.2,2.7,0.6
		c0.7,0.4,1.4,0.9,1.9,1.5c0.5,0.7,0.9,1.5,1.1,2.3c0.2,0.9,0.4,1.8,0.4,2.7c0,0.9-0.1,1.9-0.3,2.8c-0.2,0.8-0.6,1.6-1.1,2.2
		c-0.5,0.6-1.1,1.1-1.9,1.5c-0.9,0.4-1.8,0.6-2.8,0.5c-0.4,0-0.9-0.1-1.3-0.2c-0.5-0.1-0.9-0.3-1.3-0.5c-0.4-0.2-0.8-0.5-1.2-0.8
		c-0.4-0.3-0.7-0.7-0.9-1.2h0L218.3,163.5z M218.3,156.7c0,0.8,0.1,1.5,0.3,2.3c0.2,0.7,0.5,1.3,0.9,1.8c0.4,0.5,0.9,0.9,1.4,1.2
		c0.6,0.3,1.3,0.5,2,0.4c0.6,0,1.2-0.1,1.8-0.4c0.6-0.2,1.1-0.6,1.5-1c0.4-0.5,0.8-1,1-1.6c0.2-0.7,0.4-1.5,0.4-2.2
		c0-0.8,0-1.6-0.2-2.4c-0.2-0.7-0.4-1.4-0.8-2c-0.4-0.5-0.9-1-1.5-1.3c-0.6-0.3-1.4-0.5-2.1-0.5c-0.7,0-1.3,0.1-1.9,0.4
		c-0.6,0.3-1,0.7-1.4,1.2c-0.4,0.5-0.7,1.1-0.9,1.8C218.4,155.3,218.3,156,218.3,156.7z"/>
	<path class="st0" d="M232.1,163.5v-18.6h1.6v18.6H232.1z"/>
	<path class="st0" d="M238.1,157.1c0,0.7,0.1,1.4,0.3,2.1c0.2,0.6,0.5,1.2,0.8,1.7c0.4,0.5,0.9,0.9,1.4,1.1c1.5,0.7,3.2,0.5,4.6-0.4
		c0.7-0.6,1.3-1.4,1.5-2.3h1.7c-0.2,0.6-0.4,1.2-0.8,1.8c-0.3,0.5-0.7,1-1.2,1.4c-0.5,0.4-1,0.8-1.7,1c-0.7,0.2-1.5,0.4-2.2,0.3
		c-1,0-1.9-0.2-2.8-0.5c-0.8-0.3-1.4-0.8-2-1.5c-0.5-0.7-0.9-1.4-1.1-2.2c-0.2-0.9-0.4-1.8-0.4-2.8c0-0.9,0.1-1.9,0.4-2.8
		c0.3-0.8,0.7-1.6,1.2-2.3c0.5-0.6,1.2-1.2,2-1.5c0.8-0.4,1.7-0.6,2.6-0.6c1.7-0.1,3.3,0.7,4.4,2c1.1,1.6,1.7,3.6,1.6,5.5
		L238.1,157.1z M246.8,155.9c0-0.6-0.1-1.3-0.3-1.9c-0.2-0.5-0.4-1.1-0.8-1.5c-0.4-0.4-0.8-0.8-1.3-1c-0.6-0.3-1.2-0.4-1.8-0.4
		c-0.6,0-1.3,0.1-1.8,0.4c-0.5,0.2-1,0.6-1.3,1c-0.4,0.4-0.7,1-0.9,1.5c-0.2,0.6-0.4,1.2-0.4,1.8L246.8,155.9z"/>
	<path class="st0" d="M272.5,161L272.5,161l4.1-16.2h1.8l-4.9,18.6h-2l-4.3-16.5h-0.1l-4.3,16.5h-2l-4.8-18.6h1.8l4,16.2l0,0
		l4.3-16.2h2L272.5,161z"/>
	<path class="st0" d="M281.1,157.1c0,0.7,0.1,1.4,0.3,2.1c0.2,0.6,0.5,1.2,0.8,1.7c0.4,0.5,0.9,0.9,1.4,1.1c0.6,0.3,1.3,0.4,2,0.4
		c0.9,0,1.9-0.3,2.6-0.8c0.7-0.6,1.3-1.4,1.4-2.3h1.7c-0.2,0.6-0.4,1.2-0.8,1.8c-0.3,0.5-0.7,1-1.2,1.4c-0.5,0.4-1.1,0.8-1.7,1
		c-0.7,0.2-1.5,0.4-2.2,0.3c-1,0-1.9-0.2-2.8-0.5c-0.8-0.3-1.4-0.8-2-1.5c-0.5-0.7-0.9-1.4-1.1-2.2c-0.2-0.9-0.4-1.8-0.4-2.8
		c0-0.9,0.1-1.9,0.4-2.8c0.3-0.8,0.7-1.6,1.2-2.3c0.5-0.6,1.2-1.2,2-1.5c0.8-0.4,1.7-0.6,2.6-0.6c1.7-0.1,3.3,0.7,4.4,2
		c1.2,1.6,1.7,3.6,1.6,5.5L281.1,157.1z M289.9,155.9c0-0.6-0.1-1.3-0.3-1.9c-0.2-0.5-0.4-1.1-0.8-1.5c-0.4-0.4-0.8-0.8-1.3-1
		c-0.6-0.3-1.2-0.4-1.8-0.4c-0.6,0-1.3,0.1-1.8,0.4c-0.5,0.2-1,0.6-1.3,1c-0.4,0.4-0.7,1-0.9,1.5c-0.2,0.6-0.4,1.2-0.4,1.8
		L289.9,155.9z"/>
	<path class="st0" d="M300.2,155.7c0.3,0,0.6-0.1,1.1-0.2c0.3-0.1,0.7-0.1,1-0.3c0.2-0.1,0.4-0.3,0.5-0.6c0.1-0.3,0.1-0.5,0.1-0.8
		c0-0.7-0.3-1.4-0.8-2c-0.7-0.6-1.7-0.9-2.6-0.8c-0.5,0-1,0-1.5,0.1c-0.4,0.1-0.8,0.2-1.2,0.5c-0.3,0.2-0.6,0.6-0.8,0.9
		c-0.2,0.5-0.4,1-0.4,1.5H294c0-0.7,0.2-1.4,0.5-2c0.3-0.5,0.7-1,1.2-1.4c0.5-0.4,1.1-0.6,1.7-0.8c0.7-0.2,1.4-0.2,2.1-0.2
		c0.6,0,1.3,0.1,1.9,0.2c0.6,0.1,1.1,0.4,1.5,0.7c0.5,0.3,0.8,0.8,1,1.3c0.3,0.6,0.4,1.3,0.4,2v7.3c0,0.6,0.1,1,0.3,1.2
		s0.6,0.1,1.3-0.1v1.2l-0.5,0.2c-0.2,0.1-0.5,0.1-0.7,0.1c-0.2,0-0.5,0-0.7-0.1c-0.2,0-0.4-0.1-0.6-0.2c-0.2-0.1-0.3-0.3-0.4-0.5
		c-0.1-0.2-0.2-0.4-0.2-0.6c0-0.2-0.1-0.5-0.1-0.7c-1.3,1.4-3.1,2.3-5,2.2c-0.6,0-1.1-0.1-1.7-0.2c-0.5-0.1-1-0.4-1.4-0.7
		c-0.4-0.3-0.7-0.7-1-1.2c-0.2-0.5-0.4-1.1-0.4-1.7c0-2.3,1.6-3.6,4.7-4L300.2,155.7z M302.8,156.5c-0.6,0.3-1.3,0.4-2,0.5
		c-0.7,0.1-1.3,0.2-2,0.2c-1,0-2,0.3-2.8,0.8c-0.7,0.5-1,1.2-1,2.1c0,0.4,0.1,0.7,0.2,1.1c0.2,0.3,0.4,0.6,0.6,0.8
		c0.3,0.2,0.6,0.4,0.9,0.4c0.4,0.1,0.7,0.1,1.1,0.1c0.6,0,1.2-0.1,1.8-0.2c0.6-0.1,1.1-0.4,1.6-0.7c0.5-0.3,0.8-0.7,1.1-1.2
		c0.3-0.5,0.4-1.1,0.4-1.8V156.5z"/>
	<path class="st0" d="M308.2,163.5v-18.6h1.5v18.6H308.2z"/>
	<path class="st0" d="M317.9,163.5c-0.2,0-0.4,0.1-0.7,0.2c-0.3,0.1-0.7,0.1-1,0.1c-0.6,0-1.3-0.2-1.8-0.6c-0.5-0.6-0.7-1.3-0.6-2.1
		v-9.8h-1.9v-1.3h1.9v-3.7h1.6v3.7h2.5v1.3h-2.5v9.2c0,0.3,0,0.6,0,0.9c0,0.2,0.1,0.4,0.1,0.6c0.1,0.2,0.2,0.3,0.4,0.3
		c0.2,0.1,0.5,0.1,0.8,0.1c0.2,0,0.4,0,0.6,0c0.2,0,0.4-0.1,0.6-0.1L317.9,163.5z"/>
	<path class="st0" d="M319.8,163.5v-18.6h1.6v7.1c0.6-0.6,1.2-1.2,2-1.6c0.7-0.4,1.6-0.7,2.4-0.6c0.8,0,1.6,0.1,2.3,0.4
		c0.7,0.3,1.4,0.8,1.8,1.5c0.3,0.4,0.5,1,0.6,1.5c0.1,0.5,0.1,1.1,0.1,1.6v8.8H329v-8.8c0.1-1-0.2-1.9-0.8-2.7
		c-0.7-0.7-1.7-1-2.7-0.9c-0.4,0-0.9,0.1-1.3,0.2c-0.4,0.1-0.7,0.3-1.1,0.6c-0.3,0.2-0.6,0.5-0.8,0.8c-0.2,0.3-0.4,0.6-0.5,1
		c-0.2,0.4-0.3,0.8-0.4,1.3c0,0.4-0.1,0.8-0.1,1.3v7.2L319.8,163.5z"/>
	<path class="st0" d="M353.9,150.3c-0.2-1.3-0.9-2.6-2-3.4c-1.2-0.7-2.5-1.1-3.9-1c-2-0.1-3.8,0.9-4.9,2.5c-0.5,0.8-0.9,1.7-1.2,2.6
		c-0.3,1-0.4,2.1-0.4,3.1c0,1,0.1,2.1,0.3,3.1c0.2,1,0.6,1.9,1.1,2.7c0.5,0.8,1.2,1.4,2,1.9c1,0.5,2.1,0.8,3.2,0.7
		c0.7,0,1.5-0.1,2.2-0.4c0.6-0.2,1.2-0.6,1.7-1.1c0.5-0.5,0.9-1,1.3-1.6c0.3-0.6,0.6-1.3,0.8-2h1.8c-0.2,0.9-0.5,1.7-0.9,2.6
		c-0.4,0.8-0.9,1.5-1.6,2.1c-0.7,0.6-1.5,1.1-2.4,1.4c-1,0.4-2.1,0.6-3.3,0.5c-1.3,0-2.5-0.2-3.7-0.8c-1-0.5-1.8-1.2-2.5-2.1
		c-0.7-0.9-1.1-2-1.4-3.1c-0.3-1.2-0.4-2.5-0.4-3.8c0-1.5,0.2-3.1,0.7-4.5c0.4-1.1,1-2.2,1.8-3c0.8-0.8,1.7-1.4,2.7-1.7
		c1.1-0.4,2.3-0.5,3.5-0.5c0.9,0,1.8,0.1,2.7,0.4c0.8,0.2,1.5,0.6,2.2,1.1c0.6,0.5,1.2,1.1,1.5,1.9c0.4,0.8,0.7,1.7,0.8,2.6
		L353.9,150.3z"/>
	<path class="st0" d="M360.2,163.5h-1.6v-13.4h1.6v2.5h0c0.3-0.9,0.9-1.7,1.7-2.2c0.8-0.5,1.8-0.7,2.7-0.6v1.7
		c-0.7,0-1.5,0.1-2.2,0.4c-0.5,0.3-1,0.7-1.4,1.2c-0.3,0.5-0.6,1.1-0.7,1.8c-0.1,0.7-0.2,1.4-0.2,2.1L360.2,163.5z"/>
	<path class="st0" d="M367.6,157.1c0,0.7,0.1,1.4,0.3,2.1c0.2,0.6,0.5,1.2,0.8,1.7c0.4,0.5,0.9,0.9,1.4,1.1c0.6,0.3,1.3,0.4,2,0.4
		c0.9,0,1.9-0.3,2.6-0.8c0.7-0.6,1.3-1.4,1.4-2.3h1.7c-0.2,0.6-0.4,1.2-0.8,1.8c-0.3,0.5-0.7,1-1.2,1.4c-0.5,0.4-1.1,0.8-1.7,1
		c-0.7,0.2-1.5,0.4-2.2,0.3c-1,0-1.9-0.2-2.8-0.5c-0.8-0.3-1.4-0.8-2-1.5c-0.5-0.7-0.9-1.4-1.1-2.2c-0.2-0.9-0.4-1.8-0.4-2.8
		c0-1,0.2-1.9,0.5-2.8c0.3-0.8,0.7-1.6,1.2-2.3c0.5-0.6,1.2-1.2,2-1.5c0.8-0.4,1.7-0.6,2.6-0.6c1.7-0.1,3.3,0.7,4.3,2
		c1.2,1.6,1.7,3.6,1.6,5.5L367.6,157.1z M376.4,155.9c0-0.6-0.1-1.3-0.3-1.9c-0.2-0.5-0.4-1.1-0.8-1.5c-0.4-0.4-0.8-0.8-1.3-1
		c-0.6-0.3-1.2-0.4-1.8-0.4c-0.6,0-1.3,0.1-1.8,0.4c-0.5,0.2-1,0.6-1.3,1c-0.4,0.4-0.7,1-0.9,1.5c-0.2,0.6-0.4,1.2-0.4,1.8
		L376.4,155.9z"/>
	<path class="st0" d="M386.7,155.7c0.3,0,0.6-0.1,1.1-0.2c0.3-0.1,0.7-0.1,1-0.3c0.2-0.1,0.4-0.3,0.5-0.6c0.1-0.3,0.1-0.5,0.1-0.8
		c0-0.7-0.3-1.4-0.8-2c-0.7-0.6-1.7-0.9-2.6-0.8c-0.5,0-1,0-1.5,0.1c-0.4,0.1-0.8,0.2-1.2,0.5c-0.3,0.2-0.6,0.6-0.8,0.9
		c-0.2,0.5-0.4,1-0.4,1.5h-1.6c0-0.7,0.2-1.4,0.6-2.1c0.3-0.5,0.7-1,1.2-1.4c0.5-0.4,1.1-0.6,1.7-0.8c0.7-0.2,1.4-0.2,2.1-0.2
		c0.6,0,1.3,0.1,1.9,0.2c0.6,0.1,1.1,0.4,1.5,0.7c0.5,0.3,0.8,0.8,1,1.3c0.3,0.6,0.4,1.3,0.4,2v7.3c0,0.6,0.1,1,0.3,1.2
		c0.2,0.2,0.7,0.1,1.3-0.1v1.2l-0.5,0.2c-0.2,0.1-0.5,0.1-0.7,0.1c-0.2,0-0.5,0-0.7-0.1c-0.2,0-0.4-0.1-0.6-0.2
		c-0.2-0.1-0.3-0.3-0.4-0.5c-0.1-0.2-0.2-0.4-0.2-0.6c0-0.2,0-0.5,0-0.7c-0.6,0.7-1.4,1.3-2.3,1.7c-0.9,0.4-1.8,0.6-2.7,0.6
		c-0.6,0-1.1-0.1-1.7-0.2c-0.5-0.1-1-0.4-1.4-0.7c-0.4-0.3-0.7-0.7-1-1.2c-0.2-0.5-0.4-1.1-0.4-1.7c0-2.3,1.6-3.6,4.7-4L386.7,155.7
		z M389.3,156.5c-0.6,0.3-1.3,0.4-2,0.5c-0.7,0.1-1.3,0.2-2,0.2c-1,0-1.9,0.3-2.8,0.8c-0.7,0.5-1,1.2-1,2.1c0,0.4,0.1,0.7,0.2,1.1
		c0.2,0.3,0.4,0.6,0.6,0.8c0.3,0.2,0.6,0.4,1,0.4c0.3,0.1,0.7,0.1,1.1,0.1c0.6,0,1.2-0.1,1.8-0.2c0.6-0.1,1.1-0.4,1.6-0.7
		c0.5-0.3,0.8-0.7,1.1-1.2c0.3-0.5,0.4-1.1,0.4-1.8L389.3,156.5z"/>
	<path class="st0" d="M399.2,163.5c-0.2,0-0.4,0.1-0.8,0.2c-0.3,0.1-0.7,0.1-1,0.1c-0.6,0-1.3-0.2-1.8-0.6c-0.5-0.6-0.7-1.3-0.6-2.1
		v-9.8h-1.9v-1.3h1.9v-3.7h1.6v3.7h2.5v1.3h-2.5v9.2c0,0.3,0,0.6,0,0.9c0,0.2,0.1,0.4,0.2,0.6c0.1,0.2,0.2,0.3,0.4,0.3
		c0.2,0.1,0.5,0.1,0.8,0.1c0.2,0,0.4,0,0.6,0c0.2,0,0.4-0.1,0.6-0.1L399.2,163.5z"/>
	<path class="st0" d="M401.3,147.2v-2.3h1.7v2.3H401.3z M401.4,163.5v-13.5h1.6v13.4L401.4,163.5z"/>
	<path class="st0" d="M411.7,163.8c-0.8,0-1.6-0.2-2.4-0.5c-0.7-0.3-1.4-0.7-2-1.3c-0.6-0.6-1-1.4-1.3-2.2c-0.3-1-0.5-2-0.5-3.1
		c0-0.9,0.1-1.9,0.4-2.8c0.2-0.8,0.6-1.6,1.2-2.2c0.5-0.6,1.2-1.2,2-1.5c0.9-0.4,1.8-0.6,2.7-0.6c0.9,0,1.9,0.2,2.7,0.6
		c0.8,0.3,1.4,0.9,2,1.5c0.5,0.7,0.9,1.4,1.2,2.2c0.3,0.9,0.4,1.8,0.4,2.8c0,1-0.1,2-0.4,2.9c-0.3,0.8-0.7,1.6-1.3,2.2
		c-0.5,0.6-1.2,1.1-2,1.4C413.5,163.7,412.6,163.9,411.7,163.8z M416.3,156.8c0-0.8-0.1-1.5-0.3-2.2c-0.2-0.6-0.4-1.3-0.8-1.8
		c-0.4-0.5-0.8-0.9-1.4-1.2c-0.7-0.3-1.4-0.5-2.1-0.4c-0.7,0-1.4,0.1-2.1,0.5c-0.6,0.3-1,0.7-1.4,1.3c-0.4,0.5-0.6,1.2-0.8,1.8
		c-0.2,0.7-0.3,1.4-0.3,2.1c0,0.8,0.1,1.5,0.3,2.3c0.2,0.6,0.5,1.3,0.9,1.8c0.4,0.5,0.9,0.9,1.4,1.2c0.6,0.3,1.3,0.4,2,0.4
		c0.7,0,1.4-0.1,2.1-0.5c0.6-0.3,1.1-0.7,1.4-1.3c0.4-0.6,0.6-1.2,0.8-1.8C416.2,158.2,416.3,157.5,416.3,156.8z"/>
	<path class="st0" d="M421.8,163.5h-1.6v-13.4h1.6v1.9c0.6-0.6,1.2-1.2,2-1.6c0.7-0.4,1.6-0.7,2.4-0.6c0.8,0,1.6,0.1,2.3,0.4
		c0.7,0.3,1.4,0.8,1.8,1.5c0.3,0.4,0.5,1,0.6,1.5c0.1,0.5,0.1,1.1,0.1,1.6v8.8h-1.5v-8.8c0.1-1-0.2-1.9-0.8-2.7
		c-0.7-0.7-1.7-1-2.7-0.9c-0.4,0-0.9,0.1-1.3,0.2c-0.4,0.1-0.7,0.3-1.1,0.6c-0.3,0.2-0.6,0.5-0.8,0.8c-0.2,0.3-0.4,0.6-0.5,1
		c-0.1,0.4-0.2,0.8-0.3,1.3c0,0.4,0,0.8,0,1.3V163.5z"/>
	<path class="st0" d="M121.6,195.4v-18.6h6.7c0.9,0,1.9,0.1,2.8,0.3c0.7,0.2,1.3,0.5,1.9,1c0.5,0.4,0.8,0.9,1.1,1.5
		c0.2,0.6,0.3,1.3,0.3,1.9c0,0.6-0.1,1.1-0.3,1.7c-0.1,0.4-0.4,0.8-0.7,1.2c-0.3,0.3-0.6,0.6-1,0.8c-0.3,0.2-0.7,0.3-1.1,0.4l0,0
		c1.1,0.1,2.2,0.6,2.9,1.5c0.7,0.9,1,2,1,3.1c0,0.8-0.1,1.7-0.4,2.5c-0.3,0.6-0.7,1.2-1.3,1.6c-0.6,0.4-1.2,0.7-2,0.9
		c-0.8,0.2-1.6,0.3-2.4,0.3L121.6,195.4z M123.4,184.9h4.4c0.8,0,1.5-0.1,2.3-0.2c0.5-0.1,1.1-0.4,1.5-0.7c0.4-0.3,0.7-0.7,0.8-1.1
		c0.2-0.5,0.3-1,0.3-1.5c0-0.5-0.1-1-0.3-1.5c-0.2-0.4-0.5-0.7-0.9-1c-0.5-0.3-1.1-0.5-1.6-0.5c-0.8-0.1-1.6-0.2-2.4-0.2h-4.1
		L123.4,184.9z M123.4,193.9h4.5c0.8,0,1.7,0,2.5-0.1c0.6-0.1,1.2-0.2,1.8-0.5c0.5-0.3,0.8-0.7,1-1.1c0.3-0.6,0.4-1.3,0.4-2
		c0-0.6-0.1-1.3-0.4-1.9c-0.3-0.5-0.6-0.8-1.1-1.1c-0.5-0.3-1.1-0.5-1.7-0.5c-0.7-0.1-1.5-0.2-2.2-0.1h-4.7L123.4,193.9z"/>
	<path class="st0" d="M144.3,187.5c0.3,0,0.6-0.1,1-0.2c0.3,0,0.7-0.1,1-0.3c0.3-0.1,0.4-0.3,0.5-0.6c0.1-0.3,0.1-0.5,0.1-0.8
		c0-0.7-0.3-1.4-0.8-2c-0.7-0.6-1.6-0.9-2.6-0.8c-0.5,0-1,0-1.5,0.1c-0.4,0.1-0.8,0.2-1.2,0.5c-0.3,0.2-0.6,0.6-0.8,0.9
		c-0.2,0.5-0.4,1-0.4,1.5h-1.6c0-0.7,0.2-1.4,0.5-2c0.3-0.5,0.7-1,1.2-1.4c0.5-0.4,1.1-0.6,1.7-0.8c0.7-0.2,1.4-0.2,2.1-0.2
		c0.6,0,1.3,0.1,1.9,0.2c0.6,0.1,1.1,0.4,1.6,0.7c0.4,0.3,0.8,0.8,1,1.3c0.3,0.6,0.4,1.3,0.4,2v7.3c0,0.6,0.1,1,0.3,1.2
		c0.2,0.2,0.6,0.1,1.3-0.1v1.2l-0.5,0.2c-0.2,0.1-0.5,0.1-0.7,0.1c-0.2,0-0.5,0-0.7-0.1c-0.2,0-0.4-0.1-0.6-0.2
		c-0.2-0.1-0.3-0.3-0.4-0.5c-0.1-0.2-0.2-0.4-0.2-0.6c0-0.2-0.1-0.5-0.1-0.7c-0.6,0.7-1.4,1.3-2.2,1.7c-0.9,0.4-1.8,0.6-2.7,0.6
		c-0.6,0-1.1-0.1-1.7-0.2c-0.5-0.1-1-0.4-1.4-0.7c-0.4-0.3-0.7-0.7-1-1.2c-0.3-0.5-0.4-1.1-0.4-1.7c0-2.3,1.6-3.6,4.7-4L144.3,187.5
		z M146.9,188.3c-0.6,0.3-1.3,0.4-2,0.5c-0.7,0.1-1.3,0.2-2,0.2c-1,0-1.9,0.3-2.8,0.8c-0.7,0.5-1,1.2-1,2c0,0.4,0.1,0.7,0.3,1.1
		c0.2,0.3,0.4,0.6,0.6,0.7c0.3,0.2,0.6,0.4,0.9,0.4c0.4,0.1,0.7,0.1,1.1,0.1c0.6,0,1.2-0.1,1.8-0.2c0.6-0.1,1.1-0.4,1.6-0.7
		c0.5-0.3,0.8-0.7,1.1-1.2c0.3-0.5,0.4-1.1,0.4-1.8L146.9,188.3z"/>
	<path class="st0" d="M152.9,191.2c0.1,0.9,0.6,1.8,1.3,2.4c0.8,0.5,1.7,0.8,2.7,0.7c0.5,0,1-0.1,1.5-0.2c0.4-0.1,0.7-0.3,1-0.6
		c0.3-0.2,0.5-0.5,0.6-0.8c0.1-0.3,0.2-0.6,0.2-0.9c0-0.6-0.2-1.1-0.6-1.5c-0.5-0.3-1-0.6-1.6-0.8c-0.6-0.2-1.3-0.3-2.1-0.5
		c-0.7-0.1-1.4-0.3-2.1-0.6c-0.6-0.2-1.2-0.6-1.6-1.1c-0.5-0.6-0.7-1.3-0.6-2c0-1.1,0.4-2.1,1.2-2.8c1-0.8,2.2-1.2,3.5-1.1
		c1.3-0.1,2.5,0.3,3.5,1c1,0.8,1.6,2,1.6,3.3H160c0-0.9-0.5-1.7-1.2-2.2c-0.7-0.4-1.6-0.7-2.5-0.6c-0.8-0.1-1.6,0.2-2.2,0.6
		c-0.5,0.4-0.8,1-0.8,1.7c0,0.5,0.2,1.1,0.6,1.4c0.5,0.3,1,0.6,1.6,0.8c0.6,0.2,1.3,0.4,2.1,0.5c0.7,0.1,1.4,0.4,2.1,0.7
		c0.6,0.3,1.2,0.7,1.6,1.2c0.5,0.6,0.7,1.3,0.6,2c0,0.6-0.1,1.2-0.4,1.7c-0.3,0.5-0.7,0.9-1.1,1.2c-0.5,0.3-1.1,0.6-1.7,0.7
		c-0.7,0.2-1.5,0.3-2.2,0.2c-0.7,0-1.4-0.1-2.1-0.4c-0.6-0.2-1.1-0.6-1.6-1c-0.4-0.4-0.8-0.9-1-1.4c-0.2-0.6-0.4-1.2-0.4-1.8
		L152.9,191.2z"/>
	<path class="st0" d="M165.4,189c0,0.7,0.1,1.4,0.3,2.1c0.2,0.6,0.5,1.2,0.8,1.7c0.4,0.5,0.9,0.9,1.4,1.1c1.5,0.7,3.2,0.5,4.6-0.4
		c0.7-0.6,1.3-1.4,1.4-2.3h1.7c-0.2,0.6-0.4,1.2-0.8,1.8c-0.3,0.5-0.7,1-1.2,1.4c-0.5,0.4-1,0.8-1.7,1c-0.7,0.2-1.5,0.3-2.2,0.3
		c-1,0-1.9-0.2-2.8-0.5c-0.8-0.3-1.4-0.8-2-1.5c-0.5-0.7-0.9-1.4-1.1-2.2c-0.2-0.9-0.4-1.8-0.4-2.8c0-0.9,0.1-1.9,0.4-2.8
		c0.3-0.8,0.7-1.6,1.2-2.3c0.5-0.6,1.2-1.2,2-1.5c0.8-0.4,1.7-0.6,2.6-0.6c1.7-0.1,3.3,0.7,4.4,2c1.2,1.6,1.7,3.6,1.6,5.5L165.4,189
		z M174.2,187.7c0-0.6-0.1-1.3-0.3-1.9c-0.2-0.5-0.4-1.1-0.8-1.5c-0.4-0.4-0.8-0.8-1.3-1c-0.6-0.3-1.2-0.4-1.8-0.4
		c-0.6,0-1.3,0.1-1.8,0.4c-0.5,0.2-1,0.6-1.3,1c-0.4,0.4-0.7,1-0.9,1.5c-0.2,0.6-0.4,1.2-0.4,1.8L174.2,187.7z"/>
	<path class="st0" d="M188.7,176.7h1.6v18.6h-1.6V193h0c-0.2,0.4-0.5,0.8-0.9,1.2c-0.3,0.3-0.7,0.6-1.2,0.9
		c-0.4,0.2-0.9,0.4-1.3,0.5c-0.4,0.1-0.9,0.2-1.3,0.2c-1,0-1.9-0.2-2.8-0.5c-0.7-0.3-1.4-0.8-1.9-1.5c-0.5-0.7-0.9-1.4-1.1-2.2
		c-0.2-0.9-0.3-1.8-0.3-2.8c0-0.9,0.1-1.8,0.4-2.7c0.2-0.8,0.6-1.6,1.1-2.3c0.5-0.7,1.1-1.2,1.9-1.6c0.8-0.4,1.7-0.6,2.7-0.6
		c0.9,0,1.9,0.2,2.7,0.6c0.9,0.4,1.6,1.1,2.1,1.9L188.7,176.7z M188.7,188.6c0-0.7-0.1-1.5-0.3-2.2c-0.2-0.6-0.5-1.3-0.9-1.8
		c-0.4-0.5-0.9-0.9-1.4-1.2c-0.6-0.3-1.3-0.5-2-0.5c-0.7,0-1.4,0.1-2.1,0.5c-0.6,0.3-1.1,0.8-1.4,1.3c-0.4,0.6-0.7,1.3-0.8,2
		c-0.2,0.8-0.2,1.6-0.2,2.4c0,0.8,0.1,1.5,0.4,2.2c0.2,0.6,0.5,1.2,1,1.6c0.4,0.4,0.9,0.8,1.4,1c0.6,0.2,1.2,0.4,1.8,0.4
		c1.3,0,2.6-0.6,3.4-1.6c0.4-0.5,0.7-1.2,0.9-1.8C188.6,190.1,188.7,189.4,188.7,188.6z"/>
	<path class="st0" d="M205.7,195.7c-0.8,0-1.6-0.2-2.4-0.5c-0.7-0.3-1.4-0.7-2-1.3c-0.6-0.6-1-1.4-1.3-2.2c-0.3-1-0.5-2-0.5-3.1
		c0-0.9,0.1-1.9,0.4-2.8c0.2-0.8,0.6-1.6,1.2-2.2c0.5-0.6,1.2-1.2,2-1.5c1.7-0.7,3.7-0.7,5.5,0c0.8,0.4,1.4,0.9,2,1.5
		c0.5,0.7,0.9,1.4,1.1,2.2c0.3,0.9,0.4,1.8,0.4,2.8c0,1-0.1,2-0.4,2.9c-0.3,0.8-0.7,1.6-1.3,2.2c-0.5,0.6-1.2,1.1-2,1.4
		C207.5,195.6,206.6,195.8,205.7,195.7z M210.2,188.7c0-0.8-0.1-1.5-0.3-2.2c-0.2-0.6-0.4-1.3-0.8-1.8c-0.4-0.5-0.8-0.9-1.4-1.2
		c-0.7-0.3-1.4-0.5-2.1-0.4c-0.7,0-1.4,0.1-2.1,0.5c-0.6,0.3-1,0.7-1.4,1.3c-0.4,0.5-0.6,1.2-0.8,1.8c-0.2,0.7-0.3,1.4-0.3,2.1
		c0,0.8,0.1,1.5,0.3,2.3c0.2,0.7,0.5,1.3,0.9,1.8c0.4,0.5,0.9,0.9,1.4,1.2c0.6,0.3,1.3,0.4,2,0.4c0.7,0,1.4-0.1,2.1-0.5
		c0.6-0.3,1-0.7,1.4-1.3c0.4-0.6,0.6-1.2,0.8-1.8C210.1,190.1,210.2,189.4,210.2,188.7z"/>
	<path class="st0" d="M215.8,195.4h-1.6v-13.4h1.6v1.9c0.6-0.6,1.2-1.2,2-1.6c0.7-0.4,1.6-0.7,2.4-0.6c0.8,0,1.6,0.1,2.3,0.4
		c0.7,0.3,1.4,0.8,1.8,1.5c0.3,0.4,0.5,1,0.6,1.5c0.1,0.5,0.1,1.1,0.1,1.6v8.8h-1.6v-8.8c0.1-1-0.2-1.9-0.8-2.7
		c-0.7-0.7-1.7-1-2.7-0.9c-0.5,0-0.9,0.1-1.3,0.2c-0.4,0.1-0.7,0.3-1.1,0.6c-0.3,0.2-0.6,0.5-0.8,0.8c-0.2,0.3-0.4,0.6-0.5,1
		c-0.1,0.4-0.2,0.8-0.3,1.2c0,0.4,0,0.8,0,1.3L215.8,195.4z"/>
	<path class="st0" d="M235,195.4v-18.6h6.4c0.5,0,1,0,1.5,0c0.5,0,1,0.1,1.5,0.2c0.5,0.1,1,0.2,1.4,0.4c0.5,0.2,0.9,0.4,1.3,0.7
		c0.6,0.4,1.1,1,1.5,1.7c0.4,0.6,0.7,1.3,1,2c0.2,0.7,0.4,1.4,0.5,2.2c0.2,1.3,0.2,2.6,0,3.9c-0.1,0.6-0.2,1.3-0.4,1.9
		c-0.2,0.6-0.4,1.2-0.7,1.8c-0.3,0.6-0.6,1.1-1.1,1.5c-0.4,0.5-0.9,0.9-1.4,1.2c-0.5,0.3-1,0.5-1.6,0.7c-0.6,0.2-1.2,0.3-1.8,0.3
		c-0.6,0.1-1.2,0.1-1.8,0.1L235,195.4z M236.8,193.9h4.2c0.7,0,1.5,0,2.2-0.1c0.8-0.1,1.5-0.4,2.1-0.7c0.6-0.3,1.1-0.7,1.5-1.3
		c0.4-0.5,0.7-1.1,1-1.7c0.2-0.6,0.4-1.3,0.5-2c0.1-0.6,0.1-1.3,0.1-2c0-0.7,0-1.4-0.1-2.1c-0.1-0.7-0.2-1.3-0.5-2
		c-0.2-0.6-0.6-1.2-1-1.7c-0.4-0.5-1-1-1.6-1.3c-0.6-0.3-1.3-0.5-2-0.6c-0.8-0.1-1.5-0.1-2.3-0.1h-4.2L236.8,193.9z"/>
	<path class="st0" d="M253.1,179v-2.3h1.7v2.3H253.1z M253.2,195.4v-13.4h1.5v13.4H253.2z"/>
	<path class="st0" d="M259.1,191.2c0.1,0.9,0.6,1.8,1.3,2.4c0.8,0.5,1.8,0.8,2.7,0.7c0.5,0,1-0.1,1.5-0.2c0.4-0.1,0.7-0.3,1-0.6
		c0.3-0.2,0.5-0.5,0.6-0.8c0.1-0.3,0.2-0.6,0.2-0.9c0-0.6-0.2-1.1-0.6-1.5c-0.5-0.3-1-0.6-1.6-0.8c-0.7-0.2-1.4-0.3-2.1-0.5
		c-0.7-0.1-1.4-0.3-2.1-0.6c-0.6-0.2-1.2-0.6-1.6-1.1c-0.5-0.6-0.7-1.3-0.6-2c0-1.1,0.4-2.1,1.2-2.8c1-0.8,2.2-1.2,3.5-1.1
		c1.3-0.1,2.5,0.3,3.5,1c1,0.8,1.6,2,1.6,3.3h-1.6c0-0.9-0.5-1.7-1.2-2.2c-0.7-0.4-1.6-0.7-2.4-0.6c-0.8-0.1-1.6,0.2-2.3,0.6
		c-0.5,0.4-0.8,1-0.8,1.7c0,0.5,0.2,1.1,0.6,1.4c0.5,0.3,1,0.6,1.6,0.8c0.6,0.2,1.3,0.4,2.1,0.5c0.7,0.1,1.4,0.4,2.1,0.7
		c0.6,0.3,1.2,0.7,1.6,1.2c0.5,0.6,0.7,1.3,0.6,2c0,0.6-0.1,1.2-0.4,1.7c-0.3,0.5-0.7,0.9-1.1,1.2c-0.5,0.3-1.1,0.6-1.7,0.7
		c-0.7,0.2-1.5,0.3-2.2,0.2c-0.7,0-1.4-0.1-2.1-0.4c-0.6-0.2-1.1-0.5-1.6-1c-0.4-0.4-0.7-0.9-1-1.4c-0.2-0.6-0.4-1.2-0.4-1.8
		L259.1,191.2z"/>
	<path class="st0" d="M272.2,195.4h-1.5v-13.4h1.5v2.5h0.1c0.3-0.9,0.9-1.7,1.7-2.2c0.8-0.5,1.8-0.7,2.7-0.6v1.7
		c-0.7,0-1.5,0.1-2.2,0.4c-0.5,0.3-1,0.7-1.4,1.2c-0.4,0.5-0.6,1.1-0.7,1.8c-0.1,0.7-0.2,1.4-0.2,2.1L272.2,195.4z"/>
	<path class="st0" d="M287.8,181.9h1.6v13.4h-1.6v-1.9c-0.2,0.3-0.5,0.5-0.7,0.8c-0.3,0.3-0.6,0.5-0.9,0.7c-0.4,0.2-0.8,0.4-1.2,0.5
		c-0.5,0.2-1,0.2-1.6,0.2c-0.8,0-1.5-0.1-2.3-0.4c-0.6-0.2-1.1-0.6-1.5-1.1c-0.4-0.5-0.7-1-0.8-1.6c-0.2-0.6-0.3-1.3-0.3-2V182h1.6
		v8.8c-0.1,1,0.2,1.9,0.8,2.7c0.7,0.7,1.7,1,2.7,0.9c0.6,0,1.2-0.1,1.7-0.4c0.5-0.3,0.9-0.6,1.3-1.1c0.4-0.5,0.6-1,0.8-1.6
		c0.2-0.7,0.3-1.4,0.3-2V181.9z"/>
	<path class="st0" d="M294.3,200.6h-1.6v-18.7h1.6v2.4h0.1c0.2-0.4,0.5-0.8,0.9-1.2c0.3-0.3,0.7-0.6,1.2-0.9
		c0.4-0.2,0.9-0.4,1.3-0.5c0.4-0.1,0.9-0.2,1.3-0.2c1,0,1.9,0.2,2.8,0.5c0.7,0.3,1.4,0.9,1.9,1.5c0.5,0.7,0.9,1.4,1.1,2.2
		c0.2,0.9,0.3,1.8,0.3,2.8c0,0.9-0.1,1.8-0.4,2.7c-0.2,0.8-0.6,1.6-1.1,2.3c-0.5,0.6-1.1,1.2-1.9,1.5c-0.8,0.4-1.7,0.6-2.7,0.6
		c-0.9,0-1.9-0.2-2.7-0.6c-0.9-0.4-1.6-1.1-2.1-1.9L294.3,200.6z M294.3,188.7c0,0.7,0.1,1.5,0.3,2.2c0.2,0.6,0.5,1.3,0.9,1.8
		c0.4,0.5,0.9,0.9,1.4,1.2c0.6,0.3,1.2,0.5,1.9,0.4c0.7,0,1.4-0.1,2.1-0.5c0.6-0.3,1.1-0.8,1.5-1.3c0.4-0.6,0.7-1.3,0.8-2
		c0.2-0.8,0.2-1.6,0.2-2.4c0-0.8-0.1-1.5-0.3-2.2c-0.2-0.6-0.5-1.2-1-1.7c-0.4-0.4-0.9-0.8-1.4-1c-0.6-0.2-1.2-0.4-1.8-0.4
		c-0.7,0-1.3,0.1-2,0.4c-0.6,0.3-1,0.7-1.4,1.2c-0.4,0.5-0.7,1.2-0.9,1.8C294.4,187.2,294.3,187.9,294.3,188.7L294.3,188.7z"/>
	<path class="st0" d="M312.6,195.4c-0.2,0-0.4,0.1-0.8,0.2c-0.3,0.1-0.7,0.1-1,0.1c-0.6,0-1.3-0.2-1.8-0.6c-0.5-0.6-0.7-1.3-0.6-2.1
		v-9.8h-1.9V182h1.9v-3.7h1.6v3.7h2.5v1.3H310v9.2c0,0.3,0,0.6,0,0.9c0,0.2,0.1,0.4,0.2,0.6c0.1,0.2,0.2,0.3,0.4,0.3
		c0.2,0.1,0.5,0.1,0.8,0.1c0.2,0,0.4,0,0.6,0c0.2,0,0.4-0.1,0.6-0.1L312.6,195.4z"/>
	<path class="st0" d="M314.7,179v-2.3h1.7v2.3H314.7z M314.8,195.4v-13.4h1.6v13.4H314.8z"/>
	<path class="st0" d="M318.4,181.9h1.7l4.4,11.5l4.4-11.5h1.7l-5.2,13.4h-1.7L318.4,181.9z"/>
	<path class="st0" d="M333.2,189c0,0.7,0.1,1.4,0.3,2.1c0.2,0.6,0.5,1.2,0.8,1.7c0.4,0.5,0.9,0.9,1.4,1.1c0.6,0.3,1.3,0.4,2,0.4
		c0.9,0,1.9-0.3,2.6-0.8c0.7-0.6,1.3-1.4,1.4-2.3h1.7c-0.2,0.6-0.4,1.2-0.8,1.8c-0.3,0.5-0.7,1-1.2,1.4c-0.5,0.4-1.1,0.8-1.7,1
		c-0.7,0.2-1.5,0.3-2.2,0.3c-1,0-1.9-0.2-2.8-0.5c-0.8-0.3-1.4-0.8-2-1.5c-0.5-0.7-0.9-1.4-1.1-2.2c-0.3-0.9-0.4-1.8-0.4-2.8
		c0-0.9,0.1-1.9,0.4-2.8c0.3-0.8,0.7-1.6,1.2-2.3c0.5-0.6,1.2-1.2,2-1.5c0.8-0.4,1.7-0.6,2.6-0.6c1.7-0.1,3.3,0.7,4.4,2
		c1.1,1.6,1.7,3.6,1.5,5.5L333.2,189z M342,187.7c0-0.6-0.1-1.3-0.3-1.9c-0.2-0.5-0.4-1.1-0.8-1.5c-0.4-0.4-0.8-0.8-1.3-1
		c-0.6-0.3-1.2-0.4-1.8-0.4c-0.6,0-1.3,0.1-1.8,0.4c-0.5,0.2-1,0.6-1.3,1c-0.4,0.4-0.7,1-0.9,1.5c-0.2,0.6-0.4,1.2-0.4,1.8
		L342,187.7z"/>
	<path class="st0" d="M353.7,195.4v-18.6h1.8v18.6H353.7z"/>
	<path class="st0" d="M361,195.4h-1.6v-13.4h1.6v1.9c0.6-0.6,1.2-1.2,2-1.6c0.7-0.4,1.6-0.7,2.4-0.6c0.8,0,1.6,0.1,2.3,0.4
		c0.7,0.3,1.4,0.8,1.8,1.5c0.3,0.4,0.5,1,0.6,1.5c0.1,0.5,0.1,1.1,0.1,1.6v8.8h-1.6v-8.8c0.1-1-0.2-1.9-0.8-2.7
		c-0.7-0.7-1.7-1-2.7-0.9c-0.4,0-0.9,0.1-1.3,0.2c-0.4,0.1-0.7,0.3-1.1,0.6c-0.3,0.2-0.6,0.5-0.8,0.8c-0.2,0.3-0.4,0.6-0.5,1
		c-0.2,0.4-0.2,0.8-0.3,1.2c0,0.4,0,0.8,0,1.3V195.4z"/>
	<path class="st0" d="M374.9,195.4h-1.6v-13.4h1.6v1.9c0.6-0.6,1.2-1.2,2-1.6c0.7-0.4,1.6-0.7,2.4-0.6c0.8,0,1.6,0.1,2.3,0.4
		c0.7,0.3,1.4,0.8,1.8,1.5c0.3,0.4,0.5,1,0.6,1.5c0.1,0.5,0.1,1.1,0.1,1.6v8.8h-1.6v-8.8c0.1-1-0.2-1.9-0.8-2.7
		c-0.7-0.7-1.7-1-2.7-0.9c-0.5,0-0.9,0.1-1.3,0.2c-0.4,0.1-0.7,0.3-1.1,0.6c-0.3,0.2-0.6,0.5-0.8,0.8c-0.2,0.3-0.4,0.6-0.5,1
		c-0.1,0.4-0.2,0.8-0.3,1.2c0,0.4,0,0.8,0,1.3V195.4z"/>
	<path class="st0" d="M392.6,195.7c-0.8,0-1.7-0.2-2.4-0.5c-0.7-0.3-1.4-0.7-2-1.3c-0.6-0.6-1-1.4-1.3-2.2c-0.4-1-0.5-2-0.5-3.1
		c0-0.9,0.1-1.9,0.4-2.8c0.2-0.8,0.6-1.6,1.2-2.2c0.5-0.6,1.2-1.2,2-1.5c0.9-0.4,1.8-0.6,2.7-0.6c0.9,0,1.9,0.2,2.7,0.6
		c0.8,0.3,1.4,0.9,2,1.5c0.5,0.7,0.9,1.4,1.2,2.2c0.3,0.9,0.4,1.8,0.4,2.8c0,1-0.1,2-0.4,2.9c-0.3,0.8-0.7,1.6-1.3,2.2
		c-0.5,0.6-1.2,1.1-2,1.4C394.4,195.6,393.5,195.8,392.6,195.7z M397.1,188.7c0-0.8-0.1-1.5-0.3-2.2c-0.2-0.6-0.4-1.3-0.8-1.8
		c-0.4-0.5-0.8-0.9-1.4-1.2c-0.7-0.3-1.4-0.5-2.1-0.4c-1.4-0.1-2.7,0.6-3.5,1.8c-0.4,0.6-0.6,1.2-0.8,1.8c-0.2,0.7-0.3,1.4-0.3,2.1
		c0,0.8,0.1,1.5,0.3,2.3c0.2,0.7,0.5,1.3,0.9,1.8c0.4,0.5,0.9,0.9,1.4,1.2c0.6,0.3,1.3,0.4,2,0.4c0.7,0,1.4-0.1,2.1-0.5
		c0.6-0.3,1-0.7,1.4-1.3c0.4-0.6,0.6-1.2,0.8-1.8C397.1,190.1,397.1,189.4,397.1,188.7z"/>
	<path class="st0" d="M399.7,181.9h1.7l4.4,11.5l4.4-11.5h1.7l-5.2,13.4h-1.7L399.7,181.9z"/>
	<path class="st0" d="M419.7,187.5c0.3,0,0.6-0.1,1-0.2c0.3,0,0.7-0.1,1-0.3c0.3-0.1,0.4-0.3,0.5-0.6c0.1-0.3,0.1-0.5,0.1-0.8
		c0-0.7-0.3-1.4-0.8-2c-0.7-0.6-1.6-0.9-2.6-0.8c-0.5,0-1,0-1.5,0.1c-0.4,0.1-0.8,0.2-1.2,0.5c-0.3,0.2-0.6,0.6-0.8,0.9
		c-0.2,0.5-0.4,1-0.4,1.5h-1.6c0-0.7,0.2-1.4,0.5-2c0.3-0.5,0.7-1,1.2-1.4c0.5-0.4,1.1-0.6,1.7-0.8c0.7-0.2,1.4-0.2,2.1-0.2
		c0.6,0,1.3,0.1,1.9,0.2c0.6,0.1,1.1,0.4,1.6,0.7c0.4,0.3,0.8,0.8,1,1.3c0.3,0.6,0.4,1.3,0.4,2v7.3c0,0.6,0.1,1,0.3,1.2
		c0.2,0.2,0.6,0.1,1.3-0.1v1.2l-0.5,0.2c-0.2,0.1-0.5,0.1-0.7,0.1c-0.2,0-0.5,0-0.7-0.1c-0.2,0-0.4-0.1-0.6-0.2
		c-0.2-0.1-0.3-0.3-0.4-0.5c-0.1-0.2-0.2-0.4-0.2-0.6c0-0.2-0.1-0.5-0.1-0.7c-0.6,0.7-1.4,1.3-2.2,1.7c-0.9,0.4-1.8,0.6-2.7,0.6
		c-0.6,0-1.1-0.1-1.7-0.2c-0.5-0.1-1-0.4-1.4-0.7c-0.4-0.3-0.7-0.7-1-1.2c-0.3-0.5-0.4-1.1-0.4-1.7c0-2.3,1.6-3.6,4.7-4L419.7,187.5
		z M422.3,188.3c-0.6,0.3-1.3,0.4-2,0.5c-0.7,0.1-1.3,0.2-2,0.2c-1,0-1.9,0.3-2.8,0.8c-0.7,0.5-1,1.2-1,2c0,0.4,0.1,0.7,0.2,1.1
		c0.2,0.3,0.4,0.6,0.6,0.7c0.3,0.2,0.6,0.4,0.9,0.4c0.4,0.1,0.7,0.1,1.1,0.1c0.6,0,1.2-0.1,1.7-0.2c0.6-0.1,1.1-0.4,1.6-0.7
		c0.5-0.3,0.8-0.7,1.1-1.2c0.3-0.5,0.4-1.1,0.4-1.8L422.3,188.3z"/>
	<path class="st0" d="M432.2,195.4c-0.2,0-0.4,0.1-0.8,0.2c-0.3,0.1-0.7,0.1-1,0.1c-0.6,0-1.3-0.2-1.8-0.6c-0.5-0.6-0.7-1.3-0.6-2.1
		v-9.8h-1.9V182h2v-3.7h1.6v3.7h2.5v1.3h-2.5v9.2c0,0.3,0,0.6,0,0.9c0,0.2,0.1,0.4,0.2,0.6c0.1,0.2,0.2,0.3,0.4,0.3
		c0.2,0.1,0.5,0.1,0.8,0.1c0.2,0,0.4,0,0.6,0c0.2,0,0.4-0.1,0.6-0.1L432.2,195.4z"/>
	<path class="st0" d="M434.3,179v-2.3h1.7v2.3H434.3z M434.4,195.4v-13.4h1.6v13.4H434.4z"/>
	<path class="st0" d="M444.7,195.7c-0.8,0-1.7-0.2-2.4-0.5c-0.7-0.3-1.4-0.7-2-1.3c-0.6-0.6-1-1.4-1.3-2.2c-0.4-1-0.5-2-0.5-3.1
		c0-0.9,0.1-1.9,0.4-2.8c0.2-0.8,0.6-1.6,1.2-2.2c0.5-0.6,1.2-1.2,2-1.5c0.9-0.4,1.8-0.6,2.7-0.6c0.9,0,1.9,0.2,2.7,0.6
		c0.8,0.3,1.4,0.9,2,1.5c0.5,0.7,0.9,1.4,1.2,2.2c0.3,0.9,0.4,1.8,0.4,2.8c0,1-0.1,2-0.4,2.9c-0.3,0.8-0.7,1.6-1.3,2.2
		c-0.5,0.6-1.2,1.1-2,1.4C446.4,195.6,445.6,195.8,444.7,195.7z M449.2,188.7c0-0.8-0.1-1.5-0.3-2.2c-0.2-0.6-0.4-1.3-0.8-1.8
		c-0.4-0.5-0.8-0.9-1.4-1.2c-0.7-0.3-1.4-0.5-2.1-0.4c-0.7,0-1.4,0.1-2.1,0.5c-0.6,0.3-1.1,0.7-1.4,1.3c-0.4,0.6-0.6,1.2-0.8,1.8
		c-0.2,0.7-0.3,1.4-0.3,2.1c0,0.8,0.1,1.5,0.3,2.3c0.2,0.7,0.5,1.3,0.9,1.8c0.4,0.5,0.9,0.9,1.4,1.2c0.6,0.3,1.3,0.4,2,0.4
		c0.7,0,1.4-0.1,2.1-0.5c0.6-0.3,1-0.7,1.4-1.3c0.4-0.6,0.6-1.2,0.8-1.8C449.1,190.1,449.2,189.4,449.2,188.7L449.2,188.7z"/>
	<path class="st0" d="M454.8,195.4h-1.6v-13.4h1.6v1.9c0.6-0.6,1.2-1.2,2-1.6c0.7-0.4,1.6-0.7,2.4-0.6c0.8,0,1.6,0.1,2.3,0.4
		c0.7,0.3,1.4,0.8,1.8,1.5c0.3,0.4,0.5,1,0.6,1.5c0.1,0.5,0.1,1.1,0.1,1.6v8.8h-1.6v-8.8c0.1-1-0.2-1.9-0.8-2.7
		c-0.7-0.7-1.7-1-2.7-0.9c-0.4,0-0.9,0.1-1.3,0.2c-0.4,0.1-0.7,0.3-1.1,0.6c-0.3,0.2-0.6,0.5-0.8,0.8c-0.2,0.3-0.4,0.6-0.5,1
		c-0.2,0.4-0.2,0.8-0.3,1.2c0,0.4,0,0.8,0,1.3L454.8,195.4z"/>
	<path class="st0" d="M127.6,220.1c0.3,0,0.6-0.1,1-0.2c0.3,0,0.7-0.1,1-0.3c0.3-0.1,0.4-0.3,0.5-0.6c0.1-0.3,0.1-0.5,0.1-0.8
		c0-0.7-0.3-1.4-0.8-2c-0.7-0.6-1.6-0.9-2.6-0.8c-0.5,0-1,0-1.5,0.1c-0.4,0.1-0.8,0.2-1.2,0.5c-0.3,0.3-0.6,0.6-0.8,1
		c-0.2,0.5-0.4,0.9-0.4,1.5h-1.6c0-0.7,0.2-1.4,0.5-2c0.3-0.5,0.7-1,1.2-1.4c0.5-0.4,1.1-0.6,1.7-0.8c0.7-0.2,1.4-0.2,2.1-0.2
		c0.6,0,1.3,0.1,1.9,0.2c0.6,0.1,1.1,0.4,1.6,0.7c0.4,0.3,0.8,0.8,1,1.3c0.3,0.6,0.4,1.3,0.4,2v7.3c0,0.6,0.1,1,0.3,1.2
		c0.2,0.2,0.7,0.1,1.3-0.1v1.2l-0.5,0.2c-0.2,0.1-0.5,0.1-0.7,0.1c-0.2,0-0.5,0-0.7-0.1c-0.2,0-0.4-0.1-0.6-0.2
		c-0.2-0.1-0.3-0.3-0.4-0.5c-0.1-0.2-0.2-0.4-0.2-0.6c0-0.2,0-0.5,0-0.7c-1.3,1.4-3.1,2.3-5,2.2c-0.6,0-1.1-0.1-1.7-0.2
		c-0.5-0.1-1-0.4-1.4-0.7c-0.4-0.3-0.7-0.7-1-1.2c-0.3-0.5-0.4-1.1-0.4-1.7c0-2.3,1.6-3.6,4.7-4L127.6,220.1z M130.2,220.9
		c-0.6,0.3-1.3,0.4-2,0.5c-0.7,0.1-1.3,0.2-2,0.2c-1,0-1.9,0.3-2.8,0.8c-0.7,0.5-1,1.2-1,2c0,0.7,0.3,1.4,0.9,1.8
		c0.3,0.2,0.6,0.4,0.9,0.4c0.4,0.1,0.7,0.1,1.1,0.1c0.6,0,1.2-0.1,1.8-0.2c0.6-0.1,1.1-0.4,1.6-0.7c1-0.7,1.5-1.8,1.5-2.9
		L130.2,220.9z"/>
	<path class="st0" d="M136.6,227.9h-1.6v-13.4h1.6v1.9c0.6-0.6,1.2-1.2,2-1.6c0.7-0.4,1.6-0.7,2.4-0.6c0.8,0,1.6,0.1,2.3,0.4
		c0.7,0.3,1.4,0.8,1.8,1.5c0.3,0.4,0.5,1,0.6,1.5c0.1,0.5,0.1,1.1,0.1,1.6v8.8h-1.6v-8.8c0.1-1-0.2-1.9-0.8-2.7
		c-0.7-0.7-1.7-1-2.7-0.9c-0.5,0-0.9,0.1-1.3,0.2c-0.4,0.1-0.7,0.3-1.1,0.6c-0.3,0.2-0.6,0.5-0.8,0.8c-0.2,0.3-0.4,0.6-0.5,1
		c-0.1,0.4-0.2,0.8-0.3,1.2c0,0.4,0,0.8,0,1.3L136.6,227.9z"/>
	<path class="st0" d="M159.1,209.2h1.6v18.6h-1.6v-2.4l0,0c-0.2,0.4-0.5,0.8-0.9,1.2c-0.3,0.3-0.7,0.6-1.2,0.8
		c-0.4,0.2-0.9,0.4-1.3,0.5c-0.4,0.1-0.9,0.2-1.3,0.2c-1,0-1.9-0.2-2.8-0.5c-0.7-0.3-1.4-0.9-1.9-1.5c-0.5-0.7-0.9-1.4-1.1-2.2
		c-0.2-0.9-0.3-1.8-0.3-2.8c0-0.9,0.1-1.8,0.4-2.7c0.2-0.8,0.6-1.6,1.1-2.3c0.5-0.7,1.1-1.2,1.9-1.6c0.8-0.4,1.7-0.6,2.7-0.6
		c0.9,0,1.9,0.2,2.7,0.6c0.8,0.4,1.5,1.1,2,1.9V209.2z M159.1,221.1c0-0.7-0.1-1.5-0.3-2.2c-0.2-0.6-0.5-1.3-0.9-1.8
		c-0.4-0.5-0.9-0.9-1.4-1.2c-0.6-0.3-1.2-0.5-1.9-0.5c-0.7,0-1.4,0.1-2.1,0.5c-0.6,0.3-1.1,0.8-1.4,1.3c-0.4,0.6-0.7,1.3-0.8,2
		c-0.2,0.8-0.2,1.6-0.2,2.4c0,0.8,0.1,1.5,0.3,2.2c0.2,0.6,0.5,1.2,1,1.6c0.4,0.4,0.9,0.8,1.4,1c0.6,0.2,1.2,0.4,1.8,0.4
		c1.3,0,2.6-0.6,3.4-1.6c0.4-0.5,0.7-1.2,0.9-1.8C159,222.7,159.1,221.9,159.1,221.1z"/>
	<path class="st0" d="M170.5,227.9v-18.6h12.4v1.5h-10.6v6.7h9.6v1.5h-9.6v7.4h10.9v1.5L170.5,227.9z"/>
	<path class="st0" d="M186.8,227.9h-1.6v-13.4h1.6v1.9c0.6-0.6,1.2-1.2,2-1.6c0.7-0.4,1.5-0.7,2.4-0.6c0.8,0,1.6,0.1,2.3,0.4
		c0.7,0.3,1.4,0.8,1.8,1.5c0.3,0.4,0.5,1,0.6,1.5c0.1,0.5,0.1,1.1,0.1,1.6v8.8h-1.6v-8.8c0.1-1-0.2-1.9-0.8-2.7
		c-0.7-0.7-1.7-1-2.7-0.9c-0.4,0-0.9,0.1-1.3,0.2c-0.4,0.1-0.7,0.3-1.1,0.6c-0.3,0.2-0.6,0.5-0.8,0.8c-0.2,0.3-0.4,0.6-0.5,1
		c-0.2,0.4-0.2,0.8-0.3,1.2c0,0.4-0.1,0.8-0.1,1.3L186.8,227.9z"/>
	<path class="st0" d="M205.1,220.1c0.3,0,0.6-0.1,1-0.2c0.3,0,0.7-0.1,1-0.3c0.3-0.1,0.4-0.3,0.5-0.6c0.1-0.3,0.1-0.5,0.1-0.8
		c0-0.7-0.3-1.4-0.8-2c-0.7-0.6-1.6-0.9-2.6-0.8c-0.5,0-1,0-1.5,0.1c-0.4,0.1-0.8,0.2-1.2,0.5c-0.4,0.3-0.6,0.6-0.8,1
		c-0.2,0.5-0.4,1-0.4,1.5h-1.6c0-0.7,0.2-1.4,0.5-2c0.3-0.5,0.7-1,1.2-1.4c0.5-0.4,1.1-0.6,1.7-0.8c0.7-0.2,1.4-0.2,2.1-0.2
		c0.6,0,1.3,0.1,1.9,0.2c0.6,0.1,1.1,0.4,1.6,0.7c0.4,0.3,0.8,0.8,1,1.3c0.3,0.6,0.4,1.3,0.4,2v7.3c0,0.6,0.1,1,0.3,1.2
		s0.6,0.1,1.3-0.1v1.2l-0.5,0.2c-0.2,0.1-0.5,0.1-0.7,0.1c-0.2,0-0.5,0-0.7-0.1c-0.2,0-0.4-0.1-0.6-0.2c-0.2-0.1-0.3-0.3-0.4-0.5
		c-0.1-0.2-0.2-0.4-0.2-0.6c0-0.2,0-0.5,0-0.7c-0.6,0.7-1.4,1.3-2.2,1.7c-0.9,0.4-1.8,0.6-2.7,0.6c-0.6,0-1.1-0.1-1.7-0.2
		c-0.5-0.1-1-0.4-1.4-0.7c-0.4-0.3-0.7-0.7-1-1.2c-0.3-0.5-0.4-1.1-0.4-1.7c0-2.3,1.6-3.6,4.7-4L205.1,220.1z M207.7,220.9
		c-0.6,0.3-1.3,0.4-2,0.5c-0.7,0.1-1.3,0.2-2,0.2c-1,0-1.9,0.3-2.8,0.8c-0.7,0.5-1,1.2-1,2c0,0.4,0.1,0.7,0.3,1.1
		c0.2,0.3,0.4,0.6,0.6,0.8c0.3,0.2,0.6,0.4,0.9,0.4c0.4,0.1,0.7,0.1,1.1,0.1c0.6,0,1.2-0.1,1.8-0.2c0.6-0.1,1.1-0.4,1.6-0.7
		c0.5-0.3,0.8-0.7,1.1-1.2c0.3-0.5,0.4-1.1,0.4-1.8L207.7,220.9z"/>
	<path class="st0" d="M214.3,227.9h-1.6v-18.6h1.6v7.4c0.5-0.8,1.2-1.5,2.1-1.9c0.9-0.4,1.8-0.6,2.7-0.6c0.9,0,1.8,0.2,2.7,0.6
		c0.7,0.4,1.4,0.9,1.9,1.6c0.5,0.7,0.9,1.4,1.1,2.3c0.2,0.9,0.4,1.8,0.4,2.7c0,0.9-0.1,1.9-0.3,2.8c-0.2,0.8-0.6,1.6-1.1,2.2
		c-0.5,0.6-1.1,1.2-1.9,1.5c-0.9,0.4-1.8,0.6-2.8,0.5c-0.4,0-0.9-0.1-1.3-0.2c-0.5-0.1-0.9-0.3-1.3-0.5c-0.4-0.2-0.8-0.5-1.2-0.8
		c-0.4-0.3-0.6-0.7-0.9-1.2l0,0L214.3,227.9z M214.3,221.1c0,0.8,0.1,1.5,0.3,2.3c0.2,0.7,0.5,1.3,0.9,1.8c0.4,0.5,0.9,0.9,1.4,1.2
		c0.6,0.3,1.3,0.5,2,0.4c0.6,0,1.2-0.1,1.8-0.4c0.5-0.2,1-0.5,1.4-1c0.4-0.5,0.8-1,1-1.6c0.2-0.7,0.4-1.5,0.4-2.2
		c0-0.8,0-1.6-0.2-2.4c-0.2-0.7-0.4-1.4-0.8-2c-0.4-0.5-0.9-1-1.5-1.3c-0.6-0.3-1.4-0.5-2.1-0.5c-0.7,0-1.3,0.1-1.9,0.5
		c-0.6,0.3-1,0.7-1.4,1.2c-0.4,0.5-0.7,1.1-0.9,1.8C214.4,219.7,214.3,220.4,214.3,221.1z"/>
	<path class="st0" d="M227.9,227.9v-18.6h1.6v18.6L227.9,227.9z"/>
	<path class="st0" d="M232.8,211.6v-2.3h1.7v2.3H232.8z M232.9,227.9v-13.4h1.5v13.4L232.9,227.9z"/>
	<path class="st0" d="M239.2,227.9h-1.5v-13.4h1.5v1.9c0.6-0.6,1.2-1.2,2-1.6c0.7-0.4,1.6-0.7,2.4-0.6c0.8,0,1.6,0.1,2.3,0.4
		c0.7,0.3,1.4,0.8,1.8,1.5c0.3,0.4,0.5,1,0.6,1.5c0.1,0.5,0.1,1.1,0.1,1.6v8.8h-1.6v-8.8c0.1-1-0.2-1.9-0.8-2.7
		c-0.7-0.7-1.7-1-2.7-0.9c-0.4,0-0.9,0.1-1.3,0.2c-0.4,0.1-0.7,0.3-1.1,0.6c-0.3,0.2-0.6,0.5-0.8,0.8c-0.2,0.3-0.4,0.6-0.5,1
		c-0.2,0.4-0.2,0.8-0.3,1.2c0,0.4-0.1,0.8-0.1,1.3L239.2,227.9z"/>
	<path class="st0" d="M261.7,214.5h1.6v12.1c0,0.9-0.1,1.7-0.3,2.6c-0.2,0.8-0.5,1.5-1,2.2c-0.5,0.7-1.2,1.2-2,1.5
		c-1.8,0.7-3.8,0.7-5.7,0.2c-0.6-0.2-1.2-0.6-1.7-1c-0.4-0.3-0.7-0.8-1-1.3c-0.2-0.4-0.3-0.8-0.4-1.3h1.7c0.1,0.4,0.3,0.9,0.6,1.2
		c0.2,0.3,0.6,0.6,0.9,0.7c0.4,0.2,0.8,0.3,1.2,0.4c0.4,0.1,0.9,0.1,1.3,0.1c0.9,0,1.7-0.1,2.5-0.5c0.6-0.3,1.1-0.8,1.5-1.4
		c0.3-0.6,0.5-1.3,0.6-2c0.1-0.8,0.1-1.5,0.1-2.3c-0.5,0.8-1.2,1.5-2.1,1.9c-0.9,0.4-1.8,0.6-2.7,0.6c-0.9,0-1.8-0.2-2.7-0.6
		c-0.7-0.4-1.4-0.9-1.9-1.6c-0.5-0.7-0.9-1.5-1.1-2.3c-0.2-0.9-0.4-1.8-0.4-2.7c0-0.9,0.1-1.9,0.3-2.8c0.2-0.8,0.6-1.6,1.1-2.2
		c0.5-0.6,1.1-1.1,1.9-1.5c0.9-0.4,1.8-0.6,2.8-0.5c0.4,0,0.9,0.1,1.3,0.2c0.5,0.1,0.9,0.3,1.3,0.5c0.4,0.2,0.8,0.5,1.2,0.9
		c0.4,0.3,0.6,0.7,0.9,1.2h0L261.7,214.5z M261.7,221.2c0-0.8-0.1-1.5-0.3-2.3c-0.2-0.7-0.5-1.3-0.9-1.8c-0.4-0.5-0.9-0.9-1.4-1.2
		c-0.6-0.3-1.3-0.5-2-0.4c-0.6,0-1.2,0.1-1.8,0.4c-0.6,0.2-1.1,0.6-1.5,1c-0.4,0.5-0.8,1-1,1.6c-0.2,0.7-0.4,1.5-0.4,2.2
		c0,0.8,0,1.6,0.2,2.4c0.2,0.7,0.4,1.4,0.8,2c0.4,0.5,0.9,1,1.4,1.3c0.6,0.3,1.4,0.5,2.1,0.5c0.7,0,1.3-0.1,1.9-0.4
		c0.6-0.3,1-0.7,1.4-1.2c0.4-0.5,0.7-1.1,0.9-1.8C261.5,222.7,261.7,222,261.7,221.2z"/>
	<path class="st0" d="M271.4,209.2h13.6v1.5h-5.9v17.1h-1.8v-17.1h-5.9L271.4,209.2z"/>
	<path class="st0" d="M287.4,221.5c0,0.7,0.1,1.4,0.3,2.1c0.2,0.6,0.5,1.2,0.8,1.7c0.4,0.5,0.9,0.9,1.4,1.1c1.5,0.7,3.2,0.5,4.6-0.4
		c0.7-0.6,1.3-1.4,1.5-2.3h1.7c-0.2,0.6-0.4,1.2-0.8,1.8c-0.6,1.1-1.6,2-2.8,2.4c-0.7,0.2-1.5,0.3-2.2,0.3c-1,0-1.9-0.2-2.8-0.5
		c-0.8-0.3-1.4-0.8-2-1.5c-0.5-0.7-0.9-1.4-1.1-2.2c-0.2-0.9-0.4-1.8-0.4-2.8c0-0.9,0.1-1.9,0.4-2.8c0.3-0.8,0.7-1.6,1.2-2.3
		c0.5-0.6,1.2-1.2,2-1.5c0.8-0.4,1.7-0.6,2.6-0.6c1.7-0.1,3.3,0.6,4.4,1.9c1.1,1.6,1.7,3.6,1.6,5.5L287.4,221.5z M296.2,220.2
		c0-0.6-0.1-1.3-0.3-1.8c-0.2-0.6-0.4-1.1-0.8-1.5c-0.4-0.4-0.8-0.8-1.3-1c-0.6-0.3-1.2-0.4-1.8-0.4c-0.6,0-1.3,0.1-1.8,0.4
		c-0.5,0.2-1,0.6-1.3,1c-0.4,0.4-0.7,1-0.9,1.5c-0.2,0.6-0.4,1.2-0.4,1.8L296.2,220.2z"/>
	<path class="st0" d="M309.6,218.7c-0.2-0.9-0.7-1.7-1.4-2.3c-0.7-0.6-1.6-0.9-2.6-0.8c-0.7,0-1.4,0.2-2,0.5c-0.6,0.3-1,0.8-1.4,1.3
		c-0.4,0.6-0.6,1.2-0.8,1.8c-0.2,0.7-0.3,1.4-0.3,2.1c0,0.7,0.1,1.4,0.2,2.1c0.2,0.6,0.4,1.3,0.8,1.8c0.4,0.5,0.8,1,1.4,1.3
		c0.6,0.3,1.4,0.5,2.1,0.5c1,0,2-0.3,2.8-1c0.7-0.7,1.2-1.6,1.3-2.6h1.7c-0.1,0.7-0.3,1.4-0.7,2c-0.3,0.6-0.7,1.1-1.2,1.6
		c-0.5,0.4-1.1,0.8-1.7,1c-0.7,0.3-1.5,0.4-2.2,0.4c-1,0-1.9-0.2-2.8-0.5c-0.7-0.3-1.4-0.9-1.9-1.5c-0.5-0.7-0.9-1.4-1.1-2.2
		c-0.2-0.9-0.4-1.8-0.4-2.8c0-0.9,0.1-1.8,0.4-2.7c0.2-0.8,0.6-1.6,1.2-2.3c1.1-1.4,2.8-2.2,4.6-2.2c1.3-0.1,2.7,0.3,3.8,1.1
		c1,0.9,1.7,2.1,1.8,3.5L309.6,218.7z"/>
	<path class="st0" d="M313.8,227.9v-18.6h1.6v7.1c0.6-0.6,1.2-1.2,2-1.6c0.7-0.4,1.6-0.7,2.4-0.6c0.8,0,1.6,0.1,2.3,0.4
		c0.7,0.3,1.4,0.8,1.8,1.5c0.3,0.4,0.5,1,0.6,1.5c0.1,0.5,0.1,1.1,0.1,1.6v8.8h-1.6v-8.8c0.1-1-0.2-1.9-0.8-2.7
		c-0.7-0.7-1.7-1-2.7-0.9c-0.5,0-0.9,0.1-1.3,0.2c-0.4,0.1-0.7,0.3-1.1,0.6c-0.3,0.2-0.6,0.5-0.8,0.8c-0.2,0.3-0.4,0.6-0.5,1
		c-0.1,0.4-0.2,0.8-0.3,1.2c0,0.4,0,0.8,0,1.3v7.2L313.8,227.9z"/>
	<path class="st0" d="M328.8,228h-1.6v-13.4h1.6v1.9c0.6-0.6,1.2-1.2,2-1.6c0.7-0.4,1.6-0.7,2.4-0.6c0.8,0,1.6,0.1,2.3,0.4
		c0.7,0.3,1.4,0.8,1.8,1.5c0.3,0.4,0.5,1,0.6,1.5c0.1,0.5,0.1,1.1,0.1,1.6v8.8h-1.6v-8.8c0.1-1-0.2-1.9-0.8-2.7
		c-0.7-0.7-1.7-1-2.7-0.9c-0.4,0-0.9,0.1-1.3,0.2c-0.4,0.1-0.7,0.3-1.1,0.6c-0.3,0.2-0.6,0.5-0.8,0.8c-0.2,0.3-0.4,0.6-0.5,1
		c-0.1,0.4-0.2,0.8-0.3,1.2c0,0.4,0,0.8,0,1.3L328.8,228z"/>
	<path class="st0" d="M346.4,228.3c-0.8,0-1.7-0.2-2.4-0.5c-0.7-0.3-1.4-0.7-2-1.3c-0.6-0.6-1-1.4-1.3-2.2c-0.4-1-0.5-2-0.5-3.1
		c0-0.9,0.1-1.9,0.4-2.8c0.2-0.8,0.6-1.6,1.2-2.2c0.5-0.6,1.2-1.2,2-1.5c0.9-0.4,1.8-0.6,2.7-0.6c0.9,0,1.9,0.2,2.7,0.6
		c0.8,0.3,1.4,0.9,2,1.5c0.5,0.7,0.9,1.4,1.2,2.2c0.3,0.9,0.4,1.8,0.4,2.8c0,1-0.1,2-0.4,2.9c-0.3,0.8-0.7,1.6-1.3,2.2
		c-0.5,0.6-1.2,1.1-2,1.4C348.2,228.1,347.3,228.3,346.4,228.3z M350.9,221.2c0-0.8-0.1-1.5-0.3-2.2c-0.2-0.6-0.4-1.3-0.8-1.8
		c-0.4-0.5-0.8-0.9-1.4-1.2c-0.7-0.3-1.4-0.5-2.1-0.4c-0.7,0-1.4,0.1-2.1,0.5c-0.6,0.3-1.1,0.7-1.4,1.3c-0.4,0.6-0.6,1.2-0.8,1.8
		c-0.2,0.7-0.3,1.4-0.3,2.1c0,0.8,0.1,1.5,0.3,2.3c0.2,0.6,0.5,1.3,0.9,1.8c0.4,0.5,0.9,0.9,1.4,1.1c0.6,0.3,1.3,0.4,2,0.4
		c0.7,0,1.4-0.1,2.1-0.5c0.6-0.3,1-0.7,1.4-1.3c0.4-0.6,0.6-1.2,0.8-1.8C350.8,222.6,350.9,221.9,350.9,221.2z"/>
	<path class="st0" d="M354.9,227.9v-18.6h1.6v18.6L354.9,227.9z"/>
	<path class="st0" d="M365,228.3c-0.8,0-1.6-0.2-2.4-0.5c-0.7-0.3-1.4-0.7-2-1.3c-0.6-0.6-1-1.4-1.3-2.2c-0.3-1-0.5-2-0.5-3.1
		c0-0.9,0.1-1.9,0.4-2.8c0.2-0.8,0.6-1.6,1.2-2.2c0.5-0.6,1.2-1.2,2-1.5c1.7-0.7,3.7-0.7,5.5,0c0.8,0.3,1.4,0.9,2,1.5
		c0.5,0.7,0.9,1.4,1.2,2.2c0.3,0.9,0.4,1.8,0.4,2.8c0,1-0.1,2-0.4,2.9c-0.3,0.8-0.7,1.6-1.3,2.2c-0.5,0.6-1.2,1.1-2,1.4
		C366.8,228.1,365.9,228.3,365,228.3z M369.6,221.2c0-0.8-0.1-1.5-0.3-2.2c-0.2-0.6-0.4-1.3-0.8-1.8c-0.4-0.5-0.8-0.9-1.4-1.2
		c-0.7-0.3-1.4-0.5-2.1-0.4c-0.7,0-1.4,0.1-2.1,0.5c-0.6,0.3-1,0.7-1.4,1.3c-0.4,0.5-0.6,1.2-0.8,1.8c-0.2,0.7-0.3,1.4-0.3,2.1
		c0,0.8,0.1,1.5,0.3,2.3c0.2,0.6,0.5,1.3,0.9,1.8c0.4,0.5,0.9,0.9,1.4,1.2c0.6,0.3,1.3,0.4,2,0.4c0.7,0,1.4-0.1,2.1-0.5
		c0.6-0.3,1-0.7,1.4-1.3c0.4-0.6,0.6-1.2,0.8-1.8C369.5,222.6,369.6,221.9,369.6,221.2L369.6,221.2z"/>
	<path class="st0" d="M383.7,214.5h1.6v12.1c0,0.9-0.1,1.7-0.3,2.6c-0.2,0.8-0.5,1.5-1,2.2c-0.5,0.7-1.2,1.2-2,1.5
		c-1,0.4-2.1,0.6-3.1,0.6c-0.9,0-1.7-0.1-2.5-0.4c-0.6-0.2-1.2-0.5-1.7-1c-0.4-0.3-0.7-0.8-1-1.3c-0.2-0.4-0.3-0.8-0.4-1.3h1.7
		c0.1,0.4,0.3,0.9,0.6,1.2c0.3,0.3,0.6,0.6,0.9,0.7c0.4,0.2,0.8,0.3,1.2,0.4c0.4,0.1,0.9,0.1,1.3,0.1c0.9,0,1.8-0.1,2.5-0.5
		c0.6-0.3,1.1-0.8,1.4-1.4c0.3-0.6,0.5-1.3,0.6-2c0.1-0.8,0.1-1.5,0.1-2.3c-0.5,0.8-1.2,1.5-2.1,1.9c-0.8,0.4-1.8,0.6-2.7,0.6
		c-0.9,0-1.8-0.2-2.7-0.6c-0.7-0.4-1.4-0.9-1.9-1.6c-0.5-0.7-0.9-1.4-1.1-2.3c-0.2-0.9-0.4-1.8-0.4-2.7c0-0.9,0.1-1.9,0.3-2.8
		c0.2-0.8,0.6-1.6,1.1-2.2c0.5-0.6,1.1-1.1,1.9-1.5c0.9-0.4,1.8-0.6,2.8-0.5c0.4,0,0.9,0.1,1.3,0.2c0.5,0.1,0.9,0.3,1.3,0.5
		c0.4,0.2,0.8,0.5,1.2,0.9c0.3,0.3,0.6,0.7,0.9,1.2h0.1L383.7,214.5z M383.7,221.2c0-0.8-0.1-1.5-0.3-2.3c-0.2-0.7-0.5-1.3-0.9-1.8
		c-0.4-0.5-0.9-0.9-1.4-1.2c-0.6-0.3-1.3-0.5-2-0.4c-0.6,0-1.2,0.1-1.8,0.4c-0.6,0.2-1,0.6-1.4,1c-0.4,0.5-0.8,1-1,1.6
		c-0.2,0.7-0.4,1.5-0.3,2.2c0,0.8,0,1.6,0.2,2.4c0.1,0.7,0.4,1.4,0.8,2c0.4,0.5,0.9,1,1.4,1.3c0.6,0.3,1.4,0.5,2.1,0.5
		c0.7,0,1.4-0.1,2-0.4c0.6-0.3,1-0.7,1.4-1.2c0.4-0.5,0.7-1.1,0.9-1.8C383.6,222.7,383.7,222,383.7,221.2z"/>
	<path class="st0" d="M388.6,211.6v-2.3h1.7v2.3H388.6z M388.6,227.9v-13.4h1.6v13.4L388.6,227.9z"/>
	<path class="st0" d="M394.4,221.5c0,0.7,0.1,1.4,0.3,2.1c0.2,0.6,0.5,1.2,0.8,1.7c0.4,0.5,0.9,0.9,1.4,1.1c0.6,0.3,1.3,0.4,2,0.4
		c0.9,0,1.9-0.3,2.6-0.8c0.7-0.6,1.3-1.4,1.4-2.3h1.7c-0.2,0.6-0.4,1.2-0.8,1.8c-0.3,0.5-0.7,1-1.2,1.4c-0.5,0.4-1.1,0.8-1.7,1
		c-0.7,0.2-1.5,0.3-2.2,0.3c-1,0-1.9-0.2-2.8-0.5c-0.8-0.3-1.4-0.9-2-1.5c-0.5-0.7-0.9-1.4-1.1-2.2c-0.2-0.9-0.4-1.8-0.4-2.8
		c0-0.9,0.1-1.9,0.4-2.8c0.3-0.8,0.7-1.6,1.2-2.3c0.5-0.6,1.2-1.2,2-1.5c0.8-0.4,1.7-0.6,2.6-0.6c1.7-0.1,3.3,0.6,4.4,1.9
		c1.2,1.6,1.7,3.6,1.6,5.5L394.4,221.5z M403.1,220.2c0-0.6-0.1-1.2-0.3-1.8c-0.2-0.5-0.4-1.1-0.8-1.5c-0.4-0.4-0.8-0.8-1.3-1
		c-0.6-0.3-1.2-0.4-1.8-0.4c-1.2,0-2.4,0.5-3.2,1.4c-0.4,0.4-0.7,1-0.9,1.5c-0.2,0.6-0.4,1.2-0.4,1.8L403.1,220.2z"/>
	<path class="st0" d="M408,223.7c0.1,0.9,0.6,1.8,1.3,2.4c0.8,0.5,1.7,0.8,2.7,0.7c0.5,0,1-0.1,1.5-0.2c0.4-0.1,0.7-0.3,1-0.6
		c0.3-0.2,0.5-0.5,0.6-0.8c0.1-0.3,0.2-0.6,0.2-1c0-0.6-0.2-1.1-0.6-1.5c-0.5-0.3-1-0.6-1.6-0.8c-0.6-0.2-1.3-0.3-2.1-0.5
		c-0.7-0.1-1.4-0.3-2.1-0.6c-0.6-0.2-1.2-0.6-1.6-1.1c-0.5-0.6-0.7-1.3-0.6-2c0-1.1,0.4-2.1,1.2-2.8c1-0.8,2.2-1.2,3.5-1.1
		c1.3-0.1,2.5,0.3,3.5,1c1,0.8,1.6,2,1.6,3.2H415c0-0.9-0.5-1.7-1.2-2.2c-0.7-0.4-1.6-0.7-2.5-0.6c-0.8-0.1-1.6,0.2-2.2,0.6
		c-0.5,0.4-0.8,1-0.8,1.7c0,0.5,0.2,1.1,0.6,1.4c0.5,0.3,1,0.6,1.6,0.8c0.6,0.2,1.3,0.4,2.1,0.5c0.7,0.1,1.4,0.4,2.1,0.7
		c0.6,0.3,1.2,0.7,1.6,1.2c0.5,0.6,0.7,1.3,0.6,2c0,0.6-0.1,1.2-0.4,1.7c-0.3,0.5-0.7,0.9-1.1,1.2c-0.5,0.3-1.1,0.6-1.7,0.7
		c-0.7,0.2-1.5,0.3-2.2,0.2c-0.7,0-1.4-0.1-2.1-0.4c-0.6-0.2-1.1-0.5-1.6-1c-0.4-0.4-0.8-0.9-1-1.4c-0.2-0.6-0.4-1.2-0.4-1.8
		L408,223.7z"/>
</g>
<line class="st1" x1="469.6" y1="116.5" x2="198.3" y2="116.5"/>
<g>
	<g>
		<path class="st0" d="M135.1,40.3c-0.2,0.9-1.1,4.7-1.4,5.7h-17.4v-1.1c3.1-0.3,3.4-0.5,3.4-3.4V28.3c0-3-0.4-3.2-2.8-3.4v-1.2
			h10.9c3.5,0,4.7,0,5.2-0.1c0,0.7,0.2,3.4,0.3,5.4l-1.2,0.2c-0.3-1.2-0.8-2.3-1.3-3c-0.6-0.8-1.2-1.1-3-1.1h-2.6
			c-1.2,0-1.3,0.1-1.3,1.2v7.3h3.5c2.1,0,2.4-0.5,2.9-2.9h1.2v7.4h-1.2c-0.5-2.5-0.8-2.9-2.9-2.9h-3.5v6.2c0,2.4,0.3,2.9,2.3,2.9
			h2.7c2,0,2.4-0.3,3.2-1.2c0.8-0.9,1.5-2.2,2-3.3L135.1,40.3z"/>
		<path class="st0" d="M159.1,36.6c-2,0.3-2.2,0.5-2.2,2.7V42c0,1.2,0,2.4,0.2,3.3c-1.9,0.4-5.3,1.2-8.1,1.2
			c-7.9,0-12.6-4.9-12.6-11.7c0-7.5,6.1-11.6,13.3-11.6c3,0,5.9,0.7,7,0.8c0.1,1.4,0.3,3.8,0.6,5.8l-1.2,0.2c-0.8-2.9-2-4.3-4.1-5
			c-0.8-0.3-2.1-0.4-3-0.4c-4.5,0-7.7,3.6-7.7,9.6c0,5.8,2.4,10.8,8.3,10.8c0.9,0,1.8-0.2,2.4-0.5c0.6-0.3,0.9-0.9,0.9-2v-2.9
			c0-2.4-0.4-2.7-3.4-3v-1.2h9.7V36.6z"/>
		<path class="st0" d="M172.7,46v-1.2c2.2-0.3,2.3-0.7,1.8-2.1c-0.4-1.1-1-2.7-1.6-4.4H166c-0.4,1.2-0.9,2.5-1.3,3.7
			c-0.7,2.2,0,2.5,2.7,2.7V46h-8.3v-1.2c2.2-0.3,2.7-0.6,3.9-3.5l7.1-17.8l1.5-0.3c2.2,5.9,4.5,12.1,6.7,17.9
			c1.2,3.1,1.5,3.4,3.8,3.6V46H172.7z M169.6,29c-1,2.6-2.1,5.2-3,7.8h5.8L169.6,29z"/>
		<path class="st0" d="M192.5,23.7c4.5,0,7.7,0.9,9.9,3c1.7,1.6,3,4,3,7.4c0,4-1.6,7.1-4.3,9c-2.6,1.9-5.8,2.8-9.8,2.8h-8.9v-1.2
			c2.7-0.2,3-0.5,3-3.3V28.3c0-2.9-0.4-3.1-3-3.4v-1.2H192.5z M189.4,41.2c0,2.5,0.8,3.3,3.3,3.3c5.2,0,8-3.6,8-9.9
			c0-3.4-1-6.3-3-7.8c-1.5-1.3-3.3-1.7-5.6-1.7c-1.4,0-2,0.2-2.3,0.5c-0.3,0.3-0.4,0.8-0.4,1.9V41.2z"/>
		<path class="st0" d="M225.8,40.3c-0.2,0.9-1.1,4.7-1.4,5.7h-17.4v-1.1c3.1-0.3,3.4-0.5,3.4-3.4V28.3c0-3-0.4-3.2-2.8-3.4v-1.2
			h10.9c3.5,0,4.7,0,5.2-0.1c0,0.7,0.2,3.4,0.3,5.4l-1.2,0.2c-0.3-1.2-0.8-2.3-1.3-3c-0.6-0.8-1.2-1.1-3-1.1h-2.6
			c-1.2,0-1.3,0.1-1.3,1.2v7.3h3.5c2.1,0,2.4-0.5,2.9-2.9h1.2v7.4h-1.2c-0.5-2.5-0.8-2.9-2.9-2.9h-3.5v6.2c0,2.4,0.3,2.9,2.3,2.9
			h2.7c2,0,2.4-0.3,3.2-1.2c0.8-0.9,1.5-2.2,2-3.3L225.8,40.3z"/>
		<path class="st0" d="M249.2,33.8c3.5,0.6,6.1,2.3,6.1,5.6c0,2.2-1.3,4.1-3.3,5.2c-1.8,1-3.8,1.4-6.3,1.4h-9.2v-1.2
			c2.7-0.3,3-0.5,3-3.3V28.2c0-2.9-0.4-3.1-2.9-3.3v-1.2h9.9c2.6,0,4.2,0.4,5.5,1.2c1.2,0.8,2.1,2.1,2.1,3.8
			C254,31.7,251.3,33.4,249.2,33.8z M245,33.4c3.4,0,4.7-1.4,4.7-4.1c0-2.8-1.8-4.2-4.2-4.2c-0.9,0-1.4,0.1-1.7,0.3
			c-0.3,0.2-0.4,0.6-0.4,1.4v6.5H245z M243.5,41.5c0,2.5,0.9,3.2,3,3.1c2.2,0,4.3-1.6,4.3-4.9c0-3.4-2-4.9-5.9-4.9h-1.4V41.5z"/>
		<path class="st0" d="M274.2,45.2c-1.9,0.3-4,0.7-6.1,1.2c0-0.7,0-1.6,0-2.4c-1.6,1.3-3,2.4-4.9,2.4c-2.7,0-4.4-1.7-4.4-5v-6.9
			c0-1.7-0.2-1.9-1.1-2.1l-0.8-0.2v-1c1.6-0.1,4.2-0.3,5.9-0.6c-0.1,1.3-0.1,3.1-0.1,5.1v4.9c0,2.5,1.3,3.3,2.6,3.3
			c1.1,0,2-0.3,2.9-1.2v-8.2c0-1.7-0.3-1.9-1.3-2.1l-1.1-0.2v-1c2.1-0.1,4.8-0.4,6.2-0.6v11.3c0,1.8,0.2,2.1,1.4,2.2l0.8,0.1V45.2z"
			/>
		<path class="st0" d="M284.6,35.2c-0.8-2.3-1.9-3.4-3.6-3.4c-1,0-1.9,0.7-1.9,2c0,1.3,0.9,2,2.7,2.8c2.8,1.3,4.6,2.4,4.6,5
			c0,3.3-3.1,5-6,5c-1.8,0-3.5-0.6-4.3-1c-0.1-0.9-0.5-3.1-0.6-4.2l1.1-0.2c0.7,2.2,2,4.1,4.3,4.1c1.3,0,2.1-0.8,2.1-2
			c0-1.2-0.7-2-2.7-3c-2.3-1.1-4.4-2.3-4.4-5c0-2.6,2.2-4.7,5.7-4.7c1.6,0,2.8,0.3,3.6,0.5c0.1,0.9,0.4,3.1,0.5,4L284.6,35.2z"/>
		<path class="st0" d="M287.9,46v-1.1c2-0.2,2.2-0.4,2.2-2.8v-6.8c0-2.2-0.1-2.4-1.9-2.6v-1c2-0.3,4-0.7,5.7-1.3c0,1.4,0,2.9,0,4.3
			v7.5c0,2.3,0.2,2.5,2.2,2.8V46H287.9z M291.7,27.9c-1.2,0-2.2-1-2.2-2.2c0-1.3,1.1-2.2,2.3-2.2c1.2,0,2.2,0.9,2.2,2.2
			C294,26.9,293,27.9,291.7,27.9z"/>
		<path class="st0" d="M307.1,46v-1.1c1.6-0.2,1.8-0.4,1.8-2.7v-5.8c0-2.4-1.1-3.5-2.6-3.5c-1.1,0-2,0.5-3,1.3v8.2
			c0,2.2,0.2,2.3,1.8,2.5V46h-7.7v-1.1c1.9-0.3,2.2-0.4,2.2-2.6v-7.1c0-2.1-0.3-2.2-1.9-2.5v-1c1.9-0.3,4-0.7,5.7-1.3
			c0,0.6,0,1.7,0,2.5c0.7-0.5,1.4-1,2.2-1.5c1-0.6,1.7-0.9,2.7-0.9c2.8,0,4.5,2,4.5,5.5v6.5c0,2.2,0.2,2.3,2,2.5V46H307.1z"/>
		<path class="st0" d="M329.3,42.8c-2.1,3-4.7,3.6-6.1,3.6c-4.4,0-7-3.4-7-7.4c0-2.4,1-4.7,2.4-6.1c1.5-1.6,3.4-2.4,5.3-2.4
			c3.2,0,5.5,2.7,5.5,5.5c0,0.6-0.1,1.1-0.5,1.2c-0.7,0.2-5.3,0.4-8.9,0.6c0.1,4,2.3,5.8,4.8,5.8c1.4,0,2.7-0.5,3.9-1.6L329.3,42.8z
			 M323.2,31.8c-1.4,0-2.7,1.6-3,4.3c1.6,0,3.1,0,4.7-0.1c0.5,0,0.7-0.1,0.7-0.7C325.6,33.6,324.7,31.8,323.2,31.8z"/>
		<path class="st0" d="M340.3,35.2c-0.8-2.3-1.9-3.4-3.6-3.4c-1,0-1.9,0.7-1.9,2c0,1.3,0.9,2,2.7,2.8c2.8,1.3,4.6,2.4,4.6,5
			c0,3.3-3.1,5-6,5c-1.8,0-3.5-0.6-4.3-1c-0.1-0.9-0.5-3.1-0.6-4.2l1.1-0.2c0.7,2.2,2,4.1,4.3,4.1c1.3,0,2.1-0.8,2.1-2
			c0-1.2-0.7-2-2.7-3c-2.3-1.1-4.4-2.3-4.4-5c0-2.6,2.2-4.7,5.7-4.7c1.6,0,2.8,0.3,3.6,0.5c0.1,0.9,0.4,3.1,0.5,4L340.3,35.2z"/>
		<path class="st0" d="M353,35.2c-0.8-2.3-1.9-3.4-3.6-3.4c-1,0-1.9,0.7-1.9,2c0,1.3,0.9,2,2.7,2.8c2.8,1.3,4.6,2.4,4.6,5
			c0,3.3-3.1,5-6,5c-1.8,0-3.5-0.6-4.3-1c-0.1-0.9-0.5-3.1-0.6-4.2L345,41c0.7,2.2,2,4.1,4.3,4.1c1.3,0,2.1-0.8,2.1-2
			c0-1.2-0.7-2-2.7-3c-2.3-1.1-4.4-2.3-4.4-5c0-2.6,2.2-4.7,5.7-4.7c1.6,0,2.8,0.3,3.6,0.5c0.1,0.9,0.4,3.1,0.5,4L353,35.2z"/>
		<path class="st0" d="M377.6,29.2c-0.6-2.2-1.6-4.6-4.8-4.6c-2.2,0-3.4,1.6-3.4,3.5c0,2.1,1.4,3.2,4.3,4.7c3.8,1.9,6,3.6,6,7
			c0,3.9-3.3,6.8-8,6.8c-2.1,0-4-0.6-5.6-1.1c-0.2-0.8-0.8-4-1-5.7l1.2-0.3c0.7,2.2,2.5,5.7,5.9,5.7c2.2,0,3.6-1.4,3.6-3.6
			c0-2.2-1.3-3.3-4.2-4.9c-3.6-1.9-5.8-3.6-5.8-7c0-3.4,2.7-6.3,7.6-6.3c2.2,0,4,0.5,4.8,0.6c0.1,1.3,0.3,2.9,0.6,5.1L377.6,29.2z"
			/>
		<path class="st0" d="M394.8,42.8c-1.6,2.2-3.8,3.6-5.9,3.6c-4.6,0-7.3-3.5-7.3-7.3c0-2.6,1.3-4.9,3.5-6.6c2.1-1.6,4.2-2.1,5.7-2.1
			c1.4,0,2.5,0.4,3.1,0.9c0.5,0.4,0.6,0.7,0.6,1.2c0,0.9-0.9,1.8-1.4,1.8c-0.2,0-0.4-0.1-0.7-0.4c-1.3-1.1-2.5-1.7-3.5-1.7
			c-1.7,0-3.4,1.5-3.4,5.2c0,4.6,3.3,6.1,4.9,6.1c1.4,0,2.5-0.4,3.8-1.6L394.8,42.8z"/>
		<path class="st0" d="M404.9,46v-1.1c1.7-0.2,1.8-0.4,1.8-2.4v-5.9c0-2.7-1.1-3.8-2.8-3.8c-1,0-2,0.4-2.9,1.3v8.4
			c0,2,0.2,2.2,1.9,2.4V46h-7.9v-1.1c1.8-0.2,2.1-0.3,2.1-2.5V26.3c0-1.7-0.2-2.1-2.2-2.3v-1c2.3-0.2,4.5-0.7,6-1.2c0,1.3,0,2.7,0,4
			v7c1.2-1.2,3-2.3,4.7-2.3c2.9,0,4.8,1.9,4.8,5.8v6.2c0,2.2,0.3,2.3,2,2.5V46H404.9z"/>
		<path class="st0" d="M422,30.4c4.6,0,7.7,3.5,7.7,7.7c0,5.5-4,8.2-7.8,8.2c-5,0-7.9-3.9-7.9-7.8C414,33.2,418.3,30.4,422,30.4z
			 M421.6,31.7c-1.7,0-3.3,1.7-3.3,5.8c0,4.3,1.6,7.5,4,7.5c1.6,0,3.1-1.1,3.1-6C425.4,34.6,424,31.7,421.6,31.7z"/>
		<path class="st0" d="M439.6,30.4c4.6,0,7.7,3.5,7.7,7.7c0,5.5-4,8.2-7.8,8.2c-5,0-7.9-3.9-7.9-7.8
			C431.6,33.2,435.9,30.4,439.6,30.4z M439.2,31.7c-1.7,0-3.3,1.7-3.3,5.8c0,4.3,1.6,7.5,4,7.5c1.6,0,3.1-1.1,3.1-6
			C443,34.6,441.6,31.7,439.2,31.7z"/>
		<path class="st0" d="M448.6,46v-1.1c2-0.3,2.2-0.4,2.2-2.6V26.4c0-1.9-0.2-2.1-2.1-2.4v-1c2.2-0.2,4.5-0.7,5.9-1.2
			c0,1.6,0,3.1,0,4.7v15.8c0,2.3,0.1,2.4,2.2,2.6V46H448.6z"/>
		<path class="st0" d="M134.9,57.3c0,1.4,0.1,3.3,0.3,5.3l-1.1,0.1c-0.3-1.3-0.9-2.5-1.3-3c-0.6-0.7-0.8-1-2.7-1h-2.5v15.4
			c0,2.6,0.3,2.9,3.2,3.1v1.1h-10.3v-1.1c2.8-0.2,3.1-0.5,3.1-3.1V58.7h-2.3c-1.8,0-2.3,0.3-2.9,1.1c-0.4,0.6-0.8,1.7-1.2,2.9h-1.1
			c0.2-2.2,0.4-3.8,0.5-5.4c0,0,1.7,0,2.7,0h12.9H134.9z"/>
		<path class="st0" d="M146.1,75.2c-2,2.8-4.5,3.4-5.7,3.4c-4.2,0-6.6-3.2-6.6-7c0-2.2,1-4.4,2.3-5.8c1.4-1.5,3.2-2.3,5-2.3
			c3,0,5.2,2.5,5.2,5.2c0,0.6-0.1,1-0.5,1.1c-0.6,0.2-5,0.4-8.4,0.5c0,3.7,2.2,5.5,4.5,5.5c1.3,0,2.5-0.5,3.7-1.5L146.1,75.2z
			 M140.4,64.9c-1.4,0-2.6,1.5-2.9,4c1.5,0,2.9,0,4.5-0.1c0.5,0,0.7-0.1,0.7-0.6C142.7,66.5,141.8,64.9,140.4,64.9z"/>
		<path class="st0" d="M160.5,75.2c-1.5,2-3.6,3.4-5.6,3.4c-4.3,0-6.9-3.3-6.9-6.9c0-2.4,1.2-4.7,3.3-6.2c2-1.5,4-1.9,5.4-1.9
			c1.3,0,2.3,0.4,2.9,0.8c0.5,0.3,0.6,0.7,0.6,1.1c0,0.9-0.9,1.7-1.4,1.7c-0.2,0-0.4-0.1-0.7-0.3c-1.3-1.1-2.3-1.6-3.3-1.6
			c-1.6,0-3.2,1.4-3.2,4.9c0,4.4,3.1,5.8,4.7,5.8c1.3,0,2.3-0.4,3.6-1.5L160.5,75.2z"/>
		<path class="st0" d="M170.5,78.3v-1c1.5-0.2,1.7-0.4,1.7-2.6v-5.5c0-2.3-1-3.3-2.5-3.3c-1,0-1.9,0.5-2.8,1.2v7.7
			c0,2.1,0.2,2.2,1.7,2.4v1h-7.3v-1c1.8-0.3,2-0.3,2-2.4v-6.7c0-2-0.2-2.1-1.8-2.4v-1c1.8-0.2,3.8-0.7,5.4-1.2c0,0.6,0,1.6,0,2.4
			c0.6-0.5,1.3-0.9,2.1-1.4c0.9-0.6,1.6-0.9,2.6-0.9c2.6,0,4.2,1.9,4.2,5.1v6.1c0,2.1,0.2,2.2,1.9,2.4v1H170.5z"/>
		<path class="st0" d="M186.6,63.6c4.4,0,7.3,3.3,7.3,7.3c0,5.2-3.8,7.8-7.4,7.8c-4.7,0-7.5-3.6-7.5-7.4
			C179.1,66.2,183.2,63.6,186.6,63.6z M186.3,64.8c-1.6,0-3.1,1.6-3.1,5.5c0,4,1.5,7.1,3.7,7.1c1.5,0,2.9-1.1,2.9-5.7
			C189.8,67.5,188.5,64.8,186.3,64.8z"/>
		<path class="st0" d="M195.2,78.3v-1c1.9-0.3,2.1-0.4,2.1-2.5v-15c0-1.8-0.2-2-2-2.3v-1c2.1-0.2,4.2-0.6,5.6-1.1c0,1.5,0,3,0,4.5
			v14.9c0,2.1,0.1,2.3,2.1,2.5v1H195.2z"/>
		<path class="st0" d="M211.7,63.6c4.4,0,7.3,3.3,7.3,7.3c0,5.2-3.8,7.8-7.4,7.8c-4.7,0-7.5-3.6-7.5-7.4
			C204.1,66.2,208.2,63.6,211.7,63.6z M211.3,64.8c-1.6,0-3.1,1.6-3.1,5.5c0,4,1.5,7.1,3.7,7.1c1.5,0,2.9-1.1,2.9-5.7
			C214.9,67.5,213.6,64.8,211.3,64.8z M210.2,61.2l3.2-5.1c0.5-0.2,3.1-0.2,3.6-0.2l0.1,0.4l-6.1,5.4L210.2,61.2z"/>
		<path class="st0" d="M225.4,73.3c-0.5,0.4-0.8,0.9-0.8,1.3c0,0.5,0.6,1.2,1.9,1.2c1.1,0,2.6,0,3.6,0c2,0,4.8,0.8,4.8,3.9
			c0,3.5-4.3,6.5-8.6,6.5c-4,0-6-2.1-6-3.9c0-0.8,0.3-1.3,0.9-1.8c0.8-0.6,1.8-1.4,2.5-1.9c-1.2-0.4-2-1.1-2.4-1.8
			c-0.4-0.5-0.5-1.2-0.5-1.6c1.4-0.6,2.7-1.5,3.3-2.3L225.4,73.3z M227,73.7c-3.4,0-5.9-1.9-5.9-4.9c0-3.6,3.3-5.2,6.1-5.2
			c1.3,0,2.3,0.3,3.5,0.8c1.4,0,3.6-0.2,4.4-0.5l0.2,0.3c-0.2,0.6-0.6,1.6-1.2,1.9c-0.5,0-1.5-0.1-1.9-0.2c0.5,0.6,0.8,1.5,0.8,2.7
			C232.9,72,230,73.7,227,73.7z M227.5,78.8c-1.6,0-2.4,0.2-2.9,0.6c-0.7,0.6-1.1,1.3-1.1,2.1c0,1.7,1.7,3.1,4.4,3.1
			c2.7,0,4.3-1.3,4.3-3.2c0-1.2-0.7-2-1.7-2.3C229.6,78.9,228.7,78.8,227.5,78.8z M227,64.7c-1.2,0-2.3,1.2-2.3,3.7
			c0,2.3,0.9,4.1,2.5,4.1c1.3,0,2.2-1.3,2.2-3.7C229.5,66.6,228.6,64.7,227,64.7z"/>
		<path class="st0" d="M235.8,78.3v-1c1.8-0.2,2-0.4,2-2.6v-6.4c0-2.1-0.1-2.2-1.8-2.5v-1c1.9-0.2,3.8-0.7,5.4-1.2c0,1.4,0,2.7,0,4
			v7c0,2.2,0.2,2.4,2.1,2.6v1H235.8z M239.4,61.2c-1.1,0-2.1-1-2.1-2.1c0-1.2,1-2.1,2.1-2.1c1.2,0,2.1,0.9,2.1,2.1
			C241.6,60.2,240.6,61.2,239.4,61.2z"/>
		<path class="st0" d="M257.2,75.2c-1.5,2-3.6,3.4-5.6,3.4c-4.3,0-6.9-3.3-6.9-6.9c0-2.4,1.2-4.7,3.3-6.2c2-1.5,4-1.9,5.4-1.9
			c1.3,0,2.3,0.4,2.9,0.8c0.5,0.3,0.6,0.7,0.6,1.1c0,0.9-0.9,1.7-1.4,1.7c-0.2,0-0.4-0.1-0.7-0.3c-1.3-1.1-2.3-1.6-3.3-1.6
			c-1.6,0-3.2,1.4-3.2,4.9c0,4.4,3.1,5.8,4.7,5.8c1.3,0,2.3-0.4,3.6-1.5L257.2,75.2z"/>
		<path class="st0" d="M265.7,63.6c4.4,0,7.3,3.3,7.3,7.3c0,5.2-3.8,7.8-7.4,7.8c-4.7,0-7.5-3.6-7.5-7.4
			C258.2,66.2,262.2,63.6,265.7,63.6z M265.3,64.8c-1.6,0-3.1,1.6-3.1,5.5c0,4,1.5,7.1,3.7,7.1c1.5,0,2.9-1.1,2.9-5.7
			C268.9,67.5,267.6,64.8,265.3,64.8z"/>
		<path class="st0" d="M297.5,77.4c-0.7,0.1-3.5,0.5-5.9,1.2c0-0.6,0-1.3,0-2c-0.6,0.4-1.4,0.8-2,1.2c-1,0.6-1.6,0.7-1.9,0.7
			c-2.7,0-6.4-2.4-6.4-7.1c0-4.4,3.9-7.9,8.7-7.9c0.3,0,1,0,1.6,0.2v-4.1c0-1.8-0.2-2-2.3-2.2v-1c1.9-0.2,4.4-0.7,5.9-1.1
			c0,1.2,0,2.5,0,3.8v15c0,1.7,0.2,1.9,1.4,2l0.8,0.1V77.4z M291.7,66.6c-0.5-1-1.5-1.6-2.8-1.6c-1.2,0-3.6,0.8-3.6,5.5
			c0,4.1,2.4,5.8,4,5.9c0.8,0,1.5-0.3,2.3-0.8V66.6z"/>
		<path class="st0" d="M310.9,75.2c-2,2.8-4.5,3.4-5.7,3.4c-4.2,0-6.6-3.2-6.6-7c0-2.2,1-4.4,2.3-5.8c1.4-1.5,3.2-2.3,5-2.3
			c3,0,5.2,2.5,5.2,5.2c0,0.6-0.1,1-0.5,1.1c-0.6,0.2-5,0.4-8.4,0.5c0,3.7,2.2,5.5,4.5,5.5c1.3,0,2.5-0.5,3.7-1.5L310.9,75.2z
			 M305.1,64.9c-1.4,0-2.6,1.5-2.9,4c1.5,0,2.9,0,4.5-0.1c0.5,0,0.7-0.1,0.7-0.6C307.5,66.5,306.6,64.9,305.1,64.9z"/>
		<path class="st0" d="M336.6,78.3v-1.1c2.5-0.3,2.7-0.5,2.6-3.6l0-12.8c-2.4,5.7-5.6,12.9-7.5,17.5h-1c-1.7-4.4-4.5-11.5-6.9-17.2
			c-0.5,10.5-0.5,12.7-0.5,13.7c0,1.8,0.7,2.1,3.1,2.4v1.1h-7.9v-1.1c1.9-0.2,2.7-0.5,2.9-2.4c0.2-1.1,0.2-2.7,1-13.8
			c0.1-1.6-0.2-2.4-3-2.6v-1.1h6.5l6.5,15l6.7-15h6.4v1.1c-2.6,0.3-3,0.6-2.9,3l0.2,12.2c0.1,3.1,0.2,3.2,2.9,3.6v1.1H336.6z"/>
		<path class="st0" d="M354.4,63.6c4.4,0,7.3,3.3,7.3,7.3c0,5.2-3.8,7.8-7.4,7.8c-4.7,0-7.5-3.6-7.5-7.4
			C346.8,66.2,350.9,63.6,354.4,63.6z M354,64.8c-1.6,0-3.1,1.6-3.1,5.5c0,4,1.5,7.1,3.7,7.1c1.5,0,2.9-1.1,2.9-5.7
			C357.6,67.5,356.3,64.8,354,64.8z"/>
		<path class="st0" d="M372.4,78.3v-1c1.5-0.2,1.7-0.4,1.7-2.6v-5.5c0-2.3-1-3.3-2.5-3.3c-1,0-1.9,0.5-2.8,1.2v7.7
			c0,2.1,0.2,2.2,1.7,2.4v1h-7.3v-1c1.8-0.3,2-0.3,2-2.4v-6.7c0-2-0.2-2.1-1.8-2.4v-1c1.8-0.2,3.8-0.7,5.4-1.2c0,0.6,0,1.6,0,2.4
			c0.6-0.5,1.3-0.9,2.1-1.4c0.9-0.6,1.6-0.9,2.6-0.9c2.6,0,4.2,1.9,4.2,5.1v6.1c0,2.1,0.2,2.2,1.9,2.4v1H372.4z"/>
		<path class="st0" d="M387.1,78.3c-0.5,0.3-1.1,0.4-1.3,0.4c-2.3,0-3.7-1.2-3.7-4v-9.1H380l-0.2-0.4l0.9-1.1h1.4v-2.7
			c0.9-0.7,2.3-1.7,3.2-2.4l0.4,0.2c0,1-0.1,2.8-0.1,4.9h3.4c0.3,0.3,0.2,1.2-0.2,1.5h-3.2v8c0,2.6,1,2.9,1.7,2.9
			c0.6,0,1.2-0.2,1.7-0.4l0.3,1L387.1,78.3z"/>
		<path class="st0" d="M402.2,75.2c-2,2.8-4.5,3.4-5.7,3.4c-4.2,0-6.6-3.2-6.6-7c0-2.2,1-4.4,2.3-5.8c1.4-1.5,3.2-2.3,5-2.3
			c3,0,5.2,2.5,5.2,5.2c0,0.6-0.1,1-0.5,1.1c-0.6,0.2-5,0.4-8.4,0.5c0,3.7,2.2,5.5,4.5,5.5c1.3,0,2.5-0.5,3.7-1.5L402.2,75.2z
			 M396.4,64.9c-1.4,0-2.6,1.5-2.9,4c1.5,0,2.9,0,4.5-0.1c0.5,0,0.7-0.1,0.7-0.6C398.8,66.5,397.9,64.9,396.4,64.9z"/>
		<path class="st0" d="M411.8,78.3h-8.1v-1c1.8-0.2,2-0.4,2-2.3v-6.9c0-1.8-0.1-1.9-1.8-2.2v-0.9c1.9-0.2,3.5-0.6,5.4-1.3
			c0,1.1,0,2.5,0,3.5c1.3-2,2.6-3.4,4-3.4c1.2,0,2,0.8,2,1.8c0,1.3-0.9,2.1-1.5,2.4c-0.4,0.2-0.7,0.1-0.9-0.1
			c-0.5-0.5-0.9-0.9-1.5-0.9c-0.6,0-1.5,0.6-2.1,2v6.1c0,2,0.2,2.1,2.5,2.4V78.3z"/>
		<path class="st0" d="M424.2,78.3h-8.1v-1c1.8-0.2,2-0.4,2-2.3v-6.9c0-1.8-0.1-1.9-1.8-2.2v-0.9c1.9-0.2,3.5-0.6,5.4-1.3
			c0,1.1,0,2.5,0,3.5c1.3-2,2.6-3.4,4-3.4c1.2,0,2,0.8,2,1.8c0,1.3-0.9,2.1-1.5,2.4c-0.4,0.2-0.7,0.1-0.9-0.1
			c-0.5-0.5-0.9-0.9-1.5-0.9c-0.6,0-1.5,0.6-2.1,2v6.1c0,2,0.2,2.1,2.5,2.4V78.3z"/>
		<path class="st0" d="M440.6,75.2c-2,2.8-4.5,3.4-5.7,3.4c-4.2,0-6.6-3.2-6.6-7c0-2.2,1-4.4,2.3-5.8c1.4-1.5,3.2-2.3,5-2.3
			c3,0,5.2,2.5,5.2,5.2c0,0.6-0.1,1-0.5,1.1c-0.6,0.2-5,0.4-8.4,0.5c0,3.7,2.2,5.5,4.5,5.5c1.3,0,2.5-0.5,3.7-1.5L440.6,75.2z
			 M434.8,64.9c-1.4,0-2.6,1.5-2.9,4c1.5,0,2.9,0,4.5-0.1c0.5,0,0.7-0.1,0.7-0.6C437.1,66.5,436.3,64.9,434.8,64.9z"/>
		<path class="st0" d="M457.2,65c-1.6,0.2-1.9,0.5-2.7,2.3c-0.8,1.7-1.7,4.1-3.7,8.9c-2.2,5.2-2.8,7.3-3.3,9.1
			c-0.2,0.7-0.6,0.9-1.1,0.9c-1.2,0-2.3-0.9-2.3-1.9c0-0.5,0.2-0.8,0.8-1.2c1.2-0.7,2-1.4,2.5-2.3c0.4-0.8,0.8-1.8,1-2.2
			c0.1-0.5,0.1-0.8-0.1-1.3c-1.5-4.3-3.5-8.6-4.2-10.3c-0.6-1.5-1-1.9-2.6-2.1v-1h7.5v1c-1.4,0.2-1.6,0.5-1.2,1.6l2.7,7.2
			c0.8-1.9,2-5.1,2.6-7c0.3-1.1,0-1.5-1.7-1.8v-1h5.9V65z"/>
	</g>
	<path class="st0" d="M50.3,2.5C24.2,2.5,3,23.7,3,49.8c0,24,17.9,43.8,41.1,46.9v-7.3h0.4c-15.2-1.8-20.9-10.8-20.9-10.8h52.9
		c-0.8,1.1-5.8,9.1-20.6,10.8h0.1v7.4C79.3,93.9,97.5,74,97.5,49.8C97.5,23.7,76.4,2.5,50.3,2.5z M24,61
		c-10.4-10.8-3.9-19.9-0.5-24.1C26.8,32.8,40.9,20.7,46,15c5.1-5.7,3.9-10.7,3.9-10.7c7.2,5.3,5.2,11,0.8,15.7
		c-4.4,4.7-20.5,19-25.2,25.6C20.8,52.3,24,61,24,61z M32.7,42.5c5.8-5.5,19.2-18.7,24.8-24.3s5.6-10.6,5.6-10.6
		c3,3.6,5.7,8.3-0.5,15.2c-6.2,6.9-22.3,21.4-27.9,27.8c-5.6,6.4-5.2,12.3-5.2,12.3C24.9,56.2,26.9,48,32.7,42.5z M38.4,75.9
		c-9-7.6-4.4-19.9,3.2-27.2c7.6-7.2,14.7-14.2,21.1-20.4s6.2-9.1,6.2-9.1c2.4,7.1,2,9.8-4.4,16.9C58.2,43.1,53,46.8,44.1,56.5
		S38.4,75.9,38.4,75.9z M76.3,54.1C70.6,59.8,64.1,65.3,61.7,70c-2.4,4.7-2,6-2,6C55,69,59,61.5,62.2,58.3c3.2-3.2,9-8.8,12.3-11.7
		s5-6,5-6S82,48.4,76.3,54.1z M75.6,40.1c-5.3,5.5-6,5.9-11,10.8S55.7,59.6,51.9,65c-3.8,5.4-3,10.9-3,10.9
		c-7.5-8.8-2.7-16.5,1.4-20.7c4.1-4.2,19-17.8,24.2-23.6c5.3-5.9,5.3-7.9,5.3-7.9C82.6,31.7,80.8,34.6,75.6,40.1z"/>
</g>
</svg>
