<?xml version="1.0" encoding="utf-8"?>
<!-- Generator: Adobe Illustrator 25.0.1, SVG Export Plug-In . SVG Version: 6.00 Build 0)  -->
<svg version="1.1" id="Capa_1" xmlns="http://www.w3.org/2000/svg" xmlns:xlink="http://www.w3.org/1999/xlink" x="0px" y="0px"
	 viewBox="0 0 851.8 133" style="enable-background:new 0 0 851.8 133;" xml:space="preserve">
<style type="text/css">
	.st0{fill:#FFFFFF;}
	.st1{fill:none;stroke:#FFFFFF;stroke-width:2;stroke-miterlimit:10;}
</style>
<g>
	<g>
		<path class="st0" d="M508.1,35.4c0,0.7,0.2,1.4,0.5,2.1c0.3,0.5,0.7,1,1.2,1.4c0.5,0.4,1,0.6,1.6,0.8c0.6,0.2,1.3,0.3,1.9,0.3
			c0.7,0,1.4-0.1,2.1-0.3c0.5-0.2,1-0.5,1.5-0.8c0.4-0.3,0.7-0.8,0.8-1.2c0.2-0.5,0.3-1,0.3-1.5c0-0.6-0.1-1.2-0.5-1.7
			c-0.3-0.5-0.8-0.8-1.3-1.1c-0.6-0.3-1.2-0.5-1.8-0.7c-0.7-0.2-1.4-0.3-2.1-0.5c-0.7-0.2-1.4-0.4-2.1-0.6c-0.6-0.2-1.3-0.5-1.8-0.9
			c-0.5-0.4-1-0.9-1.3-1.4c-0.3-0.7-0.5-1.5-0.5-2.3c0-0.6,0.1-1.3,0.4-1.9c0.3-0.6,0.7-1.2,1.2-1.6c0.6-0.5,1.2-0.9,1.9-1.1
			c0.9-0.3,1.8-0.4,2.7-0.4c0.9,0,1.9,0.1,2.7,0.4c0.7,0.3,1.4,0.7,1.9,1.2c0.5,0.5,0.9,1.1,1.2,1.8c0.3,0.7,0.4,1.4,0.4,2.1h-1.7
			c0-0.6-0.1-1.3-0.4-1.8c-0.2-0.5-0.6-0.9-1-1.3c-0.4-0.3-0.9-0.6-1.5-0.7c-0.6-0.2-1.1-0.2-1.7-0.2c-0.8,0-1.5,0.1-2.3,0.4
			c-0.5,0.2-1,0.5-1.4,1c-0.3,0.4-0.6,0.8-0.7,1.3c-0.1,0.5-0.2,1-0.1,1.4c0.1,0.5,0.3,1.1,0.7,1.4c0.4,0.4,0.9,0.7,1.4,0.9
			c0.6,0.2,1.2,0.4,1.8,0.6l2,0.5c0.7,0.2,1.4,0.4,1.9,0.6c0.6,0.2,1.2,0.5,1.7,0.9c0.5,0.4,0.9,0.9,1.2,1.5
			c0.3,0.7,0.5,1.5,0.4,2.2c0.1,1.5-0.6,3-1.8,4c-1.5,1-3.2,1.5-5,1.4c-0.9,0-1.8-0.1-2.7-0.4c-0.8-0.2-1.5-0.6-2.1-1.1
			c-0.6-0.5-1.1-1.2-1.4-1.9c-0.3-0.8-0.5-1.7-0.5-2.6L508.1,35.4z"/>
		<path class="st0" d="M531.4,27.5h1.6v13.3h-1.5V39c-0.2,0.2-0.4,0.5-0.7,0.7c-0.3,0.3-0.6,0.5-0.9,0.7c-0.8,0.5-1.7,0.7-2.7,0.7
			c-0.8,0-1.5-0.1-2.2-0.4c-0.6-0.2-1.1-0.6-1.4-1c-0.4-0.5-0.6-1-0.8-1.6c-0.2-0.6-0.3-1.3-0.2-1.9v-8.7h1.5v8.7
			c-0.1,1,0.2,1.9,0.8,2.6c0.7,0.7,1.7,1,2.6,0.9c0.6,0,1.2-0.1,1.7-0.4c0.5-0.2,0.9-0.6,1.3-1c0.4-0.5,0.6-1,0.8-1.6
			c0.2-0.7,0.3-1.3,0.3-2L531.4,27.5z"/>
		<path class="st0" d="M537,36.7c0.1,0.9,0.6,1.8,1.3,2.4c0.8,0.5,1.7,0.8,2.7,0.7c0.5,0,1-0.1,1.5-0.2c0.4-0.1,0.7-0.3,1-0.6
			c0.3-0.2,0.5-0.5,0.6-0.8c0.1-0.3,0.2-0.6,0.2-0.9c0-0.6-0.2-1.1-0.6-1.5c-0.5-0.3-1-0.6-1.6-0.7c-0.7-0.2-1.4-0.3-2.1-0.5
			c-0.7-0.1-1.4-0.3-2.1-0.6c-0.6-0.2-1.2-0.6-1.6-1.1c-0.5-0.6-0.7-1.3-0.6-2c0-1.1,0.4-2.1,1.2-2.7c1-0.8,2.2-1.1,3.5-1.1
			c1.2-0.1,2.5,0.3,3.5,1c1,0.8,1.6,2,1.6,3.2H544c0-0.9-0.5-1.7-1.2-2.2c-0.7-0.4-1.6-0.7-2.4-0.6c-0.8-0.1-1.6,0.2-2.2,0.6
			c-0.5,0.4-0.8,1-0.8,1.7c0,0.5,0.2,1,0.6,1.4c0.5,0.4,1,0.6,1.6,0.8c0.6,0.2,1.3,0.4,2.1,0.5c0.7,0.1,1.4,0.4,2.1,0.7
			c0.6,0.3,1.1,0.6,1.6,1.1c0.4,0.6,0.7,1.3,0.6,2c0,0.6-0.1,1.2-0.4,1.7c-0.3,0.5-0.7,0.9-1.1,1.2c-0.5,0.3-1.1,0.6-1.7,0.7
			c-0.7,0.2-1.4,0.2-2.2,0.2c-0.7,0-1.4-0.1-2.1-0.3c-1.2-0.4-2.1-1.3-2.6-2.4c-0.2-0.6-0.4-1.2-0.4-1.8L537,36.7z"/>
		<path class="st0" d="M553.2,40.9c-0.2,0-0.4,0.1-0.7,0.2c-0.3,0.1-0.7,0.1-1,0.1c-0.6,0-1.3-0.2-1.8-0.6c-0.5-0.6-0.7-1.3-0.6-2.1
			v-9.7h-1.9v-1.3h1.9v-3.7h1.5v3.7h2.5v1.3h-2.5V38c0,0.3,0,0.6,0,0.8c0,0.2,0.1,0.4,0.2,0.6c0.1,0.2,0.2,0.3,0.4,0.3
			c0.2,0.1,0.5,0.1,0.8,0.1c0.2,0,0.4,0,0.6,0c0.2,0,0.4-0.1,0.6-0.1L553.2,40.9z"/>
		<path class="st0" d="M561.3,33.1c0.3,0,0.6-0.1,1-0.2c0.3-0.1,0.7-0.1,1-0.3c0.2-0.1,0.4-0.3,0.5-0.6c0.1-0.3,0.1-0.5,0.1-0.8
			c0-0.7-0.2-1.4-0.8-1.9c-0.7-0.6-1.6-0.8-2.6-0.8c-0.5,0-1,0-1.5,0.1c-0.4,0.1-0.8,0.2-1.2,0.5c-0.3,0.2-0.6,0.6-0.8,0.9
			c-0.2,0.5-0.4,0.9-0.4,1.5h-1.6c0-0.7,0.2-1.4,0.5-2c0.3-0.5,0.7-1,1.2-1.4c0.5-0.4,1.1-0.6,1.7-0.8c0.7-0.2,1.4-0.2,2.1-0.2
			c0.7,0,1.3,0.1,1.9,0.2c0.6,0.1,1.1,0.4,1.5,0.7c0.4,0.3,0.8,0.8,1,1.3c0.3,0.6,0.4,1.3,0.4,1.9v7.3c0,0.6,0.1,1,0.3,1.1
			c0.2,0.2,0.6,0.1,1.3-0.1v1.2l-0.5,0.2c-0.2,0.1-0.4,0.1-0.7,0.1c-0.2,0-0.5,0-0.7-0.1c-0.2,0-0.4-0.1-0.6-0.2
			c-0.2-0.1-0.3-0.3-0.4-0.5c-0.1-0.2-0.2-0.4-0.2-0.6c0-0.2,0-0.5,0-0.7c-0.6,0.7-1.4,1.3-2.2,1.7c-0.9,0.4-1.8,0.6-2.7,0.6
			c-0.6,0-1.1-0.1-1.7-0.2c-0.5-0.1-1-0.4-1.4-0.7c-0.4-0.3-0.7-0.7-1-1.2c-0.2-0.5-0.4-1.1-0.4-1.7c0-2.3,1.6-3.6,4.7-4L561.3,33.1
			z M563.9,33.9c-0.6,0.3-1.3,0.4-1.9,0.5c-0.6,0.1-1.3,0.2-2,0.2c-1,0-1.9,0.3-2.8,0.8c-0.7,0.5-1,1.2-1,2c0,0.4,0.1,0.7,0.2,1.1
			c0.2,0.3,0.4,0.5,0.6,0.7c0.3,0.2,0.6,0.4,1,0.4c0.3,0.1,0.7,0.1,1.1,0.1c0.6,0,1.2-0.1,1.8-0.2c0.6-0.1,1.1-0.4,1.6-0.7
			c0.5-0.3,0.8-0.7,1.1-1.2c0.3-0.5,0.4-1.1,0.4-1.7L563.9,33.9z"/>
		<path class="st0" d="M569.1,24.7v-2.3h1.7v2.3H569.1z M569.2,40.9V27.5h1.5v13.3L569.2,40.9z"/>
		<path class="st0" d="M575.7,40.9h-1.5V27.5h1.5v1.9c0.6-0.6,1.2-1.1,1.9-1.6c0.7-0.4,1.5-0.6,2.4-0.6c0.8,0,1.6,0.1,2.3,0.4
			c0.7,0.3,1.3,0.8,1.8,1.5c0.3,0.4,0.5,0.9,0.6,1.5c0.1,0.5,0.1,1.1,0.1,1.6v8.7h-1.5v-8.7c0.1-1-0.2-1.9-0.8-2.7
			c-0.7-0.7-1.7-1-2.7-0.9c-0.4,0-0.9,0.1-1.3,0.2c-0.4,0.1-0.7,0.3-1.1,0.6c-0.3,0.2-0.6,0.5-0.8,0.8c-0.2,0.3-0.4,0.6-0.5,1
			c-0.2,0.4-0.3,0.8-0.4,1.3c0,0.4-0.1,0.8-0.1,1.3L575.7,40.9z"/>
		<path class="st0" d="M594,33.1c0.3,0,0.6-0.1,1-0.2c0.3-0.1,0.7-0.1,1-0.3c0.3-0.1,0.4-0.3,0.5-0.6c0.1-0.3,0.1-0.5,0.1-0.8
			c0-0.7-0.2-1.4-0.8-1.9c-0.7-0.6-1.6-0.8-2.6-0.8c-0.5,0-1,0-1.5,0.1c-0.4,0.1-0.8,0.2-1.2,0.5c-0.3,0.2-0.6,0.6-0.8,0.9
			c-0.2,0.5-0.4,0.9-0.4,1.5h-1.6c0-0.7,0.2-1.4,0.5-2c0.3-0.5,0.7-1,1.2-1.4c0.5-0.4,1.1-0.6,1.7-0.8c0.7-0.2,1.4-0.2,2.1-0.2
			c0.6,0,1.3,0.1,1.9,0.2c0.6,0.1,1.1,0.4,1.5,0.7c0.4,0.3,0.8,0.8,1,1.3c0.3,0.6,0.4,1.3,0.4,1.9v7.3c0,0.6,0.1,1,0.3,1.1
			c0.2,0.2,0.7,0.1,1.3-0.1v1.2l-0.5,0.2c-0.2,0.1-0.4,0.1-0.7,0.1c-0.2,0-0.5,0-0.7-0.1c-0.2,0-0.4-0.1-0.6-0.2
			c-0.2-0.1-0.3-0.3-0.4-0.5c-0.1-0.2-0.2-0.4-0.2-0.6c0-0.2,0-0.5,0-0.7c-1.3,1.4-3.1,2.2-5,2.2c-0.6,0-1.1-0.1-1.7-0.2
			c-0.5-0.1-1-0.4-1.4-0.7c-0.9-0.7-1.4-1.8-1.3-2.9c0-2.3,1.6-3.6,4.7-4L594,33.1z M596.6,33.9c-0.6,0.3-1.3,0.4-1.9,0.5
			c-0.6,0.1-1.3,0.2-2,0.2c-1,0-1.9,0.3-2.8,0.8c-0.7,0.5-1,1.2-1,2c0,0.4,0.1,0.7,0.3,1.1c0.2,0.3,0.4,0.6,0.6,0.7
			c0.3,0.2,0.6,0.4,0.9,0.4c0.3,0.1,0.7,0.1,1.1,0.1c0.6,0,1.2-0.1,1.8-0.2c0.6-0.1,1.1-0.4,1.6-0.7c0.4-0.3,0.8-0.7,1.1-1.2
			c0.3-0.5,0.4-1.1,0.4-1.7L596.6,33.9z"/>
		<path class="st0" d="M603.4,40.9h-1.5V22.3h1.5v7.3c0.5-0.8,1.2-1.5,2-1.9c0.8-0.4,1.8-0.6,2.7-0.6c0.9,0,1.8,0.2,2.6,0.6
			c0.7,0.4,1.4,0.9,1.9,1.5c0.5,0.7,0.9,1.4,1.1,2.3c0.2,0.9,0.4,1.8,0.4,2.7c0,0.9-0.1,1.9-0.3,2.8c-0.2,0.8-0.6,1.6-1.1,2.2
			c-0.5,0.6-1.1,1.1-1.9,1.5c-0.9,0.4-1.8,0.6-2.8,0.5c-0.4,0-0.9-0.1-1.3-0.2c-0.4-0.1-0.9-0.3-1.3-0.5c-0.4-0.2-0.8-0.5-1.2-0.8
			c-0.4-0.3-0.7-0.7-0.9-1.2h0L603.4,40.9z M603.4,34.1c0,0.8,0.1,1.5,0.3,2.2c0.2,0.7,0.5,1.3,0.9,1.8c0.4,0.5,0.9,0.9,1.4,1.2
			c0.6,0.3,1.3,0.4,1.9,0.4c0.6,0,1.2-0.1,1.8-0.3c0.5-0.2,1-0.6,1.4-1c0.4-0.5,0.8-1,1-1.6c0.2-0.7,0.4-1.5,0.3-2.2
			c0-0.8,0-1.6-0.2-2.4c-0.1-0.7-0.4-1.4-0.8-1.9c-0.4-0.5-0.9-1-1.5-1.3c-0.6-0.3-1.4-0.5-2.1-0.5c-0.7,0-1.3,0.1-1.9,0.4
			c-0.6,0.3-1,0.7-1.4,1.2c-0.4,0.5-0.7,1.1-0.9,1.8C603.5,32.7,603.4,33.4,603.4,34.1z"/>
		<path class="st0" d="M617.1,40.9V22.3h1.5v18.5H617.1z"/>
		<path class="st0" d="M623.1,34.5c0,0.7,0.1,1.4,0.3,2.1c0.2,0.6,0.5,1.2,0.8,1.7c0.4,0.5,0.9,0.9,1.4,1.1c1.5,0.7,3.2,0.5,4.5-0.4
			c0.7-0.6,1.2-1.4,1.4-2.3h1.7c-0.2,0.6-0.4,1.2-0.7,1.8c-0.3,0.5-0.7,1-1.2,1.4c-0.5,0.4-1,0.8-1.6,1c-0.7,0.2-1.5,0.4-2.2,0.3
			c-0.9,0-1.9-0.2-2.8-0.5c-0.8-0.3-1.4-0.8-1.9-1.5c-0.5-0.7-0.9-1.4-1.1-2.2c-0.2-0.9-0.4-1.8-0.4-2.7c0-0.9,0.1-1.9,0.4-2.8
			c0.3-0.8,0.7-1.6,1.2-2.3c0.5-0.6,1.2-1.2,1.9-1.5c0.8-0.4,1.7-0.6,2.6-0.6c1.7-0.1,3.3,0.7,4.3,1.9c1.1,1.6,1.7,3.5,1.5,5.5
			L623.1,34.5z M631.8,33.3c0-0.6-0.1-1.2-0.3-1.8c-0.2-0.5-0.4-1.1-0.8-1.5c-0.4-0.4-0.8-0.8-1.3-1c-0.6-0.3-1.2-0.4-1.8-0.4
			c-0.6,0-1.3,0.1-1.8,0.4c-0.5,0.2-1,0.6-1.3,1c-0.4,0.4-0.7,0.9-0.9,1.5c-0.2,0.6-0.4,1.2-0.4,1.8L631.8,33.3z"/>
		<path class="st0" d="M657.3,38.4L657.3,38.4l4-16.1h1.8l-4.9,18.5h-1.9l-4.3-16.4H652l-4.3,16.4h-1.9L641,22.3h1.7l4,16.1l0,0
			l4.3-16.1h1.9L657.3,38.4z"/>
		<path class="st0" d="M665.9,34.5c0,0.7,0.1,1.4,0.3,2.1c0.2,0.6,0.5,1.2,0.8,1.7c0.4,0.5,0.9,0.9,1.4,1.1c0.6,0.3,1.3,0.4,1.9,0.4
			c0.9,0,1.8-0.3,2.6-0.8c0.7-0.6,1.2-1.4,1.4-2.3h1.7c-0.2,0.6-0.4,1.2-0.7,1.8c-0.3,0.5-0.7,1-1.2,1.4c-0.5,0.4-1,0.8-1.7,1
			c-0.7,0.2-1.5,0.4-2.2,0.3c-0.9,0-1.9-0.2-2.8-0.5c-0.8-0.3-1.4-0.8-1.9-1.5c-0.5-0.7-0.9-1.4-1.1-2.2c-0.2-0.9-0.4-1.8-0.4-2.7
			c0-0.9,0.1-1.9,0.4-2.8c0.3-0.8,0.7-1.6,1.2-2.3c0.5-0.6,1.2-1.2,1.9-1.5c0.8-0.4,1.7-0.6,2.6-0.6c1.7-0.1,3.3,0.7,4.3,1.9
			c1.2,1.6,1.7,3.5,1.5,5.5L665.9,34.5z M674.6,33.3c0-0.6-0.1-1.2-0.3-1.8c-0.2-0.5-0.4-1-0.8-1.5c-0.4-0.4-0.8-0.7-1.3-1
			c-0.6-0.3-1.2-0.4-1.8-0.4c-0.6,0-1.2,0.1-1.8,0.4c-0.5,0.2-1,0.6-1.3,1c-0.4,0.4-0.7,0.9-0.9,1.5c-0.2,0.6-0.4,1.2-0.4,1.8
			L674.6,33.3z"/>
		<path class="st0" d="M684.8,33.1c0.3,0,0.6-0.1,1-0.2c0.3-0.1,0.7-0.1,1-0.3c0.2-0.1,0.4-0.3,0.5-0.6c0.1-0.3,0.1-0.5,0.1-0.8
			c0-0.7-0.2-1.4-0.8-1.9c-0.7-0.6-1.6-0.8-2.6-0.8c-0.5,0-1,0-1.5,0.1c-0.4,0.1-0.8,0.2-1.2,0.5c-0.3,0.2-0.6,0.6-0.8,0.9
			c-0.2,0.5-0.4,0.9-0.4,1.5h-1.6c0-0.7,0.2-1.4,0.5-2c0.3-0.5,0.7-1,1.2-1.4c0.5-0.4,1.1-0.6,1.7-0.8c0.7-0.2,1.4-0.2,2.1-0.2
			c0.6,0,1.3,0.1,1.9,0.2c0.6,0.1,1.1,0.4,1.5,0.7c0.4,0.3,0.8,0.8,1,1.3c0.3,0.6,0.4,1.3,0.4,1.9v7.3c0,0.6,0.1,1,0.3,1.1
			c0.2,0.2,0.6,0.1,1.3-0.1v1.2l-0.5,0.2c-0.2,0.1-0.4,0.1-0.7,0.1c-0.2,0-0.5,0-0.7-0.1c-0.2,0-0.4-0.1-0.6-0.2
			c-0.2-0.1-0.3-0.3-0.4-0.5c-0.1-0.2-0.2-0.4-0.2-0.6c0-0.2-0.1-0.5-0.1-0.7c-1.3,1.4-3.1,2.2-5,2.2c-0.6,0-1.1-0.1-1.7-0.2
			c-0.5-0.1-1-0.4-1.4-0.7c-0.4-0.3-0.7-0.7-1-1.2c-0.2-0.5-0.4-1.1-0.4-1.7c0-2.3,1.6-3.6,4.7-4L684.8,33.1z M687.4,33.9
			c-0.6,0.3-1.3,0.4-1.9,0.5c-0.6,0.1-1.3,0.2-2,0.2c-1,0-2,0.3-2.8,0.8c-0.7,0.5-1,1.2-1,2c0,0.4,0.1,0.7,0.2,1.1
			c0.2,0.3,0.4,0.5,0.6,0.7c0.3,0.2,0.6,0.4,0.9,0.4c0.3,0.1,0.7,0.1,1.1,0.1c0.6,0,1.2-0.1,1.8-0.2c0.6-0.1,1.1-0.4,1.6-0.7
			c0.5-0.3,0.8-0.7,1.1-1.2c0.3-0.5,0.4-1.1,0.4-1.7V33.9z"/>
		<path class="st0" d="M692.7,40.9V22.3h1.5v18.5H692.7z"/>
		<path class="st0" d="M702.4,40.9c-0.2,0-0.4,0.1-0.7,0.2c-0.3,0.1-0.7,0.1-1,0.1c-0.6,0-1.3-0.2-1.8-0.6c-0.5-0.6-0.7-1.3-0.6-2.1
			v-9.7h-1.9v-1.3h1.9v-3.7h1.5v3.7h2.5v1.3h-2.5V38c0,0.3,0,0.6,0,0.8c0,0.2,0.1,0.4,0.1,0.6c0.1,0.2,0.2,0.3,0.4,0.3
			c0.2,0.1,0.5,0.1,0.8,0.1c0.2,0,0.4,0,0.6,0c0.2,0,0.4-0.1,0.6-0.1L702.4,40.9z"/>
		<path class="st0" d="M704.3,40.9V22.3h1.6v7.1c0.6-0.6,1.2-1.1,1.9-1.6c0.7-0.4,1.5-0.6,2.4-0.6c0.8,0,1.6,0.1,2.3,0.4
			c0.7,0.3,1.3,0.8,1.8,1.5c0.3,0.4,0.5,0.9,0.6,1.5c0.1,0.5,0.1,1.1,0.1,1.6v8.7h-1.5v-8.7c0.1-1-0.2-1.9-0.8-2.7
			c-0.7-0.7-1.7-1-2.7-0.9c-0.4,0-0.9,0.1-1.3,0.2c-0.4,0.1-0.7,0.3-1.1,0.6c-0.3,0.2-0.6,0.5-0.8,0.8c-0.2,0.3-0.4,0.6-0.5,1
			c-0.2,0.4-0.3,0.8-0.4,1.3c0,0.4-0.1,0.8-0.1,1.3v7.2L704.3,40.9z"/>
		<path class="st0" d="M738.1,27.7c-0.2-1.3-0.9-2.5-2-3.4c-1.2-0.7-2.5-1.1-3.9-1c-1.9-0.1-3.8,0.9-4.9,2.5
			c-0.5,0.8-0.9,1.7-1.2,2.6c-0.3,1-0.4,2.1-0.4,3.1c0,1,0.1,2,0.3,3c0.2,0.9,0.6,1.8,1.1,2.7c0.5,0.8,1.2,1.4,2,1.9
			c1,0.5,2.1,0.8,3.2,0.7c0.7,0,1.5-0.1,2.2-0.4c0.6-0.2,1.2-0.6,1.7-1.1c0.5-0.5,0.9-1,1.2-1.6c0.3-0.6,0.6-1.3,0.8-2h1.8
			c-0.2,0.9-0.5,1.7-0.9,2.5c-0.4,0.8-0.9,1.5-1.6,2.1c-0.7,0.6-1.5,1.1-2.3,1.4c-1,0.4-2.1,0.5-3.2,0.5c-1.3,0-2.5-0.2-3.7-0.8
			c-1-0.5-1.8-1.2-2.5-2.1c-0.7-0.9-1.1-2-1.4-3.1c-0.3-1.2-0.4-2.5-0.4-3.8c0-1.5,0.2-3,0.7-4.5c0.4-1.1,1-2.2,1.8-3
			c0.8-0.8,1.7-1.4,2.7-1.7c1.1-0.4,2.3-0.5,3.4-0.5c0.9,0,1.8,0.1,2.6,0.4c0.8,0.2,1.5,0.6,2.2,1.1c0.6,0.5,1.1,1.1,1.5,1.8
			c0.4,0.8,0.7,1.6,0.8,2.5L738.1,27.7z"/>
		<path class="st0" d="M744.5,40.9h-1.5V27.5h1.5V30h0c0.3-0.9,0.9-1.7,1.7-2.2c0.8-0.5,1.8-0.7,2.7-0.6v1.7c-0.7,0-1.5,0.1-2.2,0.4
			c-0.5,0.3-1,0.7-1.4,1.2c-0.3,0.5-0.6,1.1-0.7,1.8c-0.1,0.7-0.2,1.4-0.2,2.1L744.5,40.9z"/>
		<path class="st0" d="M751.8,34.5c0,0.7,0.1,1.4,0.3,2.1c0.2,0.6,0.5,1.2,0.8,1.7c0.4,0.5,0.9,0.9,1.4,1.1c0.6,0.3,1.3,0.4,1.9,0.4
			c0.9,0,1.8-0.3,2.6-0.8c0.7-0.6,1.2-1.4,1.4-2.3h1.7c-0.2,0.6-0.4,1.2-0.7,1.8c-0.3,0.5-0.7,1-1.2,1.4c-0.5,0.4-1,0.8-1.7,1
			c-0.7,0.2-1.5,0.4-2.2,0.3c-0.9,0-1.9-0.2-2.8-0.5c-0.8-0.3-1.4-0.8-1.9-1.5c-0.5-0.7-0.9-1.4-1.1-2.2c-0.2-0.9-0.4-1.8-0.4-2.7
			c0-1,0.2-1.9,0.5-2.8c0.3-0.8,0.7-1.6,1.2-2.3c0.5-0.6,1.2-1.2,1.9-1.5c0.8-0.4,1.7-0.6,2.6-0.6c1.7-0.1,3.3,0.7,4.3,1.9
			c1.2,1.6,1.7,3.5,1.5,5.5L751.8,34.5z M760.5,33.3c0-0.6-0.1-1.2-0.3-1.8c-0.2-0.5-0.4-1.1-0.8-1.5c-0.4-0.4-0.8-0.7-1.3-1
			c-0.6-0.3-1.2-0.4-1.8-0.4c-0.6,0-1.3,0.1-1.8,0.4c-0.5,0.2-1,0.6-1.3,1c-0.4,0.4-0.7,0.9-0.9,1.5c-0.2,0.6-0.4,1.2-0.4,1.8
			L760.5,33.3z"/>
		<path class="st0" d="M770.8,33.1c0.3,0,0.6-0.1,1-0.2c0.3-0.1,0.7-0.1,1-0.3c0.2-0.1,0.4-0.3,0.5-0.6c0.1-0.3,0.1-0.5,0.1-0.8
			c0-0.7-0.2-1.4-0.8-1.9c-0.7-0.6-1.6-0.8-2.6-0.8c-0.5,0-1,0-1.5,0.1c-0.4,0.1-0.8,0.2-1.2,0.5c-0.3,0.2-0.6,0.6-0.8,0.9
			c-0.2,0.5-0.4,0.9-0.4,1.5h-1.6c0-0.7,0.2-1.4,0.6-2c0.3-0.5,0.7-1,1.2-1.4c0.5-0.4,1.1-0.6,1.7-0.8c0.7-0.2,1.4-0.2,2.1-0.2
			c0.6,0,1.3,0.1,1.9,0.2c0.6,0.1,1.1,0.4,1.5,0.7c0.5,0.3,0.8,0.8,1,1.3c0.3,0.6,0.4,1.3,0.4,1.9v7.3c0,0.6,0.1,1,0.3,1.1
			c0.2,0.2,0.7,0.1,1.3-0.1v1.2l-0.5,0.2c-0.2,0.1-0.4,0.1-0.7,0.1c-0.2,0-0.5,0-0.7-0.1c-0.2,0-0.4-0.1-0.6-0.2
			c-0.2-0.1-0.3-0.3-0.4-0.5c-0.1-0.2-0.2-0.4-0.2-0.6c0-0.2,0-0.5,0-0.7c-0.6,0.7-1.4,1.3-2.2,1.7c-0.9,0.4-1.8,0.6-2.7,0.6
			c-0.6,0-1.1-0.1-1.7-0.2c-0.5-0.1-1-0.4-1.4-0.7c-0.4-0.3-0.7-0.7-1-1.2c-0.2-0.5-0.4-1.1-0.4-1.7c0-2.3,1.6-3.6,4.7-4L770.8,33.1
			z M773.4,33.9c-0.6,0.3-1.3,0.4-1.9,0.5c-0.6,0.1-1.3,0.2-2,0.2c-1,0-1.9,0.3-2.8,0.8c-0.7,0.5-1,1.2-1,2c0,0.4,0.1,0.7,0.2,1.1
			c0.2,0.3,0.4,0.5,0.6,0.7c0.3,0.2,0.6,0.4,1,0.4c0.3,0.1,0.7,0.1,1.1,0.1c0.6,0,1.2-0.1,1.8-0.2c0.6-0.1,1.1-0.4,1.6-0.7
			c0.5-0.3,0.8-0.7,1.1-1.2c0.3-0.5,0.4-1.1,0.4-1.7L773.4,33.9z"/>
		<path class="st0" d="M783.2,40.9c-0.2,0-0.4,0.1-0.7,0.2c-0.3,0.1-0.7,0.1-1,0.1c-0.6,0-1.3-0.2-1.8-0.6c-0.5-0.6-0.7-1.3-0.6-2.1
			v-9.7h-1.9v-1.3h1.9v-3.7h1.5v3.7h2.5v1.3h-2.5V38c0,0.3,0,0.6,0,0.8c0,0.2,0.1,0.4,0.2,0.6c0.1,0.2,0.2,0.3,0.4,0.3
			c0.2,0.1,0.5,0.1,0.8,0.1c0.2,0,0.4,0,0.6,0c0.2,0,0.4-0.1,0.6-0.1L783.2,40.9z"/>
		<path class="st0" d="M785.3,24.7v-2.3h1.7v2.3H785.3z M785.3,40.9V27.5h1.5v13.3L785.3,40.9z"/>
		<path class="st0" d="M795.6,41.2c-0.8,0-1.6-0.2-2.4-0.5c-0.7-0.3-1.4-0.7-1.9-1.3c-0.6-0.6-1-1.4-1.3-2.2c-0.3-1-0.5-2-0.5-3.1
			c0-0.9,0.1-1.9,0.4-2.7c0.2-0.8,0.6-1.6,1.2-2.2c0.5-0.6,1.2-1.2,1.9-1.5c0.8-0.4,1.8-0.6,2.7-0.6c0.9,0,1.9,0.2,2.7,0.6
			c0.8,0.3,1.4,0.9,1.9,1.5c0.5,0.7,0.9,1.4,1.1,2.2c0.3,0.9,0.4,1.8,0.4,2.8c0,1-0.1,2-0.4,2.9c-0.3,0.8-0.7,1.6-1.3,2.2
			c-0.5,0.6-1.2,1.1-1.9,1.4C797.4,41.1,796.5,41.2,795.6,41.2z M800.2,34.2c0-0.7-0.1-1.5-0.3-2.2c-0.2-0.6-0.4-1.2-0.8-1.8
			c-0.4-0.5-0.8-0.9-1.4-1.2c-0.7-0.3-1.4-0.5-2.1-0.4c-0.7,0-1.4,0.1-2.1,0.5c-0.6,0.3-1,0.7-1.4,1.3c-0.4,0.5-0.6,1.2-0.8,1.8
			c-0.2,0.7-0.3,1.4-0.3,2.1c0,0.8,0.1,1.5,0.3,2.3c0.2,0.6,0.5,1.3,0.9,1.8c0.4,0.5,0.9,0.9,1.4,1.2c0.6,0.3,1.3,0.4,1.9,0.4
			c0.7,0,1.4-0.1,2.1-0.5c0.6-0.3,1-0.7,1.4-1.3c0.4-0.6,0.6-1.2,0.8-1.8C800.1,35.6,800.2,34.9,800.2,34.2z"/>
		<path class="st0" d="M805.6,40.9h-1.6V27.5h1.5v1.9c0.6-0.6,1.2-1.2,1.9-1.6c0.7-0.4,1.5-0.6,2.4-0.6c0.8,0,1.6,0.1,2.3,0.4
			c0.7,0.3,1.3,0.8,1.8,1.5c0.3,0.4,0.5,0.9,0.6,1.5c0.1,0.5,0.1,1.1,0.1,1.6v8.7h-1.5v-8.7c0.1-1-0.2-1.9-0.8-2.7
			c-0.7-0.7-1.7-1-2.6-0.9c-0.4,0-0.9,0.1-1.3,0.2c-0.4,0.1-0.7,0.3-1.1,0.6c-0.3,0.2-0.6,0.5-0.8,0.8c-0.2,0.3-0.4,0.6-0.5,1
			c-0.1,0.4-0.2,0.8-0.3,1.2c0,0.4,0,0.8,0,1.3V40.9z"/>
		<path class="st0" d="M507.4,72.5V54h6.7c0.9,0,1.9,0.1,2.8,0.3c0.7,0.2,1.3,0.5,1.9,1c0.5,0.4,0.8,0.9,1.1,1.5
			c0.2,0.6,0.3,1.2,0.3,1.9c0,0.6-0.1,1.1-0.3,1.7c-0.1,0.4-0.4,0.8-0.7,1.2c-0.3,0.3-0.6,0.6-1,0.7c-0.3,0.2-0.7,0.3-1.1,0.4l0,0
			c1.1,0.1,2.2,0.6,2.9,1.5c0.7,0.9,1,2,1,3.1c0,0.8-0.1,1.7-0.4,2.4c-0.3,0.6-0.7,1.2-1.3,1.6c-0.6,0.4-1.2,0.7-1.9,0.9
			c-0.8,0.2-1.6,0.3-2.4,0.3L507.4,72.5z M509.1,62.2h4.4c0.8,0,1.5-0.1,2.3-0.2c0.5-0.1,1-0.4,1.5-0.7c0.4-0.3,0.7-0.7,0.8-1.1
			c0.2-0.5,0.3-1,0.3-1.5c0-0.5-0.1-1-0.3-1.5c-0.2-0.4-0.5-0.7-0.9-1c-0.5-0.3-1-0.5-1.6-0.5c-0.8-0.1-1.6-0.2-2.4-0.2h-4
			L509.1,62.2z M509.1,71h4.5c0.8,0,1.7,0,2.5-0.1c0.6-0.1,1.2-0.2,1.8-0.5c0.5-0.3,0.8-0.7,1-1.1c0.3-0.6,0.4-1.3,0.3-1.9
			c0-0.6-0.1-1.3-0.4-1.9c-0.2-0.5-0.6-0.8-1.1-1.1c-0.5-0.3-1.1-0.5-1.7-0.5c-0.7-0.1-1.5-0.2-2.2-0.1h-4.7V71z"/>
		<path class="st0" d="M529.9,64.8c0.3,0,0.6-0.1,1-0.2c0.3,0,0.7-0.1,1-0.3c0.3-0.1,0.4-0.3,0.5-0.6c0.1-0.3,0.1-0.5,0.1-0.8
			c0-0.7-0.3-1.4-0.8-1.9c-0.7-0.6-1.6-0.8-2.6-0.8c-0.5,0-1,0-1.5,0.1c-0.4,0.1-0.8,0.2-1.2,0.5c-0.3,0.2-0.6,0.6-0.8,0.9
			c-0.2,0.5-0.4,0.9-0.4,1.5h-1.6c0-0.7,0.2-1.4,0.5-2c0.3-0.5,0.7-1,1.2-1.4c0.5-0.4,1.1-0.6,1.7-0.8c0.7-0.2,1.4-0.2,2.1-0.2
			c0.6,0,1.3,0.1,1.9,0.2c0.6,0.1,1.1,0.4,1.5,0.7c0.4,0.3,0.8,0.8,1,1.3c0.3,0.6,0.4,1.3,0.4,1.9v7.2c0,0.6,0.1,1,0.3,1.1
			s0.6,0.1,1.3-0.1v1.2l-0.5,0.2c-0.2,0.1-0.5,0.1-0.7,0.1c-0.2,0-0.5,0-0.7-0.1c-0.2,0-0.4-0.1-0.6-0.2c-0.2-0.1-0.3-0.3-0.4-0.5
			c-0.1-0.2-0.2-0.4-0.2-0.6c0-0.2-0.1-0.5-0.1-0.7c-0.6,0.7-1.4,1.3-2.2,1.7c-0.9,0.4-1.8,0.6-2.7,0.6c-0.6,0-1.1-0.1-1.7-0.2
			c-0.5-0.1-1-0.4-1.4-0.7c-0.4-0.3-0.7-0.7-1-1.2c-0.3-0.5-0.4-1.1-0.4-1.7c0-2.3,1.6-3.6,4.7-4L529.9,64.8z M532.5,65.5
			c-0.6,0.3-1.3,0.4-1.9,0.5c-0.6,0.1-1.3,0.2-2,0.2c-1,0-1.9,0.3-2.8,0.8c-0.7,0.5-1,1.2-1,2c0,0.4,0.1,0.7,0.3,1.1
			c0.2,0.3,0.4,0.5,0.6,0.7c0.3,0.2,0.6,0.4,0.9,0.4c0.3,0.1,0.7,0.1,1.1,0.1c0.6,0,1.2-0.1,1.8-0.2c0.6-0.1,1.1-0.4,1.6-0.7
			c0.4-0.3,0.8-0.7,1.1-1.2c0.3-0.5,0.4-1.1,0.4-1.7L532.5,65.5z"/>
		<path class="st0" d="M538.5,68.4c0.1,0.9,0.6,1.8,1.3,2.4c0.8,0.5,1.7,0.8,2.7,0.7c0.5,0,1-0.1,1.5-0.2c0.4-0.1,0.7-0.3,1-0.6
			c0.3-0.2,0.5-0.5,0.6-0.8c0.1-0.3,0.2-0.6,0.2-0.9c0-0.6-0.2-1.1-0.6-1.5c-0.5-0.3-1-0.6-1.6-0.7c-0.6-0.2-1.3-0.3-2.1-0.5
			c-0.7-0.1-1.4-0.3-2.1-0.6c-0.6-0.2-1.2-0.6-1.6-1.1c-0.5-0.6-0.7-1.3-0.6-2c0-1.1,0.4-2.1,1.2-2.7c1-0.8,2.2-1.1,3.5-1.1
			c1.2-0.1,2.5,0.3,3.5,1c1,0.8,1.6,2,1.6,3.2h-1.6c0-0.9-0.5-1.7-1.2-2.2c-0.7-0.4-1.6-0.7-2.4-0.6c-0.8-0.1-1.6,0.2-2.2,0.6
			c-0.5,0.4-0.8,1-0.8,1.7c0,0.5,0.2,1,0.6,1.4c0.5,0.3,1,0.6,1.6,0.8c0.6,0.2,1.3,0.4,2.1,0.5c0.7,0.1,1.4,0.4,2.1,0.7
			c0.6,0.3,1.1,0.7,1.6,1.1c0.5,0.6,0.7,1.3,0.6,2c0,0.6-0.1,1.2-0.4,1.7c-0.3,0.5-0.7,0.9-1.1,1.2c-0.5,0.3-1.1,0.6-1.7,0.7
			c-0.7,0.2-1.4,0.3-2.2,0.2c-0.7,0-1.4-0.1-2.1-0.3c-0.6-0.2-1.1-0.5-1.6-1c-0.4-0.4-0.7-0.9-1-1.4c-0.2-0.6-0.4-1.2-0.4-1.8
			L538.5,68.4z"/>
		<path class="st0" d="M550.9,66.2c0,0.7,0.1,1.4,0.3,2.1c0.2,0.6,0.5,1.2,0.8,1.7c0.4,0.5,0.9,0.9,1.4,1.1c1.5,0.7,3.2,0.5,4.6-0.4
			c0.7-0.6,1.2-1.4,1.4-2.3h1.7c-0.2,0.6-0.4,1.2-0.7,1.8c-0.3,0.5-0.7,1-1.2,1.4c-0.5,0.4-1,0.8-1.6,1c-0.7,0.2-1.5,0.3-2.2,0.3
			c-0.9,0-1.9-0.2-2.8-0.5c-0.8-0.3-1.4-0.8-1.9-1.5c-0.5-0.7-0.9-1.4-1.1-2.2c-0.2-0.9-0.4-1.8-0.4-2.7c0-0.9,0.1-1.9,0.4-2.8
			c0.3-0.8,0.7-1.6,1.2-2.3c0.5-0.6,1.2-1.2,1.9-1.5c0.8-0.4,1.7-0.6,2.6-0.6c1.7-0.1,3.3,0.7,4.3,1.9c1.1,1.6,1.7,3.5,1.5,5.5
			L550.9,66.2z M559.6,64.9c0-0.6-0.1-1.2-0.3-1.8c-0.2-0.5-0.4-1.1-0.8-1.5c-0.4-0.4-0.8-0.8-1.3-1c-0.6-0.3-1.2-0.4-1.8-0.4
			c-0.6,0-1.3,0.1-1.8,0.4c-0.5,0.2-1,0.6-1.3,1c-0.4,0.4-0.7,0.9-0.9,1.5c-0.2,0.6-0.4,1.2-0.4,1.8L559.6,64.9z"/>
		<path class="st0" d="M574,54h1.5v18.5H574v-2.3h0c-0.2,0.4-0.5,0.8-0.9,1.2c-0.3,0.3-0.7,0.6-1.2,0.8c-0.4,0.2-0.9,0.4-1.3,0.5
			c-0.4,0.1-0.9,0.2-1.3,0.2c-0.9,0-1.9-0.2-2.8-0.5c-0.7-0.3-1.4-0.8-1.9-1.5c-0.5-0.7-0.9-1.4-1.1-2.2c-0.2-0.9-0.3-1.8-0.3-2.8
			c0-0.9,0.1-1.8,0.4-2.7c0.2-0.8,0.6-1.6,1.1-2.2c0.5-0.7,1.1-1.2,1.9-1.5c0.8-0.4,1.7-0.6,2.6-0.6c0.9,0,1.9,0.2,2.7,0.6
			c0.9,0.4,1.6,1.1,2.1,1.9V54z M574,65.8c0-0.7-0.1-1.5-0.3-2.1c-0.2-0.6-0.5-1.2-0.9-1.8c-0.4-0.5-0.9-0.9-1.4-1.2
			c-0.6-0.3-1.3-0.5-1.9-0.5c-0.7,0-1.4,0.1-2.1,0.5c-0.6,0.3-1.1,0.8-1.4,1.3c-0.4,0.6-0.7,1.2-0.8,1.9c-0.2,0.8-0.2,1.6-0.2,2.4
			c0,0.8,0.1,1.5,0.3,2.2c0.2,0.6,0.5,1.2,1,1.6c0.4,0.4,0.9,0.8,1.4,1c0.6,0.2,1.2,0.4,1.8,0.3c1.3,0,2.6-0.6,3.4-1.6
			c0.4-0.5,0.7-1.2,0.9-1.8C573.9,67.3,574,66.6,574,65.8z"/>
		<path class="st0" d="M590.9,72.9c-0.8,0-1.6-0.2-2.4-0.5c-0.7-0.3-1.4-0.7-1.9-1.3c-0.6-0.6-1-1.4-1.3-2.2c-0.3-1-0.5-2-0.5-3.1
			c0-0.9,0.1-1.9,0.4-2.7c0.2-0.8,0.6-1.6,1.2-2.2c0.5-0.6,1.2-1.2,1.9-1.5c1.7-0.7,3.7-0.7,5.4,0c0.8,0.3,1.4,0.9,1.9,1.5
			c0.5,0.7,0.9,1.4,1.1,2.2c0.3,0.9,0.4,1.8,0.4,2.8c0,1-0.1,2-0.4,2.9c-0.3,0.8-0.7,1.6-1.3,2.2c-0.5,0.6-1.2,1.1-1.9,1.4
			C592.6,72.8,591.8,72.9,590.9,72.9z M595.4,65.9c0-0.7-0.1-1.5-0.3-2.2c-0.2-0.6-0.4-1.2-0.8-1.8c-0.4-0.5-0.8-0.9-1.4-1.2
			c-0.7-0.3-1.4-0.5-2.1-0.4c-0.7,0-1.4,0.1-2.1,0.5c-0.6,0.3-1,0.7-1.4,1.3c-0.4,0.5-0.6,1.2-0.8,1.8c-0.2,0.7-0.3,1.4-0.3,2.1
			c0,0.8,0.1,1.5,0.3,2.3c0.2,0.6,0.5,1.3,0.9,1.8c0.4,0.5,0.9,0.9,1.4,1.2c0.6,0.3,1.3,0.4,1.9,0.4c0.7,0,1.4-0.1,2.1-0.5
			c0.6-0.3,1-0.7,1.4-1.3c0.4-0.6,0.6-1.2,0.8-1.8C595.3,67.3,595.4,66.6,595.4,65.9z"/>
		<path class="st0" d="M600.9,72.5h-1.5V59.2h1.5V61c0.6-0.6,1.2-1.1,1.9-1.6c0.7-0.4,1.5-0.6,2.4-0.6c0.8,0,1.6,0.1,2.3,0.4
			c0.7,0.3,1.3,0.8,1.8,1.5c0.3,0.4,0.5,0.9,0.6,1.5c0.1,0.5,0.1,1.1,0.1,1.6v8.7h-1.5v-8.7c0.1-1-0.2-1.9-0.8-2.7
			c-0.7-0.7-1.7-1-2.7-0.9c-0.4,0-0.9,0.1-1.3,0.2c-0.4,0.1-0.7,0.3-1.1,0.6c-0.3,0.2-0.6,0.5-0.8,0.8c-0.2,0.3-0.4,0.6-0.5,1
			c-0.1,0.4-0.2,0.8-0.3,1.2c0,0.4,0,0.8,0,1.3L600.9,72.5z"/>
		<path class="st0" d="M620,72.5V54h6.3c0.5,0,1,0,1.5,0c0.5,0,1,0.1,1.5,0.2c0.5,0.1,1,0.2,1.4,0.4c0.5,0.2,0.9,0.4,1.3,0.7
			c0.6,0.4,1.1,1,1.5,1.6c0.4,0.6,0.7,1.3,1,2c0.2,0.7,0.4,1.4,0.5,2.2c0.2,1.3,0.2,2.6,0,3.9c-0.1,0.6-0.2,1.3-0.4,1.9
			c-0.2,0.6-0.4,1.2-0.7,1.7c-0.3,0.6-0.6,1.1-1.1,1.5c-0.4,0.5-0.9,0.8-1.4,1.2c-0.5,0.3-1,0.5-1.6,0.7c-0.6,0.2-1.2,0.3-1.7,0.3
			c-0.6,0.1-1.2,0.1-1.8,0.1L620,72.5z M621.8,71h4.2c0.7,0,1.5,0,2.2-0.1c0.7-0.1,1.5-0.4,2.1-0.7c0.6-0.3,1.1-0.7,1.5-1.3
			c0.4-0.5,0.7-1.1,1-1.7c0.2-0.6,0.4-1.3,0.5-1.9c0.1-0.6,0.1-1.3,0.1-1.9c0-0.7,0-1.4-0.1-2.1c-0.1-0.7-0.2-1.3-0.5-1.9
			c-0.2-0.6-0.6-1.2-1-1.7c-0.4-0.5-1-1-1.6-1.3c-0.6-0.3-1.3-0.5-1.9-0.6c-0.8-0.1-1.5-0.1-2.3-0.1h-4.2L621.8,71z"/>
		<path class="st0" d="M638,56.3V54h1.7v2.3H638z M638.1,72.5V59.2h1.5v13.3H638.1z"/>
		<path class="st0" d="M644,68.4c0.1,0.9,0.6,1.8,1.3,2.4c0.8,0.5,1.7,0.8,2.7,0.7c0.5,0,1-0.1,1.5-0.2c0.4-0.1,0.7-0.3,1-0.6
			c0.3-0.2,0.5-0.5,0.6-0.8c0.1-0.3,0.2-0.6,0.2-0.9c0-0.6-0.2-1.1-0.6-1.5c-0.5-0.3-1-0.6-1.6-0.7c-0.7-0.2-1.4-0.3-2.1-0.5
			c-0.7-0.1-1.4-0.3-2.1-0.6c-0.6-0.2-1.2-0.6-1.6-1.1c-0.5-0.6-0.7-1.3-0.6-2c0-1.1,0.4-2.1,1.2-2.7c1-0.8,2.2-1.1,3.5-1.1
			c1.2-0.1,2.5,0.3,3.5,1c1,0.8,1.6,2,1.6,3.2h-1.6c0-0.9-0.5-1.7-1.2-2.2c-0.7-0.4-1.6-0.7-2.4-0.6c-0.8-0.1-1.6,0.2-2.2,0.6
			c-0.5,0.4-0.8,1-0.8,1.7c0,0.5,0.2,1.1,0.6,1.4c0.5,0.3,1,0.6,1.6,0.8c0.6,0.2,1.3,0.4,2.1,0.5c0.7,0.1,1.4,0.4,2.1,0.7
			c0.6,0.3,1.1,0.6,1.6,1.1c0.5,0.6,0.7,1.3,0.6,2c0,0.6-0.1,1.2-0.4,1.7c-0.3,0.5-0.7,0.9-1.1,1.2c-0.5,0.3-1.1,0.6-1.7,0.7
			c-0.7,0.2-1.4,0.3-2.2,0.2c-0.7,0-1.4-0.1-2.1-0.3c-0.6-0.2-1.1-0.5-1.6-1c-0.4-0.4-0.7-0.9-1-1.4c-0.2-0.6-0.4-1.2-0.4-1.8
			L644,68.4z"/>
		<path class="st0" d="M657,72.5h-1.5V59.2h1.5v2.5h0.1c0.3-0.9,0.9-1.7,1.7-2.2c0.8-0.5,1.7-0.7,2.7-0.6v1.7
			c-0.7,0-1.5,0.1-2.2,0.4c-0.5,0.3-1,0.7-1.4,1.2c-0.3,0.5-0.6,1.1-0.7,1.8c-0.1,0.7-0.2,1.4-0.2,2.1V72.5z"/>
		<path class="st0" d="M672.5,59.2h1.5v13.3h-1.5v-1.9c-0.2,0.3-0.5,0.5-0.7,0.7c-0.3,0.3-0.6,0.5-0.9,0.7c-0.4,0.2-0.8,0.4-1.2,0.5
			c-0.5,0.2-1,0.2-1.5,0.2c-0.8,0-1.5-0.1-2.2-0.4c-0.6-0.2-1.1-0.6-1.4-1c-0.4-0.5-0.7-1-0.8-1.6c-0.2-0.6-0.3-1.3-0.3-1.9v-8.7
			h1.5V68c-0.1,0.9,0.2,1.9,0.8,2.6c0.7,0.7,1.7,1,2.6,0.9c0.6,0,1.2-0.1,1.7-0.4c0.5-0.2,0.9-0.6,1.3-1c0.4-0.5,0.6-1,0.8-1.6
			c0.2-0.7,0.3-1.3,0.3-2V59.2z"/>
		<path class="st0" d="M679,77.8h-1.5V59.2h1.5v2.3h0.1c0.2-0.4,0.5-0.8,0.9-1.2c0.3-0.3,0.7-0.6,1.2-0.8c0.4-0.2,0.8-0.4,1.3-0.5
			c0.4-0.1,0.9-0.2,1.3-0.2c0.9,0,1.9,0.2,2.8,0.5c0.7,0.3,1.4,0.8,1.9,1.5c0.5,0.7,0.9,1.4,1.1,2.2c0.2,0.9,0.3,1.8,0.3,2.8
			c0,0.9-0.1,1.8-0.4,2.7c-0.2,0.8-0.6,1.6-1.1,2.3c-0.5,0.6-1.1,1.2-1.8,1.5c-0.8,0.4-1.7,0.6-2.6,0.6c-0.9,0-1.9-0.2-2.7-0.6
			c-0.9-0.4-1.6-1.1-2.1-1.9L679,77.8z M679,65.9c0,0.7,0.1,1.5,0.3,2.1c0.2,0.6,0.5,1.2,0.9,1.8c0.4,0.5,0.9,0.9,1.4,1.2
			c0.6,0.3,1.2,0.5,1.9,0.4c0.7,0,1.4-0.1,2.1-0.5c0.6-0.3,1.1-0.8,1.4-1.3c0.4-0.6,0.7-1.2,0.8-1.9c0.2-0.8,0.2-1.6,0.2-2.4
			c0-0.8-0.1-1.5-0.3-2.2c-0.2-0.6-0.5-1.2-1-1.6c-0.4-0.4-0.9-0.8-1.4-1c-0.6-0.2-1.2-0.4-1.8-0.3c-0.7,0-1.3,0.1-1.9,0.4
			c-0.6,0.3-1,0.7-1.4,1.2c-0.4,0.5-0.7,1.2-0.9,1.8C679.1,64.4,679,65.2,679,65.9L679,65.9z"/>
		<path class="st0" d="M697.2,72.6c-0.2,0-0.4,0.1-0.7,0.2c-0.3,0.1-0.7,0.1-1,0.1c-0.6,0-1.3-0.2-1.8-0.6c-0.5-0.6-0.7-1.3-0.6-2.1
			v-9.7h-1.9v-1.3h1.9v-3.7h1.5v3.7h2.5v1.3h-2.5v9.1c0,0.3,0,0.6,0,0.8c0,0.2,0.1,0.4,0.2,0.6c0.1,0.2,0.2,0.3,0.4,0.3
			c0.2,0.1,0.5,0.1,0.8,0.1c0.2,0,0.4,0,0.6,0c0.2,0,0.4-0.1,0.6-0.1L697.2,72.6z"/>
		<path class="st0" d="M699.3,56.3V54h1.7v2.3H699.3z M699.3,72.5V59.2h1.5v13.3H699.3z"/>
		<path class="st0" d="M702.9,59.2h1.7l4.3,11.4l4.3-11.4h1.7l-5.2,13.3H708L702.9,59.2z"/>
		<path class="st0" d="M717.6,66.2c0,0.7,0.1,1.4,0.3,2.1c0.2,0.6,0.5,1.2,0.8,1.7c0.4,0.5,0.9,0.9,1.4,1.1c0.6,0.3,1.3,0.4,1.9,0.4
			c0.9,0,1.8-0.3,2.6-0.8c0.7-0.6,1.2-1.4,1.4-2.3h1.7c-0.2,0.6-0.4,1.2-0.7,1.8c-0.3,0.5-0.7,1-1.2,1.4c-0.5,0.4-1,0.8-1.7,1
			c-0.7,0.2-1.5,0.3-2.2,0.3c-0.9,0-1.9-0.2-2.8-0.5c-0.8-0.3-1.4-0.8-1.9-1.5c-0.5-0.7-0.9-1.4-1.1-2.2c-0.3-0.9-0.4-1.8-0.4-2.7
			c0-0.9,0.1-1.9,0.4-2.8c0.3-0.8,0.7-1.6,1.2-2.3c0.5-0.6,1.2-1.2,1.9-1.5c0.8-0.4,1.7-0.6,2.6-0.6c1.7-0.1,3.3,0.7,4.3,1.9
			c1.1,1.6,1.7,3.5,1.5,5.5L717.6,66.2z M726.3,64.9c0-0.6-0.1-1.2-0.3-1.8c-0.2-0.5-0.4-1.1-0.8-1.5c-0.4-0.4-0.8-0.7-1.3-1
			c-0.6-0.3-1.2-0.4-1.8-0.4c-0.6,0-1.3,0.1-1.8,0.4c-0.5,0.2-1,0.6-1.3,1c-0.4,0.4-0.7,0.9-0.9,1.5c-0.2,0.6-0.4,1.2-0.4,1.8
			L726.3,64.9z"/>
		<path class="st0" d="M738,72.5V54h1.7v18.5H738z"/>
		<path class="st0" d="M745.3,72.5h-1.5V59.2h1.5V61c0.6-0.6,1.2-1.2,1.9-1.6c0.7-0.4,1.5-0.6,2.4-0.6c0.8,0,1.6,0.1,2.3,0.4
			c0.7,0.3,1.3,0.8,1.8,1.5c0.3,0.4,0.5,0.9,0.6,1.5c0.1,0.5,0.1,1.1,0.1,1.6v8.7h-1.6v-8.7c0.1-1-0.2-1.9-0.8-2.7
			c-0.7-0.7-1.7-1-2.7-0.9c-0.4,0-0.9,0.1-1.3,0.2c-0.4,0.1-0.7,0.3-1.1,0.6c-0.3,0.2-0.6,0.5-0.8,0.8c-0.2,0.3-0.4,0.6-0.5,1
			c-0.2,0.4-0.2,0.8-0.3,1.2c0,0.4,0,0.8,0,1.3V72.5z"/>
		<path class="st0" d="M759.1,72.5h-1.5V59.2h1.5V61c0.6-0.6,1.2-1.1,1.9-1.6c0.7-0.4,1.5-0.6,2.4-0.6c0.8,0,1.6,0.1,2.3,0.4
			c0.7,0.3,1.3,0.8,1.8,1.5c0.3,0.4,0.5,0.9,0.6,1.5c0.1,0.5,0.1,1.1,0.1,1.6v8.7h-1.6v-8.7c0.1-1-0.2-1.9-0.8-2.7
			c-0.7-0.7-1.7-1-2.6-0.9c-0.4,0-0.9,0.1-1.3,0.2c-0.4,0.1-0.7,0.3-1.1,0.6c-0.3,0.2-0.6,0.5-0.8,0.8c-0.2,0.3-0.4,0.6-0.5,1
			c-0.1,0.4-0.2,0.8-0.3,1.2c0,0.4,0,0.8,0,1.3V72.5z"/>
		<path class="st0" d="M776.6,72.9c-0.8,0-1.6-0.2-2.4-0.5c-0.7-0.3-1.4-0.7-1.9-1.3c-0.6-0.6-1-1.4-1.3-2.2c-0.3-1-0.5-2-0.5-3.1
			c0-0.9,0.1-1.9,0.4-2.7c0.2-0.8,0.6-1.6,1.2-2.2c0.5-0.6,1.2-1.2,1.9-1.5c0.8-0.4,1.8-0.6,2.7-0.6c0.9,0,1.9,0.2,2.7,0.6
			c0.8,0.3,1.4,0.9,1.9,1.5c0.5,0.7,0.9,1.4,1.1,2.2c0.3,0.9,0.4,1.8,0.4,2.8c0,1-0.1,2-0.4,2.9c-0.3,0.8-0.7,1.6-1.2,2.2
			c-0.5,0.6-1.2,1.1-1.9,1.4C778.4,72.8,777.5,72.9,776.6,72.9z M781.1,65.9c0-0.7-0.1-1.5-0.3-2.2c-0.2-0.6-0.4-1.2-0.8-1.8
			c-0.4-0.5-0.8-0.9-1.4-1.2c-0.6-0.3-1.4-0.5-2.1-0.4c-1.4-0.1-2.7,0.6-3.5,1.7c-0.4,0.5-0.6,1.2-0.8,1.8c-0.2,0.7-0.3,1.4-0.3,2.1
			c0,0.8,0.1,1.5,0.3,2.3c0.2,0.6,0.5,1.3,0.9,1.8c0.4,0.5,0.9,0.9,1.4,1.2c0.6,0.3,1.3,0.4,1.9,0.4c0.7,0,1.4-0.1,2.1-0.5
			c0.6-0.3,1-0.7,1.4-1.3c0.4-0.5,0.6-1.2,0.8-1.8C781.1,67.3,781.1,66.6,781.1,65.9z"/>
		<path class="st0" d="M783.7,59.2h1.7l4.3,11.4l4.3-11.4h1.7l-5.2,13.3h-1.7L783.7,59.2z"/>
		<path class="st0" d="M803.6,64.8c0.3,0,0.6-0.1,1-0.2c0.3,0,0.7-0.1,1-0.3c0.3-0.1,0.4-0.3,0.5-0.6c0.1-0.3,0.1-0.5,0.1-0.8
			c0-0.7-0.3-1.4-0.8-1.9c-0.7-0.6-1.6-0.8-2.6-0.8c-0.5,0-1,0-1.5,0.1c-0.4,0.1-0.8,0.2-1.2,0.5c-0.3,0.2-0.6,0.6-0.8,0.9
			c-0.2,0.5-0.4,0.9-0.4,1.5h-1.6c0-0.7,0.2-1.4,0.5-2c0.3-0.5,0.7-1,1.2-1.4c0.5-0.4,1.1-0.6,1.7-0.8c0.7-0.2,1.4-0.2,2.1-0.2
			c0.6,0,1.3,0.1,1.9,0.2c0.6,0.1,1.1,0.4,1.5,0.7c0.4,0.3,0.8,0.8,1,1.3c0.3,0.6,0.4,1.3,0.4,1.9v7.2c0,0.6,0.1,1,0.3,1.1
			s0.6,0.1,1.3-0.1v1.2l-0.5,0.2c-0.2,0.1-0.5,0.1-0.7,0.1c-0.2,0-0.5,0-0.7-0.1c-0.2,0-0.4-0.1-0.6-0.2c-0.2-0.1-0.3-0.3-0.4-0.5
			c-0.1-0.2-0.2-0.4-0.2-0.6c0-0.2-0.1-0.5-0.1-0.7c-0.6,0.7-1.4,1.3-2.2,1.7c-0.9,0.4-1.8,0.6-2.7,0.6c-0.6,0-1.1-0.1-1.7-0.2
			c-0.5-0.1-1-0.4-1.4-0.7c-0.4-0.3-0.7-0.7-1-1.2c-0.3-0.5-0.4-1.1-0.4-1.7c0-2.3,1.6-3.6,4.7-4L803.6,64.8z M806.2,65.5
			c-0.6,0.3-1.3,0.4-1.9,0.5c-0.6,0.1-1.3,0.2-2,0.2c-1,0-1.9,0.3-2.8,0.8c-0.7,0.5-1,1.2-1,2c0,0.4,0.1,0.7,0.2,1.1
			c0.2,0.3,0.4,0.5,0.6,0.7c0.3,0.2,0.6,0.4,0.9,0.4c0.3,0.1,0.7,0.1,1.1,0.1c0.6,0,1.2-0.1,1.7-0.2c0.6-0.1,1.1-0.4,1.6-0.7
			c0.4-0.3,0.8-0.7,1.1-1.2c0.3-0.5,0.4-1.1,0.4-1.7L806.2,65.5z"/>
		<path class="st0" d="M815.9,72.6c-0.2,0-0.4,0.1-0.7,0.2c-0.3,0.1-0.7,0.1-1,0.1c-0.6,0-1.3-0.2-1.8-0.6c-0.5-0.6-0.7-1.3-0.6-2.1
			v-9.7h-1.9v-1.3h1.9v-3.7h1.5v3.7h2.5v1.3h-2.5v9.1c0,0.3,0,0.6,0,0.8c0,0.2,0.1,0.4,0.2,0.6c0.1,0.2,0.2,0.3,0.4,0.3
			c0.2,0.1,0.5,0.1,0.8,0.1c0.2,0,0.4,0,0.6,0c0.2,0,0.4-0.1,0.6-0.1L815.9,72.6z"/>
		<path class="st0" d="M818,56.3V54h1.7v2.3H818z M818.1,72.5V59.2h1.5v13.3H818.1z"/>
		<path class="st0" d="M828.4,72.9c-0.8,0-1.6-0.2-2.4-0.5c-0.7-0.3-1.4-0.7-1.9-1.3c-0.6-0.6-1-1.4-1.3-2.2c-0.3-1-0.5-2-0.5-3.1
			c0-0.9,0.1-1.9,0.4-2.7c0.2-0.8,0.6-1.6,1.2-2.2c0.5-0.6,1.2-1.2,1.9-1.5c0.8-0.4,1.8-0.6,2.7-0.6c0.9,0,1.9,0.2,2.7,0.6
			c0.8,0.3,1.4,0.9,1.9,1.5c0.5,0.7,0.9,1.4,1.1,2.2c0.3,0.9,0.4,1.8,0.4,2.8c0,1-0.1,2-0.4,2.9c-0.3,0.8-0.7,1.6-1.2,2.2
			c-0.5,0.6-1.2,1.1-1.9,1.4C830.1,72.8,829.3,72.9,828.4,72.9z M832.9,65.9c0-0.7-0.1-1.5-0.3-2.2c-0.1-0.6-0.4-1.2-0.8-1.8
			c-0.4-0.5-0.8-0.9-1.4-1.2c-0.6-0.3-1.4-0.5-2.1-0.4c-0.7,0-1.4,0.1-2.1,0.5c-0.6,0.3-1,0.7-1.4,1.3c-0.4,0.5-0.6,1.2-0.8,1.8
			c-0.2,0.7-0.3,1.4-0.3,2.1c0,0.8,0.1,1.5,0.3,2.3c0.2,0.6,0.5,1.3,0.9,1.8c0.4,0.5,0.9,0.9,1.4,1.2c0.6,0.3,1.3,0.4,1.9,0.4
			c0.7,0,1.4-0.1,2.1-0.5c0.6-0.3,1-0.7,1.4-1.3c0.4-0.5,0.6-1.2,0.8-1.8C832.8,67.3,832.9,66.6,832.9,65.9L832.9,65.9z"/>
		<path class="st0" d="M838.4,72.5h-1.5V59.2h1.5V61c0.6-0.6,1.2-1.2,1.9-1.6c0.7-0.4,1.5-0.6,2.4-0.6c0.8,0,1.6,0.1,2.3,0.4
			c0.7,0.3,1.3,0.8,1.8,1.5c0.3,0.4,0.5,0.9,0.6,1.5c0.1,0.5,0.1,1.1,0.1,1.6v8.7h-1.5v-8.7c0.1-1-0.2-1.9-0.8-2.7
			c-0.7-0.7-1.7-1-2.7-0.9c-0.4,0-0.9,0.1-1.3,0.2c-0.4,0.1-0.7,0.3-1.1,0.6c-0.3,0.2-0.6,0.5-0.8,0.8c-0.2,0.3-0.4,0.6-0.5,1
			c-0.2,0.4-0.2,0.8-0.3,1.2c0,0.4,0,0.8,0,1.3L838.4,72.5z"/>
		<path class="st0" d="M513.3,97.1c0.3,0,0.6-0.1,1-0.2c0.3,0,0.7-0.1,1-0.3c0.2-0.1,0.4-0.3,0.5-0.6c0.1-0.3,0.1-0.5,0.1-0.8
			c0-0.7-0.2-1.4-0.8-1.9c-0.7-0.6-1.6-0.8-2.6-0.8c-0.5,0-1,0-1.5,0.1c-0.4,0.1-0.8,0.2-1.2,0.5c-0.3,0.3-0.6,0.6-0.8,1
			c-0.2,0.5-0.4,0.9-0.4,1.4h-1.6c0-0.7,0.2-1.4,0.5-2c0.3-0.5,0.7-1,1.2-1.4c0.5-0.4,1.1-0.6,1.7-0.8c0.7-0.2,1.4-0.2,2-0.2
			c0.6,0,1.3,0.1,1.9,0.2c0.6,0.1,1.1,0.4,1.5,0.7c0.4,0.3,0.8,0.8,1,1.3c0.3,0.6,0.4,1.3,0.4,1.9v7.2c0,0.6,0.1,1,0.3,1.1
			c0.2,0.2,0.7,0.1,1.3-0.1v1.2l-0.5,0.2c-0.2,0.1-0.5,0.1-0.7,0.1c-0.2,0-0.5,0-0.7-0.1c-0.2,0-0.4-0.1-0.6-0.2
			c-0.2-0.1-0.3-0.3-0.4-0.5c-0.1-0.2-0.2-0.4-0.2-0.6c0-0.2,0-0.5,0-0.7c-1.3,1.4-3.1,2.2-5,2.2c-0.6,0-1.1-0.1-1.7-0.2
			c-0.5-0.1-1-0.4-1.4-0.7c-0.4-0.3-0.7-0.7-1-1.2c-0.3-0.5-0.4-1.1-0.4-1.7c0-2.3,1.5-3.6,4.7-4L513.3,97.1z M515.9,97.9
			c-0.6,0.3-1.3,0.4-1.9,0.5c-0.7,0.1-1.3,0.2-2,0.2c-1,0-1.9,0.3-2.8,0.8c-0.7,0.5-1,1.2-1,2c0,0.7,0.3,1.4,0.9,1.8
			c0.3,0.2,0.6,0.3,0.9,0.4c0.3,0.1,0.7,0.1,1.1,0.1c0.6,0,1.2-0.1,1.8-0.2c0.6-0.1,1.1-0.4,1.6-0.7c1-0.6,1.5-1.7,1.5-2.9
			L515.9,97.9z"/>
		<path class="st0" d="M522.3,104.9h-1.6V91.5h1.6v1.9c0.6-0.6,1.2-1.1,1.9-1.6c0.7-0.4,1.5-0.6,2.4-0.6c0.8,0,1.6,0.1,2.3,0.4
			c0.7,0.3,1.3,0.8,1.8,1.5c0.3,0.4,0.5,0.9,0.6,1.5c0.1,0.5,0.1,1.1,0.1,1.6v8.7h-1.6v-8.7c0.1-1-0.2-1.9-0.8-2.7
			c-0.7-0.7-1.7-1-2.7-0.9c-0.4,0-0.9,0.1-1.3,0.2c-0.4,0.1-0.7,0.3-1.1,0.6c-0.3,0.2-0.6,0.5-0.8,0.8c-0.2,0.3-0.4,0.6-0.5,1
			c-0.1,0.4-0.2,0.8-0.3,1.2c0,0.4,0,0.8,0,1.3L522.3,104.9z"/>
		<path class="st0" d="M544.6,86.3h1.5v18.5h-1.5v-2.3l0,0c-0.2,0.4-0.5,0.8-0.9,1.2c-0.3,0.3-0.7,0.6-1.2,0.8
			c-0.4,0.2-0.9,0.4-1.3,0.5c-0.4,0.1-0.9,0.2-1.3,0.2c-0.9,0-1.9-0.2-2.8-0.5c-0.7-0.3-1.4-0.9-1.9-1.5c-0.5-0.7-0.9-1.4-1.1-2.2
			c-0.2-0.9-0.3-1.8-0.3-2.8c0-0.9,0.1-1.8,0.4-2.7c0.2-0.8,0.6-1.6,1.1-2.2c0.5-0.6,1.1-1.2,1.9-1.5c0.8-0.4,1.7-0.6,2.6-0.6
			c0.9,0,1.9,0.2,2.7,0.6c0.8,0.4,1.5,1.1,2,1.9V86.3z M544.6,98.1c0-0.7-0.1-1.5-0.3-2.1c-0.2-0.6-0.5-1.2-0.9-1.8
			c-0.4-0.5-0.9-0.9-1.4-1.2c-0.6-0.3-1.2-0.5-1.9-0.5c-0.7,0-1.4,0.1-2.1,0.5c-0.6,0.3-1.1,0.8-1.4,1.3c-0.4,0.6-0.7,1.2-0.8,1.9
			c-0.2,0.8-0.2,1.6-0.2,2.4c0,0.8,0.1,1.5,0.3,2.2c0.2,0.6,0.5,1.2,1,1.6c0.4,0.4,0.9,0.8,1.4,1c0.6,0.2,1.2,0.4,1.8,0.3
			c1.3,0,2.6-0.6,3.4-1.6c0.4-0.5,0.7-1.2,0.9-1.8C544.5,99.7,544.6,98.9,544.6,98.1z"/>
		<path class="st0" d="M555.9,104.9V86.3h12.3v1.5h-10.6v6.7h9.5V96h-9.5v7.4h10.8v1.5L555.9,104.9z"/>
		<path class="st0" d="M572.2,104.9h-1.5V91.5h1.5v1.9c0.6-0.6,1.2-1.1,1.9-1.6c0.7-0.4,1.5-0.6,2.4-0.6c0.8,0,1.6,0.1,2.3,0.4
			c0.7,0.3,1.3,0.8,1.8,1.5c0.3,0.4,0.5,0.9,0.6,1.5c0.1,0.5,0.1,1.1,0.1,1.6v8.7h-1.5v-8.7c0.1-1-0.2-1.9-0.8-2.7
			c-0.7-0.7-1.7-1-2.7-0.9c-0.4,0-0.9,0.1-1.3,0.2c-0.4,0.1-0.7,0.3-1.1,0.6c-0.3,0.2-0.6,0.5-0.8,0.8c-0.2,0.3-0.4,0.6-0.5,1
			c-0.2,0.4-0.2,0.8-0.3,1.2c0,0.4-0.1,0.8-0.1,1.3L572.2,104.9z"/>
		<path class="st0" d="M590.3,97.1c0.3,0,0.6-0.1,1-0.2c0.3,0,0.7-0.1,1-0.3c0.3-0.1,0.4-0.3,0.5-0.6c0.1-0.3,0.1-0.5,0.1-0.8
			c0-0.7-0.3-1.4-0.8-1.9c-0.7-0.6-1.6-0.8-2.6-0.8c-0.5,0-1,0-1.5,0.1c-0.4,0.1-0.8,0.2-1.2,0.5c-0.3,0.3-0.6,0.6-0.8,1
			c-0.2,0.5-0.4,0.9-0.4,1.5h-1.6c0-0.7,0.2-1.4,0.5-2c0.3-0.5,0.7-1,1.2-1.4c0.5-0.4,1.1-0.6,1.7-0.8c0.7-0.2,1.4-0.2,2.1-0.2
			c0.6,0,1.3,0.1,1.9,0.2c0.6,0.1,1.1,0.4,1.5,0.7c0.4,0.3,0.8,0.8,1,1.3c0.3,0.6,0.4,1.3,0.4,1.9v7.2c0,0.6,0.1,1,0.3,1.1
			c0.2,0.2,0.6,0.1,1.3-0.1v1.2l-0.5,0.2c-0.2,0.1-0.5,0.1-0.7,0.1c-0.2,0-0.5,0-0.7-0.1c-0.2,0-0.4-0.1-0.6-0.2
			c-0.2-0.1-0.3-0.3-0.4-0.5c-0.1-0.2-0.2-0.4-0.2-0.6c0-0.2,0-0.5,0-0.7c-0.6,0.7-1.4,1.3-2.2,1.7c-0.9,0.4-1.8,0.6-2.7,0.6
			c-0.6,0-1.1-0.1-1.7-0.2c-0.5-0.1-1-0.4-1.4-0.7c-0.4-0.3-0.7-0.7-1-1.2c-0.2-0.5-0.4-1.1-0.4-1.7c0-2.3,1.6-3.6,4.7-4L590.3,97.1
			z M592.9,97.9c-0.6,0.3-1.3,0.4-1.9,0.5c-0.7,0.1-1.3,0.2-2,0.2c-1,0-1.9,0.3-2.8,0.8c-0.7,0.5-1,1.2-1,2c0,0.4,0.1,0.7,0.3,1.1
			c0.2,0.3,0.4,0.6,0.6,0.7c0.3,0.2,0.6,0.3,0.9,0.4c0.3,0.1,0.7,0.1,1.1,0.1c0.6,0,1.2-0.1,1.8-0.2c0.6-0.1,1.1-0.4,1.6-0.7
			c0.4-0.3,0.8-0.7,1.1-1.2c0.3-0.5,0.4-1.1,0.4-1.7L592.9,97.9z"/>
		<path class="st0" d="M599.5,104.9h-1.5V86.3h1.5v7.3c0.5-0.8,1.2-1.5,2-1.9c0.8-0.4,1.8-0.6,2.7-0.6c0.9,0,1.8,0.2,2.6,0.6
			c0.7,0.4,1.4,0.9,1.9,1.5c0.5,0.7,0.9,1.4,1.1,2.2c0.2,0.9,0.4,1.8,0.4,2.7c0,0.9-0.1,1.9-0.3,2.8c-0.2,0.8-0.6,1.6-1.1,2.2
			c-0.5,0.6-1.1,1.1-1.9,1.5c-0.9,0.4-1.8,0.6-2.8,0.5c-0.4,0-0.9-0.1-1.3-0.2c-0.5-0.1-0.9-0.3-1.3-0.5c-0.4-0.2-0.8-0.5-1.2-0.8
			c-0.4-0.3-0.6-0.7-0.9-1.2l0,0L599.5,104.9z M599.5,98.1c0,0.8,0.1,1.5,0.3,2.3c0.2,0.6,0.5,1.3,0.9,1.8c0.4,0.5,0.9,0.9,1.4,1.2
			c0.6,0.3,1.3,0.5,1.9,0.4c0.6,0,1.2-0.1,1.8-0.3c0.5-0.2,1-0.5,1.4-1c0.4-0.5,0.8-1,1-1.6c0.2-0.7,0.4-1.5,0.3-2.2
			c0-0.8,0-1.6-0.2-2.4c-0.1-0.7-0.4-1.4-0.8-1.9c-0.4-0.5-0.9-1-1.5-1.3c-0.6-0.3-1.4-0.5-2.1-0.5c-0.7,0-1.3,0.1-1.9,0.5
			c-0.6,0.3-1,0.7-1.4,1.2c-0.4,0.5-0.7,1.1-0.9,1.8C599.6,96.7,599.5,97.4,599.5,98.1z"/>
		<path class="st0" d="M613,104.9V86.3h1.5v18.5L613,104.9z"/>
		<path class="st0" d="M617.8,88.6v-2.3h1.7v2.3H617.8z M617.9,104.9V91.5h1.5v13.3L617.9,104.9z"/>
		<path class="st0" d="M624.2,104.9h-1.5V91.5h1.5v1.9c0.6-0.6,1.2-1.1,1.9-1.6c0.7-0.4,1.5-0.6,2.4-0.6c0.8,0,1.6,0.1,2.3,0.4
			c0.7,0.3,1.3,0.8,1.8,1.5c0.3,0.4,0.5,0.9,0.6,1.5c0.1,0.5,0.1,1.1,0.1,1.6v8.7h-1.5v-8.7c0.1-1-0.2-1.9-0.8-2.7
			c-0.7-0.7-1.7-1-2.7-0.9c-0.4,0-0.9,0.1-1.3,0.2c-0.4,0.1-0.7,0.3-1.1,0.6c-0.3,0.2-0.6,0.5-0.8,0.8c-0.2,0.3-0.4,0.6-0.5,1
			c-0.2,0.4-0.2,0.8-0.3,1.2c0,0.4-0.1,0.8-0.1,1.3L624.2,104.9z"/>
		<path class="st0" d="M646.5,91.5h1.5v12.1c0,0.9-0.1,1.7-0.3,2.6c-0.2,0.8-0.5,1.5-1,2.1c-0.5,0.6-1.2,1.2-1.9,1.5
			c-1.8,0.7-3.8,0.7-5.6,0.2c-0.6-0.2-1.2-0.5-1.7-1c-0.4-0.3-0.7-0.8-1-1.2c-0.2-0.4-0.3-0.8-0.4-1.3h1.6c0.1,0.4,0.3,0.9,0.6,1.2
			c0.2,0.3,0.6,0.6,0.9,0.7c0.4,0.2,0.8,0.3,1.2,0.4c0.4,0.1,0.9,0.1,1.3,0.1c0.9,0,1.7-0.1,2.5-0.5c0.6-0.3,1.1-0.8,1.4-1.4
			c0.3-0.6,0.5-1.3,0.6-1.9c0.1-0.8,0.1-1.5,0.1-2.3c-0.5,0.8-1.2,1.5-2,1.9c-0.8,0.4-1.8,0.6-2.7,0.6c-0.9,0-1.8-0.2-2.6-0.6
			c-0.7-0.4-1.4-0.9-1.9-1.5c-0.5-0.7-0.9-1.4-1.1-2.3c-0.2-0.9-0.4-1.8-0.4-2.7c0-0.9,0.1-1.9,0.3-2.8c0.2-0.8,0.6-1.6,1.1-2.2
			c0.5-0.6,1.1-1.1,1.9-1.5c0.9-0.4,1.8-0.6,2.8-0.5c0.4,0,0.9,0.1,1.3,0.2c0.5,0.1,0.9,0.3,1.3,0.5c0.4,0.2,0.8,0.5,1.2,0.8
			c0.4,0.3,0.6,0.7,0.9,1.2h0L646.5,91.5z M646.5,98.2c0-0.8-0.1-1.5-0.3-2.2c-0.2-0.7-0.5-1.3-0.9-1.8c-0.4-0.5-0.9-0.9-1.4-1.2
			c-0.6-0.3-1.3-0.4-1.9-0.4c-0.6,0-1.2,0.1-1.8,0.3c-0.6,0.2-1,0.6-1.4,1c-0.4,0.5-0.8,1-1,1.6c-0.2,0.7-0.4,1.5-0.3,2.2
			c0,0.8,0,1.6,0.2,2.4c0.1,0.7,0.4,1.4,0.8,1.9c0.4,0.5,0.9,1,1.4,1.3c0.6,0.3,1.4,0.5,2.1,0.5c0.7,0,1.3-0.1,1.9-0.4
			c0.6-0.3,1-0.7,1.4-1.2c0.4-0.5,0.7-1.1,0.9-1.8C646.4,99.7,646.5,99,646.5,98.2z"/>
		<path class="st0" d="M656.2,86.3h13.5v1.5h-5.8v17h-1.7v-17h-5.8L656.2,86.3z"/>
		<path class="st0" d="M672.1,98.5c0,0.7,0.1,1.4,0.3,2.1c0.2,0.6,0.5,1.2,0.8,1.7c0.4,0.5,0.9,0.9,1.4,1.1c1.5,0.7,3.2,0.5,4.5-0.4
			c0.7-0.6,1.3-1.4,1.4-2.3h1.7c-0.2,0.6-0.4,1.2-0.7,1.8c-0.6,1.1-1.6,1.9-2.8,2.4c-0.7,0.2-1.5,0.3-2.2,0.3
			c-0.9,0-1.9-0.2-2.8-0.5c-0.8-0.3-1.4-0.8-1.9-1.5c-0.5-0.7-0.9-1.4-1.1-2.2c-0.2-0.9-0.4-1.8-0.4-2.8c0-0.9,0.1-1.9,0.4-2.8
			c0.3-0.8,0.7-1.6,1.2-2.3c0.5-0.6,1.2-1.2,1.9-1.5c0.8-0.4,1.7-0.6,2.6-0.6c1.7-0.1,3.3,0.6,4.3,1.9c1.1,1.6,1.7,3.5,1.5,5.5
			L672.1,98.5z M680.9,97.2c0-0.6-0.1-1.2-0.3-1.8c-0.2-0.5-0.4-1.1-0.8-1.5c-0.4-0.4-0.8-0.8-1.3-1c-0.6-0.3-1.2-0.4-1.8-0.4
			c-0.6,0-1.2,0.1-1.8,0.4c-0.5,0.2-1,0.6-1.3,1c-0.4,0.4-0.7,1-0.9,1.5c-0.2,0.6-0.4,1.2-0.4,1.8L680.9,97.2z"/>
		<path class="st0" d="M694.2,95.7c-0.2-0.9-0.7-1.7-1.4-2.3c-0.7-0.6-1.6-0.9-2.5-0.8c-0.7,0-1.4,0.2-2,0.5c-0.6,0.3-1,0.8-1.4,1.3
			c-0.4,0.6-0.6,1.2-0.8,1.8c-0.2,0.7-0.3,1.4-0.3,2.1c0,0.7,0.1,1.4,0.2,2.1c0.2,0.6,0.4,1.2,0.8,1.8c0.4,0.5,0.8,1,1.4,1.3
			c0.6,0.3,1.3,0.5,2.1,0.5c1,0,2-0.3,2.8-1c0.7-0.7,1.2-1.6,1.3-2.6h1.6c-0.1,0.7-0.3,1.4-0.7,2c-0.3,0.6-0.7,1.1-1.2,1.6
			c-0.5,0.4-1.1,0.8-1.7,1c-0.7,0.3-1.5,0.4-2.2,0.4c-0.9,0-1.9-0.2-2.8-0.5c-0.7-0.3-1.4-0.9-1.9-1.5c-0.5-0.7-0.9-1.4-1.1-2.2
			c-0.2-0.9-0.4-1.8-0.4-2.8c0-0.9,0.1-1.8,0.4-2.7c0.2-0.8,0.6-1.6,1.2-2.3c1.1-1.4,2.8-2.2,4.6-2.1c1.3-0.1,2.7,0.3,3.7,1.1
			c1,0.9,1.7,2.1,1.8,3.4L694.2,95.7z"/>
		<path class="st0" d="M698.3,104.9V86.3h1.5v7.1c0.6-0.6,1.2-1.1,1.9-1.6c0.7-0.4,1.5-0.6,2.4-0.6c0.8,0,1.6,0.1,2.3,0.4
			c0.7,0.3,1.3,0.8,1.8,1.5c0.3,0.4,0.5,0.9,0.6,1.5c0.1,0.5,0.1,1.1,0.1,1.6v8.7h-1.5v-8.7c0.1-1-0.2-1.9-0.8-2.7
			c-0.7-0.7-1.7-1-2.7-0.9c-0.4,0-0.9,0.1-1.3,0.2c-0.4,0.1-0.7,0.3-1.1,0.6c-0.3,0.2-0.6,0.5-0.8,0.8c-0.2,0.3-0.4,0.6-0.5,1
			c-0.1,0.4-0.2,0.8-0.3,1.2c0,0.4,0,0.8,0,1.3v7.2L698.3,104.9z"/>
		<path class="st0" d="M713.2,105h-1.5V91.6h1.5v1.9c0.6-0.6,1.2-1.2,1.9-1.6c0.7-0.4,1.5-0.6,2.4-0.6c0.8,0,1.6,0.1,2.3,0.4
			c0.7,0.3,1.3,0.8,1.8,1.5c0.3,0.4,0.5,0.9,0.6,1.5c0.1,0.5,0.1,1.1,0.1,1.6v8.7h-1.5v-8.7c0.1-1-0.2-1.9-0.8-2.7
			c-0.7-0.7-1.7-1-2.7-0.9c-0.4,0-0.9,0.1-1.3,0.2c-0.4,0.1-0.7,0.3-1.1,0.6c-0.3,0.2-0.6,0.5-0.8,0.8c-0.2,0.3-0.4,0.6-0.5,1
			c-0.1,0.4-0.2,0.8-0.3,1.2c0,0.4,0,0.8,0,1.3L713.2,105z"/>
		<path class="st0" d="M730.7,105.2c-0.8,0-1.6-0.2-2.4-0.5c-0.7-0.3-1.4-0.7-1.9-1.3c-0.6-0.6-1-1.4-1.3-2.2c-0.3-1-0.5-2-0.5-3.1
			c0-0.9,0.1-1.9,0.4-2.7c0.2-0.8,0.6-1.6,1.2-2.2c0.5-0.6,1.2-1.2,1.9-1.5c0.8-0.4,1.8-0.6,2.7-0.6c0.9,0,1.9,0.2,2.7,0.6
			c0.8,0.3,1.4,0.9,1.9,1.5c0.5,0.7,0.9,1.4,1.1,2.2c0.3,0.9,0.4,1.8,0.4,2.8c0,1-0.1,2-0.4,2.9c-0.3,0.8-0.7,1.6-1.2,2.2
			c-0.5,0.6-1.2,1.1-1.9,1.4C732.5,105.1,731.6,105.2,730.7,105.2z M735.2,98.2c0-0.7-0.1-1.5-0.3-2.2c-0.1-0.6-0.4-1.2-0.8-1.8
			c-0.4-0.5-0.8-0.9-1.4-1.2c-0.6-0.3-1.4-0.5-2.1-0.4c-0.7,0-1.4,0.1-2.1,0.5c-0.6,0.3-1,0.7-1.4,1.3c-0.4,0.5-0.6,1.2-0.8,1.8
			c-0.2,0.7-0.3,1.4-0.3,2.1c0,0.8,0.1,1.5,0.3,2.3c0.2,0.6,0.5,1.2,0.9,1.8c0.4,0.5,0.9,0.9,1.4,1.1c0.6,0.3,1.3,0.4,1.9,0.4
			c0.7,0,1.4-0.1,2.1-0.5c0.6-0.3,1-0.7,1.4-1.3c0.4-0.5,0.6-1.2,0.8-1.8C735.1,99.6,735.2,98.9,735.2,98.2z"/>
		<path class="st0" d="M739.2,104.9V86.3h1.5v18.5L739.2,104.9z"/>
		<path class="st0" d="M749.2,105.2c-0.8,0-1.6-0.2-2.4-0.5c-0.7-0.3-1.4-0.7-1.9-1.3c-0.6-0.6-1-1.4-1.3-2.2c-0.3-1-0.5-2-0.5-3.1
			c0-0.9,0.1-1.9,0.4-2.7c0.2-0.8,0.6-1.6,1.2-2.2c0.5-0.6,1.2-1.2,1.9-1.5c1.7-0.7,3.7-0.7,5.4,0c0.8,0.3,1.4,0.9,1.9,1.5
			c0.5,0.7,0.9,1.4,1.1,2.2c0.2,0.9,0.4,1.8,0.4,2.8c0,1-0.1,2-0.4,2.9c-0.3,0.8-0.7,1.6-1.2,2.2c-0.5,0.6-1.2,1.1-1.9,1.4
			C751,105.1,750.1,105.2,749.2,105.2z M753.8,98.2c0-0.7-0.1-1.5-0.3-2.2c-0.2-0.6-0.4-1.2-0.8-1.8c-0.4-0.5-0.8-0.9-1.4-1.2
			c-0.7-0.3-1.4-0.5-2.1-0.4c-0.7,0-1.4,0.1-2.1,0.5c-0.6,0.3-1,0.7-1.4,1.3c-0.4,0.5-0.6,1.2-0.8,1.8c-0.2,0.7-0.3,1.4-0.3,2.1
			c0,0.8,0.1,1.5,0.3,2.3c0.2,0.6,0.5,1.3,0.9,1.8c0.4,0.5,0.9,0.9,1.4,1.2c0.6,0.3,1.3,0.4,1.9,0.4c0.7,0,1.4-0.1,2.1-0.5
			c0.6-0.3,1-0.7,1.4-1.3c0.4-0.5,0.6-1.2,0.8-1.8C753.7,99.6,753.8,98.9,753.8,98.2L753.8,98.2z"/>
		<path class="st0" d="M767.8,91.5h1.5v12.1c0,0.9-0.1,1.7-0.3,2.6c-0.2,0.8-0.5,1.5-1,2.1c-0.5,0.7-1.2,1.2-1.9,1.5
			c-1,0.4-2.1,0.6-3.1,0.6c-0.9,0-1.7-0.1-2.5-0.4c-0.6-0.2-1.2-0.5-1.7-1c-0.4-0.3-0.7-0.8-1-1.2c-0.2-0.4-0.3-0.8-0.4-1.3h1.7
			c0.1,0.4,0.3,0.9,0.6,1.2c0.2,0.3,0.6,0.6,0.9,0.7c0.4,0.2,0.8,0.3,1.2,0.4c0.4,0.1,0.9,0.1,1.3,0.1c0.9,0,1.7-0.1,2.5-0.5
			c0.6-0.3,1.1-0.8,1.4-1.4c0.3-0.6,0.5-1.3,0.6-1.9c0.1-0.8,0.1-1.5,0.1-2.3c-0.5,0.8-1.2,1.5-2.1,1.9c-0.8,0.4-1.8,0.6-2.7,0.6
			c-0.9,0-1.8-0.2-2.6-0.6c-0.7-0.4-1.4-0.9-1.8-1.5c-0.5-0.7-0.9-1.4-1.1-2.3c-0.2-0.9-0.4-1.8-0.4-2.7c0-0.9,0.1-1.9,0.3-2.8
			c0.2-0.8,0.6-1.6,1.1-2.2c0.5-0.6,1.1-1.1,1.9-1.5c0.9-0.4,1.8-0.6,2.8-0.5c0.4,0,0.9,0.1,1.3,0.2c0.5,0.1,0.9,0.3,1.3,0.5
			c0.4,0.2,0.8,0.5,1.2,0.8c0.3,0.3,0.6,0.7,0.9,1.2h0.1L767.8,91.5z M767.8,98.2c0-0.8-0.1-1.5-0.3-2.2c-0.2-0.6-0.5-1.3-0.9-1.8
			c-0.4-0.5-0.9-0.9-1.4-1.2c-0.6-0.3-1.3-0.5-1.9-0.4c-0.6,0-1.2,0.1-1.8,0.3c-0.5,0.2-1,0.6-1.4,1c-0.4,0.5-0.8,1-1,1.6
			c-0.2,0.7-0.4,1.5-0.3,2.2c0,0.8,0,1.6,0.2,2.4c0.1,0.7,0.4,1.4,0.8,1.9c0.4,0.5,0.9,1,1.4,1.3c0.6,0.3,1.4,0.5,2.1,0.5
			c0.7,0,1.3-0.1,1.9-0.4c0.6-0.3,1-0.7,1.4-1.2c0.4-0.5,0.7-1.1,0.9-1.8C767.7,99.7,767.8,99,767.8,98.2z"/>
		<path class="st0" d="M772.6,88.6v-2.3h1.7v2.3H772.6z M772.7,104.9V91.5h1.5v13.3L772.7,104.9z"/>
		<path class="st0" d="M778.4,98.5c0,0.7,0.1,1.4,0.3,2.1c0.2,0.6,0.5,1.2,0.8,1.7c0.4,0.5,0.9,0.9,1.4,1.1c0.6,0.3,1.3,0.4,1.9,0.4
			c0.9,0,1.8-0.3,2.6-0.8c0.7-0.6,1.2-1.4,1.4-2.3h1.7c-0.2,0.6-0.4,1.2-0.7,1.8c-0.3,0.5-0.7,1-1.2,1.4c-0.5,0.4-1,0.8-1.7,1
			c-0.7,0.2-1.5,0.3-2.2,0.3c-0.9,0-1.9-0.2-2.8-0.5c-0.8-0.3-1.4-0.8-1.9-1.5c-0.5-0.7-0.9-1.4-1.1-2.2c-0.2-0.9-0.4-1.8-0.4-2.8
			c0-0.9,0.1-1.9,0.4-2.8c0.3-0.8,0.7-1.6,1.2-2.3c0.5-0.6,1.2-1.2,1.9-1.5c0.8-0.4,1.7-0.6,2.6-0.6c1.7-0.1,3.3,0.6,4.3,1.9
			c1.1,1.6,1.7,3.5,1.5,5.5L778.4,98.5z M787.1,97.2c0-0.6-0.1-1.2-0.3-1.8c-0.2-0.5-0.4-1.1-0.8-1.5c-0.4-0.4-0.8-0.8-1.3-1
			c-0.6-0.3-1.2-0.4-1.8-0.4c-1.2,0-2.4,0.5-3.1,1.4c-0.4,0.4-0.7,1-0.9,1.5c-0.2,0.6-0.4,1.2-0.4,1.8L787.1,97.2z"/>
		<path class="st0" d="M791.9,100.7c0.1,0.9,0.6,1.8,1.3,2.4c0.8,0.5,1.7,0.8,2.7,0.7c0.5,0,1-0.1,1.5-0.2c0.4-0.1,0.7-0.3,1-0.6
			c0.3-0.2,0.5-0.5,0.6-0.8c0.1-0.3,0.2-0.6,0.2-1c0-0.6-0.2-1.1-0.6-1.5c-0.5-0.3-1-0.6-1.6-0.7c-0.6-0.2-1.3-0.3-2.1-0.5
			c-0.7-0.1-1.4-0.3-2.1-0.6c-0.6-0.2-1.2-0.6-1.6-1.1c-0.5-0.6-0.7-1.3-0.6-2c0-1.1,0.4-2.1,1.2-2.7c1-0.8,2.2-1.1,3.5-1.1
			c1.2-0.1,2.5,0.3,3.5,1c1,0.8,1.6,2,1.6,3.2h-1.6c0-0.9-0.5-1.7-1.2-2.2c-0.7-0.4-1.6-0.7-2.4-0.6c-0.8-0.1-1.6,0.2-2.2,0.6
			c-0.5,0.4-0.8,1-0.8,1.7c0,0.5,0.2,1,0.6,1.4c0.5,0.3,1,0.6,1.6,0.8c0.6,0.2,1.3,0.4,2.1,0.5c0.7,0.1,1.4,0.4,2.1,0.7
			c0.6,0.3,1.1,0.7,1.6,1.1c0.5,0.6,0.7,1.3,0.6,2c0,0.6-0.1,1.2-0.4,1.7c-0.3,0.5-0.7,0.9-1.1,1.2c-0.5,0.3-1.1,0.6-1.7,0.7
			c-0.7,0.2-1.4,0.3-2.2,0.2c-0.7,0-1.4-0.1-2.1-0.3c-0.6-0.2-1.1-0.5-1.6-1c-0.4-0.4-0.7-0.9-1-1.4c-0.2-0.6-0.4-1.2-0.4-1.8
			L791.9,100.7z"/>
	</g>
	<line class="st1" x1="477.7" y1="132.2" x2="477.7" y2="0"/>
	<g>
		<g>
			<path class="st0" d="M132.3,56.8c-0.2,0.9-1.1,4.7-1.4,5.7h-17.3v-1.1c3.1-0.3,3.3-0.5,3.3-3.3V44.9c0-2.9-0.4-3.1-2.8-3.3v-1.2
				h10.8c3.4,0,4.7,0,5.1-0.1c0,0.7,0.2,3.4,0.3,5.4l-1.2,0.2c-0.3-1.2-0.8-2.3-1.3-3c-0.6-0.8-1.1-1.1-3-1.1h-2.6
				c-1.2,0-1.3,0.1-1.3,1.2v7.3h3.5c2.1,0,2.4-0.5,2.9-2.9h1.2v7.4h-1.2c-0.5-2.5-0.8-2.9-2.9-2.9H121v6.2c0,2.4,0.3,2.9,2.3,2.9
				h2.7c2,0,2.4-0.3,3.2-1.2c0.8-0.9,1.5-2.2,2-3.3L132.3,56.8z"/>
			<path class="st0" d="M156.1,53.2c-2,0.3-2.2,0.5-2.2,2.7v2.7c0,1.2,0,2.4,0.2,3.3c-1.9,0.4-5.3,1.2-8.1,1.2
				c-7.9,0-12.5-4.8-12.5-11.6c0-7.5,6.1-11.5,13.2-11.5c3,0,5.8,0.7,6.9,0.8c0.1,1.4,0.3,3.8,0.6,5.8l-1.2,0.2
				c-0.8-2.9-2-4.3-4.1-5c-0.8-0.3-2.1-0.4-3-0.4c-4.5,0-7.7,3.6-7.7,9.6c0,5.8,2.3,10.7,8.3,10.7c0.8,0,1.8-0.1,2.4-0.5
				c0.6-0.3,0.9-0.8,0.9-2v-2.9c0-2.4-0.4-2.7-3.4-3V52h9.7V53.2z"/>
			<path class="st0" d="M169.6,62.5v-1.2c2.2-0.3,2.3-0.7,1.8-2.1c-0.4-1.1-1-2.7-1.5-4.4H163c-0.4,1.2-0.9,2.5-1.3,3.7
				c-0.7,2.2,0,2.4,2.7,2.7v1.2h-8.2v-1.2c2.1-0.3,2.7-0.6,3.9-3.5l7.1-17.7l1.4-0.3c2.2,5.9,4.5,12.1,6.7,17.8
				c1.2,3.1,1.5,3.3,3.8,3.6v1.2H169.6z M166.5,45.6c-1,2.6-2,5.2-3,7.7h5.7L166.5,45.6z"/>
			<path class="st0" d="M189.3,40.4c4.5,0,7.6,0.9,9.8,3c1.7,1.6,3,4,3,7.4c0,3.9-1.6,7-4.3,9c-2.5,1.9-5.8,2.8-9.8,2.8h-8.9v-1.2
				c2.7-0.2,3-0.5,3-3.3V44.9c0-2.9-0.4-3.1-3-3.3v-1.2H189.3z M186.2,57.8c0,2.5,0.8,3.2,3.3,3.2c5.1,0,7.9-3.5,7.9-9.8
				c0-3.4-1-6.2-3-7.7c-1.5-1.3-3.3-1.7-5.6-1.7c-1.4,0-2,0.2-2.3,0.5c-0.3,0.3-0.4,0.8-0.4,1.9V57.8z"/>
			<path class="st0" d="M222.3,56.8c-0.2,0.9-1.1,4.7-1.4,5.7h-17.3v-1.1c3.1-0.3,3.3-0.5,3.3-3.3V44.9c0-2.9-0.4-3.1-2.8-3.3v-1.2
				H215c3.4,0,4.7,0,5.1-0.1c0,0.7,0.2,3.4,0.3,5.4l-1.2,0.2c-0.3-1.2-0.8-2.3-1.3-3c-0.6-0.8-1.1-1.1-3-1.1h-2.6
				c-1.2,0-1.3,0.1-1.3,1.2v7.3h3.5c2.1,0,2.4-0.5,2.9-2.9h1.2v7.4h-1.2c-0.5-2.5-0.8-2.9-2.9-2.9h-3.5v6.2c0,2.4,0.3,2.9,2.3,2.9
				h2.7c2,0,2.4-0.3,3.2-1.2c0.8-0.9,1.5-2.2,2-3.3L222.3,56.8z"/>
			<path class="st0" d="M245.7,50.4c3.5,0.6,6,2.3,6,5.5c0,2.2-1.3,4.1-3.3,5.2c-1.7,1-3.8,1.4-6.3,1.4H233v-1.2
				c2.7-0.3,3-0.5,3-3.3V44.8c0-2.8-0.4-3.1-2.9-3.3v-1.2h9.8c2.6,0,4.2,0.4,5.5,1.2c1.2,0.8,2.1,2.1,2.1,3.8
				C250.4,48.3,247.8,49.9,245.7,50.4z M241.5,49.9c3.4,0,4.7-1.4,4.7-4c0-2.8-1.8-4.1-4.1-4.1c-0.9,0-1.4,0.1-1.7,0.3
				c-0.3,0.2-0.4,0.6-0.4,1.4v6.5H241.5z M240,58c0,2.4,0.9,3.2,3,3.1c2.1,0,4.2-1.6,4.2-4.9c0-3.4-1.9-4.9-5.9-4.9H240V58z"/>
			<path class="st0" d="M270.5,61.7c-1.9,0.3-4,0.7-6,1.2c0-0.7,0-1.6,0-2.4c-1.5,1.3-3,2.4-4.9,2.4c-2.7,0-4.4-1.7-4.4-4.9v-6.9
				c0-1.7-0.2-1.8-1.1-2.1l-0.8-0.2v-1c1.6-0.1,4.2-0.3,5.8-0.6c-0.1,1.3-0.1,3-0.1,5.1v4.8c0,2.5,1.3,3.3,2.6,3.3
				c1.1,0,2-0.3,2.9-1.2v-8.1c0-1.7-0.3-1.9-1.3-2.1l-1-0.2v-1c2-0.1,4.8-0.4,6.1-0.6v11.2c0,1.7,0.2,2.1,1.4,2.2l0.8,0.1V61.7z"/>
			<path class="st0" d="M280.8,51.7c-0.8-2.2-1.9-3.4-3.6-3.4c-1,0-1.9,0.7-1.9,1.9c0,1.3,0.9,1.9,2.7,2.8c2.8,1.3,4.5,2.4,4.5,4.9
				c0,3.3-3.1,4.9-6,4.9c-1.8,0-3.5-0.6-4.2-1c-0.1-0.9-0.5-3-0.6-4.2l1.1-0.2c0.7,2.2,2,4.1,4.3,4.1c1.3,0,2.1-0.8,2.1-2
				c0-1.2-0.7-2-2.7-3c-2.3-1.1-4.4-2.3-4.4-5c0-2.6,2.2-4.7,5.6-4.7c1.6,0,2.8,0.3,3.5,0.5c0.1,0.9,0.4,3,0.5,3.9L280.8,51.7z"/>
			<path class="st0" d="M284.1,62.5v-1.1c1.9-0.2,2.2-0.4,2.2-2.8v-6.8c0-2.2-0.1-2.4-1.9-2.6v-1c2-0.3,4-0.7,5.7-1.3
				c0,1.4,0,2.8,0,4.2v7.4c0,2.3,0.2,2.5,2.2,2.8v1.1H284.1z M287.9,44.5c-1.2,0-2.2-1-2.2-2.2c0-1.3,1-2.2,2.3-2.2
				c1.2,0,2.2,0.9,2.2,2.2C290.1,43.5,289.2,44.5,287.9,44.5z"/>
			<path class="st0" d="M303.2,62.5v-1.1c1.6-0.2,1.8-0.4,1.8-2.7v-5.7c0-2.4-1.1-3.4-2.6-3.4c-1.1,0-2,0.5-3,1.3v8.1
				c0,2.2,0.2,2.3,1.8,2.5v1.1h-7.7v-1.1c1.9-0.3,2.1-0.4,2.1-2.6v-7.1c0-2.1-0.3-2.2-1.9-2.5v-1c1.9-0.3,4-0.7,5.7-1.3
				c0,0.6,0,1.7,0,2.5c0.7-0.5,1.4-1,2.2-1.5c1-0.6,1.7-0.9,2.7-0.9c2.7,0,4.5,2,4.5,5.4v6.4c0,2.2,0.2,2.3,2,2.5v1.1H303.2z"/>
			<path class="st0" d="M325.2,59.3c-2.1,2.9-4.7,3.6-6,3.6c-4.4,0-7-3.4-7-7.4c0-2.4,1-4.6,2.4-6.1c1.5-1.6,3.4-2.4,5.2-2.4
				c3.2,0,5.5,2.7,5.5,5.4c0,0.6-0.1,1.1-0.5,1.2c-0.7,0.2-5.3,0.4-8.9,0.6c0.1,3.9,2.3,5.8,4.8,5.8c1.4,0,2.7-0.5,3.9-1.6
				L325.2,59.3z M319.1,48.4c-1.4,0-2.7,1.6-3,4.3c1.6,0,3.1,0,4.7-0.1c0.5,0,0.7-0.1,0.7-0.7C321.6,50.1,320.7,48.4,319.1,48.4z"/>
			<path class="st0" d="M336.2,51.7c-0.8-2.2-1.9-3.4-3.6-3.4c-1,0-1.9,0.7-1.9,1.9c0,1.3,0.9,1.9,2.7,2.8c2.8,1.3,4.5,2.4,4.5,4.9
				c0,3.3-3.1,4.9-6,4.9c-1.8,0-3.5-0.6-4.2-1c-0.1-0.9-0.5-3-0.6-4.2l1.1-0.2c0.7,2.2,2,4.1,4.3,4.1c1.3,0,2.1-0.8,2.1-2
				c0-1.2-0.7-2-2.7-3c-2.3-1.1-4.4-2.3-4.4-5c0-2.6,2.2-4.7,5.6-4.7c1.6,0,2.8,0.3,3.5,0.5c0.1,0.9,0.4,3,0.5,3.9L336.2,51.7z"/>
			<path class="st0" d="M348.8,51.7c-0.8-2.2-1.9-3.4-3.6-3.4c-1,0-1.9,0.7-1.9,1.9c0,1.3,0.9,1.9,2.7,2.8c2.8,1.3,4.5,2.4,4.5,4.9
				c0,3.3-3.1,4.9-6,4.9c-1.8,0-3.5-0.6-4.2-1c-0.1-0.9-0.5-3-0.6-4.2l1.1-0.2c0.7,2.2,2,4.1,4.3,4.1c1.3,0,2.1-0.8,2.1-2
				c0-1.2-0.7-2-2.7-3c-2.3-1.1-4.4-2.3-4.4-5c0-2.6,2.2-4.7,5.6-4.7c1.6,0,2.8,0.3,3.5,0.5c0.1,0.9,0.4,3,0.5,3.9L348.8,51.7z"/>
			<path class="st0" d="M373.2,45.8c-0.6-2.2-1.6-4.6-4.8-4.6c-2.2,0-3.4,1.6-3.4,3.4c0,2,1.3,3.2,4.3,4.7c3.8,1.9,5.9,3.6,5.9,6.9
				c0,3.9-3.3,6.7-7.9,6.7c-2.1,0-4-0.6-5.5-1.1c-0.2-0.8-0.7-4-1-5.6L362,56c0.7,2.2,2.4,5.6,5.8,5.6c2.2,0,3.5-1.4,3.5-3.6
				c0-2.2-1.3-3.3-4.2-4.9c-3.5-1.9-5.8-3.6-5.8-7c0-3.4,2.7-6.2,7.6-6.2c2.2,0,4,0.5,4.7,0.6c0.1,1.2,0.3,2.9,0.6,5L373.2,45.8z"/>
			<path class="st0" d="M390.3,59.3c-1.5,2.1-3.8,3.6-5.9,3.6c-4.6,0-7.2-3.5-7.2-7.3c0-2.6,1.2-4.9,3.5-6.6c2.1-1.6,4.2-2,5.7-2
				c1.4,0,2.5,0.4,3.1,0.9c0.5,0.4,0.6,0.7,0.6,1.2c0,0.9-0.9,1.8-1.4,1.8c-0.2,0-0.4-0.1-0.7-0.4c-1.3-1.1-2.5-1.6-3.5-1.6
				c-1.6,0-3.4,1.5-3.4,5.1c0,4.6,3.3,6.1,4.9,6.1c1.4,0,2.5-0.4,3.8-1.6L390.3,59.3z"/>
			<path class="st0" d="M400.4,62.5v-1.1c1.7-0.2,1.8-0.4,1.8-2.4v-5.8c0-2.7-1.1-3.8-2.7-3.8c-1,0-2,0.4-2.9,1.3V59
				c0,2,0.2,2.2,1.9,2.4v1.1h-7.9v-1.1c1.8-0.2,2.1-0.3,2.1-2.5v-16c0-1.6-0.2-2-2.2-2.3v-1c2.2-0.2,4.5-0.7,6-1.2c0,1.3,0,2.7,0,4
				v6.9c1.2-1.2,2.9-2.3,4.7-2.3c2.9,0,4.7,1.9,4.7,5.7v6.1c0,2.2,0.3,2.3,2,2.5v1.1H400.4z"/>
			<path class="st0" d="M417.4,47c4.6,0,7.7,3.5,7.7,7.7c0,5.5-4,8.2-7.8,8.2c-5,0-7.9-3.8-7.9-7.8C409.4,49.8,413.7,47,417.4,47z
				 M416.9,48.3c-1.7,0-3.3,1.7-3.3,5.8c0,4.3,1.6,7.4,3.9,7.4c1.6,0,3.1-1.1,3.1-6C420.7,51.1,419.4,48.3,416.9,48.3z"/>
			<path class="st0" d="M434.9,47c4.6,0,7.7,3.5,7.7,7.7c0,5.5-4,8.2-7.8,8.2c-5,0-7.9-3.8-7.9-7.8C426.9,49.8,431.2,47,434.9,47z
				 M434.5,48.3c-1.7,0-3.3,1.7-3.3,5.8c0,4.3,1.6,7.4,3.9,7.4c1.6,0,3.1-1.1,3.1-6C438.2,51.1,436.9,48.3,434.5,48.3z"/>
			<path class="st0" d="M443.8,62.5v-1.1c2-0.3,2.2-0.4,2.2-2.6V43c0-1.9-0.2-2.1-2.1-2.4v-1c2.2-0.2,4.5-0.7,5.9-1.2
				c0,1.6,0,3.1,0,4.7v15.7c0,2.2,0.1,2.4,2.2,2.6v1.1H443.8z"/>
			<path class="st0" d="M132,73.7c0,1.4,0.1,3.3,0.3,5.3l-1.1,0.1c-0.3-1.3-0.9-2.5-1.3-3c-0.6-0.7-0.8-1-2.7-1h-2.5v15.3
				c0,2.6,0.3,2.9,3.2,3.1v1.1h-10.2v-1.1c2.8-0.2,3.1-0.5,3.1-3.1V75.1h-2.3c-1.8,0-2.3,0.3-2.9,1.1c-0.4,0.6-0.8,1.6-1.2,2.9h-1.1
				c0.2-2.2,0.4-3.8,0.5-5.4c0,0,1.7,0,2.7,0h12.8H132z"/>
			<path class="st0" d="M143.2,91.6c-2,2.8-4.4,3.4-5.7,3.4c-4.2,0-6.6-3.2-6.6-7c0-2.2,1-4.4,2.3-5.7c1.4-1.5,3.2-2.3,4.9-2.3
				c3,0,5.2,2.5,5.2,5.1c0,0.6-0.1,1-0.5,1.1c-0.6,0.1-5,0.4-8.4,0.5c0,3.7,2.2,5.5,4.5,5.5c1.3,0,2.5-0.5,3.7-1.5L143.2,91.6z
				 M137.5,81.3c-1.3,0-2.6,1.5-2.8,4c1.5,0,2.9,0,4.4-0.1c0.5,0,0.7-0.1,0.7-0.6C139.8,82.9,138.9,81.3,137.5,81.3z"/>
			<path class="st0" d="M157.5,91.5c-1.5,2-3.6,3.4-5.5,3.4c-4.3,0-6.8-3.3-6.8-6.8c0-2.4,1.2-4.6,3.3-6.2c2-1.5,4-1.9,5.3-1.9
				c1.3,0,2.3,0.4,2.9,0.8c0.4,0.3,0.6,0.7,0.6,1.1c0,0.9-0.9,1.7-1.3,1.7c-0.2,0-0.4-0.1-0.7-0.3c-1.2-1.1-2.3-1.6-3.3-1.6
				c-1.6,0-3.2,1.4-3.2,4.8c0,4.3,3.1,5.7,4.6,5.7c1.3,0,2.3-0.4,3.6-1.5L157.5,91.5z"/>
			<path class="st0" d="M167.5,94.6v-1c1.5-0.2,1.7-0.4,1.7-2.6v-5.4c0-2.3-1-3.3-2.5-3.3c-1,0-1.9,0.5-2.8,1.2v7.7
				c0,2,0.2,2.2,1.7,2.3v1h-7.3v-1c1.8-0.3,2-0.3,2-2.4v-6.6c0-2-0.2-2.1-1.8-2.4v-1c1.8-0.2,3.7-0.7,5.4-1.2c0,0.5,0,1.6,0,2.4
				c0.6-0.4,1.3-0.9,2.1-1.4c0.9-0.6,1.6-0.9,2.6-0.9c2.6,0,4.2,1.9,4.2,5.1v6.1c0,2.1,0.2,2.2,1.8,2.4v1H167.5z"/>
			<path class="st0" d="M183.5,80c4.3,0,7.2,3.3,7.2,7.2c0,5.2-3.8,7.7-7.3,7.7c-4.7,0-7.4-3.6-7.4-7.3C176,82.6,180,80,183.5,80z
				 M183.1,81.2c-1.6,0-3.1,1.6-3.1,5.5c0,4,1.5,7,3.7,7c1.5,0,2.9-1,2.9-5.6C186.7,83.9,185.4,81.2,183.1,81.2z"/>
			<path class="st0" d="M192,94.6v-1c1.9-0.3,2-0.4,2-2.5V76.2c0-1.8-0.2-2-2-2.3v-1c2-0.2,4.2-0.6,5.6-1.1c0,1.5,0,2.9,0,4.4v14.8
				c0,2.1,0.1,2.3,2,2.5v1H192z"/>
			<path class="st0" d="M208.4,80c4.3,0,7.2,3.3,7.2,7.2c0,5.2-3.8,7.7-7.3,7.7c-4.7,0-7.4-3.6-7.4-7.3
				C200.8,82.6,204.9,80,208.4,80z M208,81.2c-1.6,0-3.1,1.6-3.1,5.5c0,4,1.5,7,3.7,7c1.5,0,2.9-1,2.9-5.6
				C211.5,83.9,210.3,81.2,208,81.2z M206.9,77.6l3.2-5.1c0.5-0.2,3.1-0.2,3.6-0.2l0.1,0.4l-6.1,5.4L206.9,77.6z"/>
			<path class="st0" d="M222,89.7c-0.5,0.4-0.7,0.9-0.7,1.3c0,0.5,0.6,1.2,1.9,1.2c1.1,0,2.6,0,3.6,0c2,0,4.8,0.8,4.8,3.9
				c0,3.5-4.3,6.5-8.5,6.5c-4,0-5.9-2.1-5.9-3.9c0-0.7,0.3-1.3,0.9-1.8c0.8-0.6,1.8-1.4,2.5-1.9c-1.2-0.4-2-1.1-2.4-1.8
				c-0.4-0.5-0.5-1.2-0.5-1.6c1.4-0.6,2.7-1.5,3.3-2.3L222,89.7z M223.5,90c-3.4,0-5.8-1.9-5.8-4.8c0-3.5,3.3-5.2,6.1-5.2
				c1.2,0,2.3,0.3,3.4,0.8c1.4,0,3.5-0.2,4.4-0.5l0.2,0.3c-0.2,0.6-0.6,1.6-1.2,1.9c-0.5,0-1.5-0.1-1.9-0.2c0.5,0.6,0.8,1.5,0.8,2.7
				C229.5,88.3,226.5,90,223.5,90z M224,95.1c-1.6,0-2.4,0.2-2.9,0.6c-0.7,0.5-1.1,1.3-1.1,2.1c0,1.7,1.7,3,4.3,3
				c2.7,0,4.3-1.3,4.3-3.1c0-1.2-0.7-2-1.6-2.3C226.2,95.2,225.3,95.1,224,95.1z M223.6,81.1c-1.2,0-2.2,1.2-2.2,3.6
				c0,2.3,0.9,4.1,2.5,4.1c1.3,0,2.2-1.3,2.2-3.7C226,82.9,225.2,81.1,223.6,81.1z"/>
			<path class="st0" d="M232.3,94.6v-1c1.8-0.2,2-0.4,2-2.6v-6.4c0-2.1-0.1-2.2-1.8-2.5v-1c1.9-0.2,3.7-0.7,5.4-1.2c0,1.3,0,2.7,0,4
				v7c0,2.2,0.2,2.4,2.1,2.6v1H232.3z M235.9,77.6c-1.1,0-2.1-0.9-2.1-2.1c0-1.2,1-2.1,2.1-2.1c1.1,0,2.1,0.9,2.1,2.1
				C238,76.6,237.1,77.6,235.9,77.6z"/>
			<path class="st0" d="M253.6,91.5c-1.5,2-3.6,3.4-5.5,3.4c-4.3,0-6.8-3.3-6.8-6.8c0-2.4,1.2-4.6,3.3-6.2c2-1.5,4-1.9,5.3-1.9
				c1.3,0,2.3,0.4,2.9,0.8c0.4,0.3,0.6,0.7,0.6,1.1c0,0.9-0.9,1.7-1.3,1.7c-0.2,0-0.4-0.1-0.7-0.3c-1.2-1.1-2.3-1.6-3.3-1.6
				c-1.6,0-3.2,1.4-3.2,4.8c0,4.3,3.1,5.7,4.6,5.7c1.3,0,2.3-0.4,3.6-1.5L253.6,91.5z"/>
			<path class="st0" d="M262.1,80c4.3,0,7.2,3.3,7.2,7.2c0,5.2-3.8,7.7-7.3,7.7c-4.7,0-7.4-3.6-7.4-7.3
				C254.6,82.6,258.6,80,262.1,80z M261.7,81.2c-1.6,0-3.1,1.6-3.1,5.5c0,4,1.5,7,3.7,7c1.5,0,2.9-1,2.9-5.6
				C265.3,83.9,264,81.2,261.7,81.2z"/>
			<path class="st0" d="M293.7,93.7c-0.7,0.1-3.5,0.5-5.8,1.2c0-0.6,0-1.3,0-1.9c-0.6,0.4-1.4,0.8-2,1.2c-0.9,0.6-1.6,0.7-1.9,0.7
				c-2.7,0-6.4-2.4-6.4-7.1c0-4.4,3.9-7.9,8.7-7.9c0.3,0,1,0,1.6,0.2v-4c0-1.8-0.2-1.9-2.3-2.2v-1c1.9-0.2,4.4-0.7,5.9-1.1
				c0,1.2,0,2.5,0,3.8v14.9c0,1.7,0.2,1.9,1.4,2l0.8,0.1V93.7z M287.9,83c-0.5-1-1.5-1.6-2.7-1.6c-1.2,0-3.5,0.8-3.5,5.4
				c0,4.1,2.4,5.8,4,5.8c0.8,0,1.5-0.3,2.3-0.8V83z"/>
			<path class="st0" d="M307,91.6c-2,2.8-4.4,3.4-5.7,3.4c-4.2,0-6.6-3.2-6.6-7c0-2.2,1-4.4,2.3-5.7c1.4-1.5,3.2-2.3,4.9-2.3
				c3,0,5.2,2.5,5.2,5.1c0,0.6-0.1,1-0.5,1.1c-0.6,0.1-5,0.4-8.4,0.5c0,3.7,2.2,5.5,4.5,5.5c1.3,0,2.5-0.5,3.7-1.5L307,91.6z
				 M301.2,81.3c-1.4,0-2.6,1.5-2.8,4c1.5,0,2.9,0,4.4-0.1c0.5,0,0.7-0.1,0.7-0.6C303.6,82.9,302.7,81.3,301.2,81.3z"/>
			<path class="st0" d="M332.5,94.6v-1.1c2.5-0.3,2.6-0.5,2.6-3.5l0-12.7c-2.4,5.6-5.6,12.8-7.4,17.3h-1c-1.7-4.4-4.5-11.4-6.8-17.1
				c-0.5,10.5-0.5,12.7-0.5,13.6c0,1.8,0.7,2.1,3.1,2.4v1.1h-7.8v-1.1c1.8-0.2,2.7-0.5,2.9-2.4c0.2-1.1,0.2-2.7,1-13.7
				c0.1-1.6-0.2-2.3-2.9-2.6v-1.1h6.5l6.5,14.9l6.7-14.9h6.4v1.1c-2.6,0.3-2.9,0.5-2.9,3l0.2,12.1c0.1,3.1,0.2,3.2,2.9,3.5v1.1
				H332.5z"/>
			<path class="st0" d="M350.2,80c4.3,0,7.2,3.3,7.2,7.2c0,5.2-3.8,7.7-7.3,7.7c-4.7,0-7.4-3.6-7.4-7.3
				C342.6,82.6,346.7,80,350.2,80z M349.8,81.2c-1.6,0-3.1,1.6-3.1,5.5c0,4,1.5,7,3.7,7c1.5,0,2.9-1,2.9-5.6
				C353.3,83.9,352.1,81.2,349.8,81.2z"/>
			<path class="st0" d="M368.1,94.6v-1c1.5-0.2,1.7-0.4,1.7-2.6v-5.4c0-2.3-1-3.3-2.5-3.3c-1,0-1.9,0.5-2.8,1.2v7.7
				c0,2,0.2,2.2,1.7,2.3v1h-7.3v-1c1.8-0.3,2-0.3,2-2.4v-6.6c0-2-0.2-2.1-1.8-2.4v-1c1.8-0.2,3.7-0.7,5.4-1.2c0,0.5,0,1.6,0,2.4
				c0.6-0.4,1.3-0.9,2.1-1.4c0.9-0.6,1.6-0.9,2.6-0.9c2.6,0,4.2,1.9,4.2,5.1v6.1c0,2.1,0.2,2.2,1.8,2.4v1H368.1z"/>
			<path class="st0" d="M382.7,94.6c-0.5,0.3-1.1,0.4-1.3,0.4c-2.3,0-3.7-1.2-3.7-4v-9.1h-2.1l-0.2-0.4l0.9-1.1h1.4v-2.7
				c0.9-0.7,2.3-1.7,3.2-2.4l0.4,0.2c0,1-0.1,2.8-0.1,4.9h3.4c0.3,0.3,0.2,1.2-0.2,1.5h-3.1v8c0,2.5,1,2.9,1.7,2.9
				c0.6,0,1.2-0.2,1.7-0.4l0.3,1L382.7,94.6z"/>
			<path class="st0" d="M397.7,91.6c-2,2.8-4.4,3.4-5.7,3.4c-4.2,0-6.6-3.2-6.6-7c0-2.2,1-4.4,2.3-5.7c1.4-1.5,3.2-2.3,4.9-2.3
				c3,0,5.2,2.5,5.2,5.1c0,0.6-0.1,1-0.5,1.1c-0.6,0.1-5,0.4-8.4,0.5c0,3.7,2.2,5.5,4.5,5.5c1.3,0,2.5-0.5,3.7-1.5L397.7,91.6z
				 M392,81.3c-1.3,0-2.6,1.5-2.8,4c1.5,0,2.9,0,4.4-0.1c0.5,0,0.7-0.1,0.7-0.6C394.3,82.9,393.4,81.3,392,81.3z"/>
			<path class="st0" d="M407.3,94.6h-8.1v-1c1.8-0.2,2-0.4,2-2.3v-6.9c0-1.8-0.1-1.9-1.8-2.2v-0.9c1.8-0.2,3.5-0.6,5.3-1.3
				c0,1.1,0,2.4,0,3.5c1.3-2,2.6-3.4,4-3.4c1.2,0,2,0.8,2,1.8c0,1.3-0.9,2.1-1.4,2.4c-0.4,0.2-0.7,0.1-0.9-0.1
				c-0.5-0.5-0.9-0.9-1.5-0.9c-0.5,0-1.5,0.6-2.1,2v6.1c0,2,0.2,2.1,2.5,2.3V94.6z"/>
			<path class="st0" d="M419.5,94.6h-8.1v-1c1.8-0.2,2-0.4,2-2.3v-6.9c0-1.8-0.1-1.9-1.8-2.2v-0.9c1.8-0.2,3.5-0.6,5.3-1.3
				c0,1.1,0,2.4,0,3.5c1.3-2,2.6-3.4,4-3.4c1.2,0,2,0.8,2,1.8c0,1.3-0.9,2.1-1.4,2.4c-0.4,0.2-0.7,0.1-0.9-0.1
				c-0.5-0.5-0.9-0.9-1.5-0.9c-0.5,0-1.5,0.6-2.1,2v6.1c0,2,0.2,2.1,2.5,2.3V94.6z"/>
			<path class="st0" d="M435.8,91.6c-2,2.8-4.4,3.4-5.7,3.4c-4.2,0-6.6-3.2-6.6-7c0-2.2,1-4.4,2.3-5.7c1.4-1.5,3.2-2.3,4.9-2.3
				c3,0,5.2,2.5,5.2,5.1c0,0.6-0.1,1-0.5,1.1c-0.6,0.1-5,0.4-8.4,0.5c0,3.7,2.2,5.5,4.5,5.5c1.3,0,2.5-0.5,3.7-1.5L435.8,91.6z
				 M430.1,81.3c-1.4,0-2.6,1.5-2.8,4c1.5,0,2.9,0,4.4-0.1c0.5,0,0.7-0.1,0.7-0.6C432.4,82.9,431.5,81.3,430.1,81.3z"/>
			<path class="st0" d="M452.4,81.4c-1.6,0.2-1.9,0.5-2.7,2.3c-0.8,1.7-1.7,4-3.7,8.9c-2.1,5.2-2.7,7.2-3.3,9
				c-0.2,0.7-0.6,0.9-1.1,0.9c-1.2,0-2.3-0.9-2.3-1.9c0-0.5,0.2-0.7,0.8-1.2c1.2-0.7,2-1.4,2.5-2.3c0.4-0.8,0.8-1.8,1-2.2
				c0.1-0.5,0.1-0.7-0.1-1.3c-1.5-4.3-3.5-8.5-4.2-10.2c-0.6-1.5-1-1.9-2.6-2.1v-1h7.5v1c-1.4,0.2-1.6,0.5-1.2,1.5l2.7,7.2
				c0.8-1.9,2-5.1,2.6-7c0.3-1.1,0-1.5-1.7-1.7v-1h5.9V81.4z"/>
		</g>
		<path class="st0" d="M48,19.3c-25.9,0-47,21-47,47c0,23.9,17.8,43.6,40.9,46.6v-7.3h0.4c-15.1-1.8-20.8-10.7-20.8-10.7H74
			c-0.8,1.1-5.7,9-20.5,10.7h0.1v7.3c23.3-2.8,41.4-22.6,41.4-46.6C94.9,40.3,73.9,19.3,48,19.3z M21.8,77.4
			C11.6,66.7,18,57.6,21.3,53.5c3.3-4.1,17.3-16.1,22.4-21.8c5.1-5.7,3.9-10.6,3.9-10.6c7.2,5.2,5.1,10.9,0.8,15.6
			c-4.4,4.7-20.4,18.9-25,25.5C18.7,68.7,21.8,77.4,21.8,77.4z M30.5,59c5.7-5.5,19-18.6,24.6-24.2s5.6-10.5,5.6-10.5
			c3,3.6,5.7,8.2-0.5,15.1C54,46.3,38,60.7,32.5,67c-5.6,6.3-5.1,12.2-5.1,12.2C22.8,72.7,24.8,64.5,30.5,59z M36.2,92.2
			c-8.9-7.5-4.4-19.8,3.2-27c7.5-7.2,14.6-14.1,21-20.3s6.2-9.1,6.2-9.1c2.4,7,2,9.8-4.4,16.8c-6.3,7-11.5,10.7-20.3,20.3
			S36.2,92.2,36.2,92.2z M73.8,70.5c-5.7,5.7-12.1,11.1-14.5,15.8c-2.4,4.6-2,5.9-2,5.9c-4.7-6.9-0.7-14.3,2.5-17.5
			c3.2-3.2,8.9-8.7,12.3-11.6s5-5.9,5-5.9S79.5,64.9,73.8,70.5z M73.1,56.6c-5.2,5.5-5.9,5.8-11,10.7S53.3,76,49.6,81.4
			c-3.8,5.4-2.9,10.8-2.9,10.8C39.2,83.5,44,75.8,48,71.6c4-4.2,18.9-17.7,24.1-23.5c5.2-5.8,5.2-7.8,5.2-7.8
			C80.1,48.3,78.3,51.1,73.1,56.6z"/>
	</g>
</g>
</svg>
